SplineFontDB: 3.2
FontName: Gyongyiras_vonal
FullName: Gyongyiras_vonal
FamilyName: Gyongyiras_vonal
Weight: Medium

StartChar: a
Encoding: 97 97 0
Width: 499
VWidth: 0
Flags: HW
HStem: -16 33<646 786 912 998> 320 33<648 799>
VStem: 544 33<92 243> 856 33<79 257 297 342>
LayerCount: 4
Back
Fore
SplineSet
-16 170 m 0
 -16 266 44 352 150 352 c 2
 157 352 l 2
 197 352 257 348 294 298 c 1
 294 336 l 2
 294 345 302 352 311 352 c 0
 320 352 328 345 328 336 c 2
 328 94 l 2
 328 53 351 16 393 16 c 0
 437 16 439 17 487 65 c 0
 490 68 494 70 498 70 c 0
 507 70 516 61 516 52 c 0
 516 48 514 44 511 41 c 0
 458 -12 447 -16 393 -16 c 0
 348 -16 314 12 301 53 c 1
 272 13 220 -16 150 -16 c 0
 40 -16 -16 74 -16 170 c 0
16 170 m 0
 16 89 62 16 150 16 c 0
 246 16 294 80 294 130 c 2
 294 180 l 1
 293 182 294 183 294 185 c 0
 290 315 207 320 157 320 c 2
 150 320 l 2
 64 320 16 249 16 170 c 0
EndSplineSet
Validated: 1
Layer: 2
SplineSet
499 53 m 21
 446 0 439 0 393 0 c 4
 340 0 311 45.3516 311 94 c 31
 311 188.38 311 241.62 311 336 c 29
 311 255.66 311 196 311 130 c 7
 311 70 254 0 150 0 c 4
 51 0 0 81.5811 0 170 c 31
 0 257.256 54 336 150 336 c 7
 197 336 305 340 310 186 c 1029
EndSplineSet
EndChar

StartChar: b
Encoding: 98 98 1
Width: 642
VWidth: 0
Flags: HW
HStem: -16 33<244.253 380.905> 162 33<-16.4946 43.1068 562.849 633.245> 624 33<206.714 274.729>
VStem: 154 33<79.7634 261.27 293.284 314.561 351.781 601.802> 286 33<485.325 613.791> 441 33<89.767 252.248 289.726 351.548>
LayerCount: 4
Back
Fore
SplineSet
6 171 m 2
 92 289 l 1
 92 549 l 2
 92 603 106 664 181 664 c 0
 253 664 264 602 264 553 c 0
 264 495 202 389 125 279 c 1
 126 179 l 2
 127 104 173 16 248 16 c 0
 337 16 392 96 392 184 c 2
 392 336 l 2
 392 347 401 352 409 352 c 0
 417 352 426 347 426 336 c 2
 426 335 l 2
 426 278 469 253 515 253 c 0
 558 253 599 275 610 313 c 0
 613 321 619 325 625 325 c 0
 634 325 643 318 643 308 c 0
 643 306 643 305 642 303 c 0
 625 247 568 220 515 220 c 0
 481 220 449 231 426 253 c 1
 426 184 l 2
 426 81 359 -16 248 -16 c 0
 152 -16 92 87 92 179 c 2
 92 232 l 1
 32 151 l 2
 29 146 24 145 20 145 c 0
 11 145 2 152 2 161 c 0
 2 164 4 168 6 171 c 2
126 337 m 1
 189 432 232 512 232 553 c 0
 232 609 216 632 181 632 c 0
 144 632 126 610 126 549 c 2
 126 337 l 1
EndSplineSet
Validated: 1
Layer: 2
SplineSet
626 308 m 5
 596 208.062 408 208 409 336 c 5
 409 276 409 243.28 409 184 c 31
 409 88.6475 348 0 248 0 c 7
 160 0 109 99 109 179 c 4
 109 179 109 404.7 109 549 c 31
 109 596.741 119 648 181 648 c 7
 239 648 248 597 248 553 c 7
 248 476 121 295 19 161 c 1029
EndSplineSet
EndChar

StartChar: O
Encoding: 79 79 2
Width: 650
VWidth: 0
Flags: HW
LayerCount: 4
Back
Fore
SplineSet
318 666 m 0
 504 666 650 514 650 332 c 0
 650 256 622 159 555 91 c 0
 499 34 412 -17 317 -17 c 0
 223 -17 137 33 82 88 c 0
 13 157 -16 255 -16 333 c 0
 -16 511 124 666 318 666 c 0
617 332 m 0
 617 495 486 632 318 632 c 0
 141 632 16 491 16 333 c 0
 16 264 44 174 106 112 c 0
 156 62 232 16 317 16 c 0
 403 16 481 64 531 115 c 0
 591 176 617 264 617 332 c 0
EndSplineSet
Layer: 2
SplineSet
318 649 m 4
 235 649 152 617 93 558 c 4
 34 499 0 416 0 333 c 4
 0 249 35 159 94 100 c 4
 153 41 236 -1 320 0 c 4
 403 1 485 44 543 103 c 4
 601 162 634 253 633 336 c 4
 632 418 598 500 540 558 c 4
 482 616 400 649 318 649 c 4
EndSplineSet
EndChar

StartChar: acute
Encoding: 180 180 3
Width: 1333
VWidth: 0
Flags: HW
HStem: 500 163
VStem: 460 32<501 661>
LayerCount: 4
Back
Fore
SplineSet
460 504 m 1
 460 666 l 1
 492 666 l 1
 492 504 l 1
 460 504 l 1
EndSplineSet
Validated: 1
EndChar

StartChar: o
Encoding: 111 111 6
Width: 485
VWidth: 0
Flags: HW
HStem: -16 33<228 362> 184 33<475 566> 320 33<228 354>
VStem: 125 33<91 245> 430 33<104 203>
LayerCount: 4
Back
Fore
SplineSet
-16 169 m 0
 -16 262 46 352 144 352 c 0
 215 352 250 319 276 291 c 1
 280 289 285 285 291 276 c 1
 308 261 332 252 358 252 c 0
 400 252 440 273 453 312 c 0
 456 320 462 324 468 324 c 0
 477 324 486 317 486 307 c 0
 486 305 486 304 485 302 c 0
 466 246 410 219 358 219 c 0
 343 219 328 221 314 226 c 1
 317 212 319 195 319 176 c 0
 319 85 286 -16 154 -16 c 0
 32 -16 -16 71 -16 169 c 0
16 169 m 0
 16 99 44 16 154 16 c 0
 252 16 270 80 276 103 c 0
 280 117 286 146 286 176 c 0
 286 234 263 257 256 266 c 0
 233 292 205 320 144 320 c 0
 70 320 16 248 16 169 c 0
EndSplineSet
Validated: 1
Layer: 2
SplineSet
284 258 m 5
 255 289 227 336 144 336 c 4
 58 336 0 255 0 169 c 31
 0 80 42 0 154 0 c 4
 261 0 284 69 292 99 c 4
 301 131 318 227 269 276 c 5
 317 212 441 225 469 307 c 1028
EndSplineSet
EndChar

StartChar: oacute
Encoding: 243 243 7
Width: 485
VWidth: 0
Flags: HW
HStem: -16 33<228 362> 184 33<475 566> 320 33<228 354> 432 163
VStem: 125 33<91 245> 269 32<434 594> 430 33<104 203>
LayerCount: 4
Fore
SplineSet
-16 169 m 0
 -16 262 46 352 144 352 c 0
 215 352 250 319 276 291 c 1
 280 289 285 285 291 276 c 1
 308 261 332 252 358 252 c 0
 400 252 440 273 453 312 c 0
 456 320 462 324 468 324 c 0
 477 324 486 317 486 307 c 0
 486 305 486 304 485 302 c 0
 466 246 410 219 358 219 c 0
 343 219 328 221 314 226 c 1
 317 212 319 195 319 176 c 0
 319 85 286 -16 154 -16 c 0
 32 -16 -16 71 -16 169 c 0
16 169 m 0
 16 99 44 16 154 16 c 0
 252 16 270 80 276 103 c 0
 280 117 286 146 286 176 c 0
 286 234 263 257 256 266 c 0
 233 292 205 320 144 320 c 0
 70 320 16 248 16 169 c 0
125 503 m 1
 125 665 l 1
 157 665 l 1
 157 503 l 1
 125 503 l 1
EndSplineSet
EndChar

StartChar: dieresis
Encoding: 168 168 8
Width: 1333
VWidth: 0
InSpiro: 1
Flags: HW
HStem: 488 64<191 231 282 322>
VStem: 180 59<498 551> 271 59<499 553>
LayerCount: 4
Back
Fore
SplineSet
180 519 m 0
 180 530 185 542 197 548 c 0
 201 550 205 551 209 551 c 0
 226 551 239 535 239 518 c 0
 239 511 237 504 232 498 c 0
 226 490 218 487 210 487 c 0
 195 487 180 499 180 519 c 0
  Spiro
    180 519 o
    181.737 530.063 o
    187.267 540.268 o
    197 548 o
    203 550.25 o
    209 551 o
    224.32 546.231 o
    235.008 534.096 o
    239 518 o
    238.298 511.044 o
    236.034 504.29 o
    232 498 o
    225.415 491.597 o
    217.918 488.072 o
    210 487 o
    195.569 490.844 o
    184.436 501.829 o
    0 0 z
  EndSpiro
271 521 m 0
 271 534 278 545 288 550 c 0
 292 552 296 553 300 553 c 0
 317 553 330 536 330 519 c 0
 330 512 328 505 323 499 c 0
 317 491 309 488 301 488 c 0
 285 488 271 501 271 521 c 0
  Spiro
    271 521 o
    273.181 533.174 o
    279.156 543.157 o
    288 550 o
    294 552.25 o
    300 553 o
    315.32 547.972 o
    326.008 535.355 o
    330 519 o
    329.298 512.044 o
    327.034 505.29 o
    323 499 o
    316.415 492.597 o
    308.918 489.072 o
    301 488 o
    286.124 492.103 o
    275.214 503.57 o
    0 0 z
  EndSpiro
EndSplineSet
Validated: 1
EndChar

StartChar: hungarumlaut
Encoding: 733 733 9
Width: 1333
VWidth: 0
Flags: HW
HStem: 456 161<165 191 230 255>
VStem: 158 33<456 617> 223 32<456 617>
LayerCount: 4
Back
Fore
SplineSet
159 505 m 1
 159 666 l 1
 192 666 l 1
 192 505 l 1
 159 505 l 1
224 505 m 1
 224 666 l 1
 256 666 l 1
 256 505 l 1
 224 505 l 1
EndSplineSet
Validated: 1
EndChar

StartChar: odieresis
Encoding: 246 246 10
Width: 485
VWidth: 0
Flags: HW
HStem: -16 33<228 362> 184 33<475 566> 320 33<228 354> 434 64<220 260 311 351>
VStem: 125 33<91 245> 209 59<443 497> 300 59<444 498> 430 33<104 203>
LayerCount: 4
Fore
SplineSet
-16 169 m 0
 -16 262 46 352 144 352 c 0
 215 352 250 319 276 291 c 1
 280 289 285 285 291 276 c 1
 308 261 332 252 358 252 c 0
 400 252 440 273 453 312 c 0
 456 320 462 324 468 324 c 0
 477 324 486 317 486 307 c 0
 486 305 486 304 485 302 c 0
 466 246 410 219 358 219 c 0
 343 219 328 221 314 226 c 1
 317 212 319 195 319 176 c 0
 319 85 286 -16 154 -16 c 0
 32 -16 -16 71 -16 169 c 0
16 169 m 0
 16 99 44 16 154 16 c 0
 252 16 270 80 276 103 c 0
 280 117 286 146 286 176 c 0
 286 234 263 257 256 266 c 0
 233 292 205 320 144 320 c 0
 70 320 16 248 16 169 c 0
66 505 m 0
 66 516 71 528 83 534 c 0
 87 536 91 537 95 537 c 0
 112 537 125 521 125 504 c 0
 125 497 123 490 118 484 c 0
 112 476 104 473 96 473 c 0
 81 473 66 485 66 505 c 0
157 507 m 0
 157 520 164 531 174 536 c 0
 178 538 182 539 186 539 c 0
 203 539 216 522 216 505 c 0
 216 498 214 491 209 485 c 0
 203 477 195 474 187 474 c 0
 171 474 157 487 157 507 c 0
EndSplineSet
EndChar

StartChar: ohungarumlaut
Encoding: 337 337 11
Width: 485
VWidth: 0
Flags: HW
HStem: -16 33<228 362> 184 33<475 566> 320 33<228 354> 432 161<243 269 309 333>
VStem: 125 33<91 245> 236 33<432 593> 301 32<432 593> 430 33<104 203>
LayerCount: 4
Fore
SplineSet
-16 169 m 0
 -16 262 46 352 144 352 c 0
 215 352 250 319 276 291 c 1
 280 289 285 285 291 276 c 1
 308 261 332 252 358 252 c 0
 400 252 440 273 453 312 c 0
 456 320 462 324 468 324 c 0
 477 324 486 317 486 307 c 0
 486 305 486 304 485 302 c 0
 466 246 410 219 358 219 c 0
 343 219 328 221 314 226 c 1
 317 212 319 195 319 176 c 0
 319 85 286 -16 154 -16 c 0
 32 -16 -16 71 -16 169 c 0
16 169 m 0
 16 99 44 16 154 16 c 0
 252 16 270 80 276 103 c 0
 280 117 286 146 286 176 c 0
 286 234 263 257 256 266 c 0
 233 292 205 320 144 320 c 0
 70 320 16 248 16 169 c 0
92 502 m 1
 92 663 l 1
 125 663 l 1
 125 502 l 1
 92 502 l 1
157 502 m 1
 157 663 l 1
 189 663 l 1
 189 502 l 1
 157 502 l 1
EndSplineSet
EndChar

StartChar: c
Encoding: 99 99 12
Width: 303
VWidth: 0
Flags: HW
HStem: -20 32<689 833> 322 32<679 819>
VStem: 559 32<107 235>
LayerCount: 4
Back
Fore
SplineSet
165 320 m 3
 77 320 16 249 16 167 c 3
 16 89 78 16 164 16 c 3
 208 16 245 19 291 65 c 0
 294 68 298 70 302 70 c 0
 311 70 320 61 320 52 c 0
 320 48 318 44 315 41 c 0
 263 -11 219 -16 164 -16 c 3
 58 -16 -16 73 -16 167 c 3
 -16 267 59 352 165 352 c 3
 218 352 268 327 296 296 c 0
 299 293 301 288 301 285 c 0
 301 276 292 269 283 269 c 0
 279 269 275 270 272 274 c 0
 244 305 197 320 165 320 c 3
EndSplineSet
Layer: 2
SplineSet
284 285 m 5
 260 312.25 213.75 336 165 336 c 7
 68 336 0 258 0 167 c 7
 0 81 67.9167 0 164 0 c 7
 215 0 254 4 303 53 c 1037
EndSplineSet
EndChar

StartChar: d
Encoding: 100 100 13
Width: 535
VWidth: 0
Flags: HW
HStem: -16 33<1258.73 1398.73 1541.73 1647.73> 321 32<1266.73 1398.73>
VStem: 1157 34<89 245> 1468 32<93 208 290 665>
LayerCount: 4
Back
Fore
SplineSet
-16 180 m 0
 -16 269 54 352 153 352 c 0
 204 352 260 333 294 293 c 1
 294 648 l 2
 294 657 301 664 310 664 c 0
 319 664 326 657 326 648 c 2
 326 209 l 1
 327 208 l 1
 326 207 l 1
 326 120 l 2
 326 70 358 16 416 16 c 0
 498 16 516 70 536 70 c 0
 539 70 543 68 546 65 c 0
 550 62 551 57 551 53 c 0
 551 49 550 45 547 42 c 0
 493 -16 436 -16 416 -16 c 0
 356 -16 318 24 302 70 c 1
 276 20 229 -16 156 -16 c 0
 67 -16 -16 26 -16 180 c 0
16 180 m 0
 16 58 72 16 156 16 c 0
 254 16 294 96 294 180 c 2
 294 207 l 1
 290 282 220 320 153 320 c 0
 74 320 16 253 16 180 c 0
EndSplineSet
Validated: 1
Layer: 2
SplineSet
535 53 m 21
 488 2 438 0 416 0 c 4
 346 0 310 64 310 120 c 7
 310 326 310 442 310 648 c 29
 310 465 310 363 310 180 c 31
 310 88 265 0 156 0 c 4
 28 0 0 92 0 180 c 4
 0 261 64 336 153 336 c 4
 226 336 305 294 310 208 c 1028
EndSplineSet
EndChar

StartChar: e
Encoding: 101 101 14
Width: 267
VWidth: 0
Flags: HW
HStem: -16 33<328 455> 320 33<324 430>
VStem: 236 33<132 256> 449 33<246 301>
LayerCount: 4
Back
Fore
SplineSet
-17 96 m 0
 -17 110 4 113 21 120 c 1
 18 137 16 154 16 170 c 0
 16 233 38 352 129 352 c 0
 197 352 231 313 231 269 c 0
 231 197 128 131 60 101 c 1
 76 52 107 16 133 16 c 0
 232 16 249 70 268 70 c 0
 272 70 283 67 283 53 c 0
 283 49 282 44 279 41 c 0
 228 -10 179 -16 133 -16 c 0
 85 -16 48 31 29 88 c 1
 19 84 8 79 -1 79 c 0
 -11 79 -17 87 -17 96 c 0
48 170 m 0
 48 157 50 145 52 133 c 1
 108 158 154 191 188 236 c 0
 194 244 198 256 198 269 c 0
 198 289 184 319 129 319 c 0
 65 319 48 218 48 170 c 0
EndSplineSet
Validated: 1
Layer: 2
SplineSet
0 95 m 1
 82.2491 123.335 153.336 162.893 201 226 c 1
 231 270 213 335.938 129 335.938 c 3
 54.0381 335.938 32 231.656 32 170 c 3
 32 84.9941 81 0 133 0 c 3
 174 0 219 5 267 53 c 1024
EndSplineSet
EndChar

StartChar: f
Encoding: 102 102 15
Width: 254
VWidth: 0
Flags: HW
HStem: -16 33<449 496 528 608> 634 33<576 656>
VStem: 496 33<-330 -15 17 256 288 299 354 564> 665 33<532 624>
LayerCount: 4
Back
Fore
SplineSet
-13 175 m 2
 89 308 l 1
 89 385 88 461 88 539 c 0
 88 597 108 666 183 666 c 0
 244 666 264 597 264 552 c 0
 264 504 195 397 122 297 c 1
 122 17 l 1
 180 17 196 20 243 65 c 0
 247 68 250 70 254 70 c 0
 263 70 270 62 270 53 c 0
 270 49 269 45 265 41 c 0
 211 -10 187 -16 122 -16 c 1
 122 -316 l 2
 122 -325 115 -332 106 -332 c 0
 97 -332 90 -325 90 -316 c 0
 90 -208 89 -110 89 -16 c 1
 54 -13 28 2 -7 43 c 0
 -10 46 -11 50 -11 53 c 0
 -11 62 -2 71 7 71 c 0
 11 71 16 69 19 65 c 0
 47 33 64 21 89 18 c 1
 89 252 l 1
 13 155 l 2
 9 151 5 149 0 149 c 0
 -9 149 -17 156 -17 165 c 0
 -17 168 -16 171 -13 175 c 2
122 353 m 1
 193 453 232 524 232 552 c 0
 232 592 215 634 183 634 c 0
 134 634 122 585 122 539 c 0
 122 477 122 415 122 353 c 1
EndSplineSet
Validated: 1
Layer: 2
SplineSet
106 -316 m 24
 106 18 105 269 105 539 c 3
 105 593 122 650 183 650 c 3
 229 650 248 595 248 552 c 3
 248 494 124 321 0 165 c 1025
6 54 m 17
 42 12 66 0 108 0 c 3
 177 0 197 -1 254 53 c 1029
EndSplineSet
EndChar

StartChar: g
Encoding: 103 103 17
Width: 484
VWidth: 0
Flags: HW
HStem: -333 33<606 697> -5 33<520 636> 321 33<525 650>
VStem: 413 33<104 241> 556 33<-283 -176> 720 38<-278 -44 40 75 102 260 284 332>
LayerCount: 4
Back
Fore
SplineSet
292 134 m 0
 292 201 291 195 291 201 c 0
 291 276 216 320 160 320 c 0
 77 320 17 253 16 173 c 1
 16 170 l 2
 16 89 78 16 154 16 c 0
 220 16 292 67 292 134 c 0
-17 170 m 0
 -17 269 58 352 160 352 c 0
 204 352 258 330 292 289 c 1
 292 300 292 310 292 318 c 0
 292 341 294 353 309 353 c 0
 319 353 325 345 325 336 c 2
 326 336 l 1
 326 143 l 2
 326 139 325 136 325 132 c 0
 325 93 325 52 325 9 c 1
 365 58 414 112 472 172 c 0
 475 176 479 177 483 177 c 0
 492 177 501 168 501 159 c 0
 501 155 499 151 496 148 c 0
 429 79 370 14 325 -44 c 1
 325 -104 326 -165 326 -222 c 0
 326 -256 321 -324 263 -324 c 0
 236 -324 196 -309 196 -230 c 0
 196 -183 228 -117 292 -33 c 1
 292 50 l 1
 259 9 205 -16 154 -16 c 0
 57 -16 -17 74 -17 170 c 0
292 -89 m 1
 252 -147 230 -195 230 -230 c 0
 230 -266 239 -292 263 -292 c 0
 279 -292 292 -279 292 -222 c 0
 292 -179 292 -134 292 -89 c 1
EndSplineSet
Layer: 2
SplineSet
307 198 m 1
 309 285 224 336 160 336 c 3
 68 336 1.59042 262.063 0 173 c 24
 -1.6123 82.6846 67 0 154 0 c 0
 230 0 309 60.7539 309 143 c 27
 309 218.27 309 278 309 336 c 5
 308 270 309 -4.37988 309 -222 c 31
 309 -260.036 303 -308 263 -308 c 7
 223.987 -308 213 -269 213 -230 c 7
 213 -121.958 409 83 484 160 c 1029
EndSplineSet
Layer: 3
SplineSet
307 198 m 5
 309 285 224 336 160 336 c 7
 68 336 1.58984 262.062 0 173 c 28
 -1.6123 82.6846 67 0 154 0 c 4
 230 0 309 60.7539 309 143 c 31
 309 218.27 309 278 309 336 c 5
 308 270 309 -4.37988 309 -222 c 31
 309 -260.036 303 -308 263 -308 c 7
 223.987 -308 213 -269 213 -230 c 7
 213 -144.976 323 -24 386 53 c 1029
EndSplineSet
EndChar

StartChar: h
Encoding: 104 104 18
Width: 554
VWidth: 0
Flags: HW
HStem: -16 33<1084 1174> 320 33<856 978> 634 33<807 878>
VStem: 741 33<-11 238 278 286 345 595> 895 33<526 618> 1025 33<46 277>
LayerCount: 4
Back
Fore
SplineSet
-13 164 m 2
 62 269 l 1
 62 533 l 2
 62 605 81 666 161 666 c 0
 227 666 250 618 250 569 c 0
 250 516 203 424 139 325 c 1
 165 342 196 352 230 352 c 0
 329 352 394 281 394 192 c 2
 394 125 l 2
 394 66 415 16 456 16 c 0
 488 16 503 19 541 64 c 0
 544 68 549 70 553 70 c 0
 562 70 571 61 571 52 c 0
 571 49 570 45 567 42 c 0
 522 -11 498 -16 456 -16 c 0
 399 -16 362 39 362 125 c 2
 362 192 l 2
 362 265 309 320 230 320 c 0
 155 320 94 257 94 181 c 2
 94 -0 l 2
 94 -9 87 -16 78 -16 c 0
 69 -16 62 -9 62 -0 c 2
 62 181 l 1
 61 211 l 1
 13 144 l 2
 9 139 5 137 1 137 c 0
 -8 137 -16 145 -16 154 c 0
 -16 157 -15 161 -13 164 c 2
94 318 m 1
 164 424 216 520 216 569 c 0
 216 616 195 634 161 634 c 0
 121 634 94 615 94 533 c 2
 94 318 l 1
EndSplineSet
Validated: 1
Layer: 2
SplineSet
0 154 m 1
 96 284 233 484 233 569 c 3
 233 609 217 650 161 650 c 3
 97 650 78 604 78 533 c 3
 78 330 78 208 78 0 c 17
 78 83 78 110 78 181 c 27
 78 266 146 336 230 336 c 3
 319 336 378 273 378 192 c 27
 378 166 378 168 378 125 c 3
 378 61 402 0 456 0 c 3
 492 0 512 3 554 53 c 1037
EndSplineSet
EndChar

StartChar: i
Encoding: 105 105 19
Width: 294
VWidth: 0
Flags: HW
HStem: -16 33<196.863 291.8> 160 33<-16.4946 54.8629> 332 20G<144.085 153.193> 489 63<120.007 174.993>
VStem: 118 59<490.826 550.244> 132 33<52.972 231.941 268.955 352.432>
LayerCount: 4
Back
Fore
SplineSet
-13 189 m 0
 -13 190 96 335 105 346 c 1
 112 350 118 352 122 352 c 0
 132 352 134 342 134 336 c 2
 134 133 l 2
 134 82 147 16 196 16 c 0
 265 16 275 70 294 70 c 0
 297 70 300 69 304 66 c 0
 308 62 311 58 311 53 c 0
 311 50 309 46 307 43 c 0
 271 -2 243 -16 196 -16 c 0
 120 -16 102 67 102 133 c 2
 102 287 l 1
 13 169 l 2
 9 164 5 162 1 162 c 0
 -8 162 -17 170 -17 179 c 0
 -17 182 -15 186 -13 189 c 0
91 521 m 0
 91 536 102 551 119 551 c 0
 135 551 150 536 150 518 c 0
 150 507 139 488 122 488 c 0
 106 488 91 503 91 521 c 0
EndSplineSet
Validated: 1
Layer: 2
SplineSet
294 53 m 5
 262 13 239 0 196 0 c 3
 128 0 118 87 118 133 c 3
 118 207 118 336 118 336 c 1
 117 336 0 179 0 179 c 1025
EndSplineSet
EndChar

StartChar: iacute
Encoding: 237 237 20
Width: 294
VWidth: 0
Flags: HW
VStem: 199 33<48 296 488 648>
LayerCount: 4
Fore
SplineSet
-13 189 m 0
 -13 190 96 335 105 346 c 1
 112 350 118 352 122 352 c 0
 132 352 134 342 134 336 c 2
 134 133 l 2
 134 82 147 16 196 16 c 0
 265 16 275 70 294 70 c 0
 297 70 300 69 304 66 c 0
 308 62 311 58 311 53 c 0
 311 50 309 46 307 43 c 0
 271 -2 243 -16 196 -16 c 0
 120 -16 102 67 102 133 c 2
 102 287 l 1
 13 169 l 2
 9 164 5 162 1 162 c 0
 -8 162 -17 170 -17 179 c 0
 -17 182 -15 186 -13 189 c 0
103 504 m 1
 103 666 l 1
 135 666 l 1
 135 504 l 1
 103 504 l 1
EndSplineSet
Validated: 1
EndChar

StartChar: j
Encoding: 106 106 21
Width: 331
VWidth: 0
Flags: HW
HStem: -327 33<125 202> 495 64<208 267>
VStem: 76 33<-277 -153> 208 59<495 558> 224 33<-270 -33 -2 -2 44 299>
LayerCount: 4
Back
Fore
SplineSet
348 160 m 0
 348 145 267 75 170 -49 c 1
 170 -232 l 2
 170 -312 131 -324 105 -324 c 0
 80 -324 42 -312 42 -233 c 0
 42 -179 85 -107 138 -37 c 1
 138 287 l 1
 48 167 l 2
 44 162 40 160 36 160 c 0
 27 160 18 168 18 177 c 0
 18 180 20 184 22 187 c 2
 141 347 l 2
 144 352 149 353 154 353 c 0
 162 353 170 347 170 337 c 2
 170 5 l 1
 225 73 286 135 319 171 c 0
 322 175 326 177 330 177 c 0
 339 177 348 169 348 160 c 0
138 -94 m 1
 101 -147 76 -196 76 -233 c 0
 76 -275 86 -290 105 -290 c 0
 130 -290 138 -268 138 -232 c 2
 138 -94 l 1
119 531 m 0
 119 546 130 562 147 562 c 0
 163 562 178 546 178 528 c 0
 178 517 167 498 150 498 c 0
 134 498 119 513 119 531 c 0
EndSplineSet
Layer: 2
SplineSet
35 177 m 5
 154 337 l 13
 154 -232 l 21
 154 -267 147 -307 105 -307 c 7
 74 -307 59 -282 59 -233 c 7
 59 -123.982 256 78 331 160 c 1029
EndSplineSet
Layer: 3
SplineSet
35 177 m 1
 154 337 l 9
 154 -232 l 17
 154 -267 147 -307 105 -307 c 3
 74 -307 59 -282 59 -233 c 3
 59 -143 170 -22 233 53 c 1025
EndSplineSet
EndChar

StartChar: k
Encoding: 107 107 22
Width: 468
VWidth: 0
Flags: HW
HStem: -16 33<928 995> 160 33<694 842> 320 33<751 863> 630 33<711 802>
VStem: 658 33<-8 164 335 610> 819 33<507 612> 894 33<219 290>
LayerCount: 4
Back
Fore
SplineSet
-17 164 m 0
 -17 167 -15 171 -13 174 c 2
 72 290 l 1
 72 553 l 2
 72 649 126 664 162 664 c 0
 195 664 246 650 246 553 c 0
 246 504 201 422 140 330 c 1
 159 344 182 352 210 352 c 0
 265 352 320 315 320 255 c 0
 320 215 296 192 265 178 c 1
 343 139 323 16 375 16 c 0
 398 16 408 17 456 65 c 0
 459 68 463 70 467 70 c 0
 476 70 485 61 485 52 c 0
 485 48 483 44 480 41 c 0
 424 -15 405 -16 375 -16 c 0
 294 -16 313 99 262 141 c 0
 242 158 206 163 141 163 c 2
 106 163 l 1
 106 -0 l 2
 106 -9 98 -16 89 -16 c 0
 80 -16 72 -9 72 -0 c 2
 72 170 l 1
 73 233 l 1
 13 154 l 2
 9 149 5 147 1 147 c 0
 -8 147 -17 155 -17 164 c 0
106 338 m 1
 163 423 212 509 212 553 c 0
 212 612 194 632 162 632 c 0
 126 632 106 611 106 553 c 2
 106 338 l 1
107 196 m 1
 163 196 l 2
 195 196 215 197 227 200 c 0
 267 210 288 225 288 255 c 0
 288 292 252 320 210 320 c 0
 150 320 114 261 107 196 c 1
EndSplineSet
Validated: 1
Layer: 2
SplineSet
468 53 m 21
 415 0 400 0 375 0 c 4
 309 0 328 108 272 154 c 4
 237 183 168 179 95 179 c 13
 148.04 180.95 203 177 231 184 c 4
 275 195 304 215.285 304 255 c 31
 304 303.393 258.393 336 210 336 c 31
 129.887 336 89 250.113 89 170 c 31
 89 103.7 89 105 89 0 c 13
 89 156 89 244 89 400 c 28
 89 459.67 89 493.33 89 553 c 31
 89 599.726 102 648 162 648 c 7
 216 648 229 603 229 553 c 7
 229 475 99 294 0 164 c 1029
EndSplineSet
EndChar

StartChar: l
Encoding: 108 108 23
Width: 328
VWidth: 0
Flags: HW
HStem: -16 33<218 324> 634 33<210 296>
VStem: 128 33<93 222 252 262 316 573> 309 33<508 620>
LayerCount: 4
Back
Fore
SplineSet
-17 143 m 0
 -17 146 -15 149 -13 152 c 2
 68 269 l 1
 68 550 l 2
 68 618 107 666 165 666 c 0
 219 666 256 639 256 569 c 0
 256 477 186 390 145 327 c 2
 100 259 l 1
 100 161 l 2
 100 68 124 16 218 16 c 0
 274 16 278 24 316 64 c 0
 319 68 323 70 327 70 c 0
 336 70 345 61 345 52 c 0
 345 48 343 45 340 42 c 0
 299 -1 287 -16 218 -16 c 0
 90 -16 68 70 68 161 c 2
 68 210 l 1
 13 133 l 2
 9 128 5 126 1 126 c 0
 -8 126 -17 134 -17 143 c 0
100 319 m 1
 117 345 l 2
 157 406 224 489 224 569 c 0
 224 621 201 634 165 634 c 0
 113 634 100 582 100 550 c 2
 100 319 l 1
EndSplineSet
Validated: 1
Layer: 2
SplineSet
0.0380859 142.587 m 1
 41.5654 199.424 83.1465 262.258 131 335.938 c 0
 175.745 404.832 240 484 240 569 c 3
 240 627.077 213 650 165 650 c 3
 108.964 650 84 600.188 84 550 c 27
 84 398.29 84 312.71 84 161 c 27
 84 79.3076 100 0 218 0 c 3
 278 0 286 9 328 53 c 1024
EndSplineSet
EndChar

StartChar: m
Encoding: 109 109 24
Width: 863
VWidth: 0
Flags: HW
HStem: -16 33<685.958 784.857> 160 33<-13.2012 64.4697> 319 33<222.544 337.412 473.514 578.996>
VStem: 135 33<-16.4946 222.644 298.62 352.432> 382 33<-16.4946 246.342> 628 33<42.7471 270.478>
LayerCount: 4
Back
Fore
SplineSet
-14 186 m 2
 70 336 l 1
 70 346 77 352 87 352 c 0
 97 352 104 346 104 336 c 2
 104 277 l 1
 131 320 174 352 232 352 c 0
 298 352 357 306 385 242 c 1
 409 307 463 352 532 352 c 0
 634 352 704 254 704 155 c 2
 704 131 l 2
 704 78 716 16 768 16 c 0
 831 16 844 70 864 70 c 0
 867 70 870 68 874 65 c 0
 878 62 879 57 879 53 c 0
 879 49 878 45 875 42 c 0
 835 -3 812 -16 768 -16 c 0
 690 -16 670 65 670 131 c 2
 670 155 l 2
 670 242 610 320 532 320 c 0
 454 320 404 245 404 156 c 2
 404 -0 l 2
 404 -9 396 -16 387 -16 c 0
 378 -16 370 -9 370 -0 c 2
 370 156 l 2
 370 242 306 320 232 320 c 0
 152 320 104 237 104 162 c 2
 104 -0 l 2
 104 -9 96 -16 87 -16 c 0
 78 -16 70 -9 70 -0 c 2
 70 272 l 1
 14 170 l 2
 11 164 6 161 1 161 c 0
 -7 161 -16 169 -16 178 c 0
 -16 181 -16 183 -14 186 c 2
EndSplineSet
Validated: 1
Layer: 2
SplineSet
863 53 m 21
 827 12 808 0 768 0 c 3
 706 0 687 66 687 131 c 3
 687 164 687 145.64 687 155 c 27
 687 247.937 622 336 532 336 c 3
 442 336 387 251 387 156 c 3
 387 95 387 0 387 0 c 1
 387 0 387 95.1602 387 156 c 27
 387 248.641 318 336 232 336 c 3
 140 336 87 243 87 162 c 0
 87 158 87 0 87 0 c 1
 87 336 l 1
 87 335.938 0 178 0 178 c 1025
EndSplineSet
EndChar

StartChar: n
Encoding: 110 110 25
Width: 563
VWidth: 0
Flags: HW
HStem: 320 33<844 971>
VStem: 742 33<-16 254 290 292> 1032 33<54 262>
LayerCount: 4
Back
Fore
SplineSet
-14 186 m 2
 73 344 l 2
 76 350 81 352 87 352 c 0
 95 352 104 346 104 336 c 2
 104 277 l 1
 131 321 175 352 233 352 c 0
 335 352 404 245 404 162 c 2
 404 132 l 2
 404 82 416 16 466 16 c 0
 534 16 544 70 563 70 c 0
 566 70 569 69 573 66 c 0
 577 62 580 58 580 53 c 0
 580 50 578 46 576 43 c 0
 540 -2 512 -16 466 -16 c 0
 390 -16 370 68 370 132 c 2
 370 162 l 2
 370 228 315 320 233 320 c 0
 152 320 104 238 104 161 c 2
 104 -0 l 2
 104 -9 96 -16 87 -16 c 0
 78 -16 70 -9 70 -0 c 2
 70 272 l 1
 14 170 l 2
 11 164 6 161 1 161 c 0
 -7 161 -16 169 -16 178 c 0
 -16 181 -15 183 -14 186 c 2
EndSplineSet
Validated: 1
Layer: 2
SplineSet
0 178 m 1
 87 336 l 1
 87 0 l 25
 87 63 87 98 87 161 c 3
 87 244 140 336 233 336 c 3
 324 336 387 238 387 162 c 3
 387 123 387 144 387 132 c 27
 387 72 404 0 466 0 c 3
 508 0 531 13 563 53 c 1037
EndSplineSet
EndChar

StartChar: p
Encoding: 112 112 26
Width: 563
VWidth: 0
Flags: HW
HStem: -339 14G<1043 1052> -16 33<1340 1428> 309 33<1130 1259>
VStem: 1031 33<-339 234 273 290> 1299 33<23 260>
LayerCount: 4
Back
Fore
SplineSet
-14 186 m 2
 73 344 l 2
 76 350 81 352 87 352 c 0
 95 352 104 346 104 336 c 2
 104 277 l 1
 131 321 175 352 233 352 c 0
 335 352 404 245 404 162 c 2
 404 132 l 2
 404 82 416 16 466 16 c 0
 534 16 544 70 563 70 c 0
 566 70 569 69 573 66 c 0
 577 62 580 58 580 53 c 0
 580 50 578 46 576 43 c 0
 540 -2 512 -16 466 -16 c 0
 390 -16 370 68 370 132 c 2
 370 162 l 2
 370 228 315 320 233 320 c 0
 152 320 104 238 104 161 c 2
 104 -311 l 2
 104 -320 96 -328 87 -328 c 0
 78 -328 70 -320 70 -311 c 2
 70 272 l 1
 14 170 l 2
 11 164 6 161 1 161 c 0
 -7 161 -16 169 -16 178 c 0
 -16 181 -15 183 -14 186 c 2
EndSplineSet
Validated: 1
Layer: 2
SplineSet
0 178 m 1
 87 336 l 1
 87 -311 l 25
 87 -127 87 98 87 161 c 3
 87 244 140 336 233 336 c 3
 324 336 387 238 387 162 c 3
 387 123 387 144 387 132 c 27
 387 72 404 0 466 0 c 3
 508 0 531 13 563 53 c 1037
EndSplineSet
Layer: 3
SplineSet
0 178 m 5
 87 336 l 5
 87 -311 l 29
 87 -127 87 98 87 161 c 7
 87 244 140 336 233 336 c 7
 324 336 387 238 387 162 c 7
 387 123 387 144 387 132 c 31
 387 72 404 0 466 0 c 7
 508 0 531 13 563 53 c 1037
EndSplineSet
EndChar

StartChar: q
Encoding: 113 113 27
Width: 538
VWidth: 0
Flags: HW
HStem: -16 33<590 718> 320 33<593 723>
VStem: 480 33<97 236> 798 35<-342 -64 -23 61 92 249 282 352>
LayerCount: 4
Back
Fore
SplineSet
304 57 m 1
 270 12 214 -16 154 -16 c 0
 55 -16 -16 71 -16 167 c 0
 -16 266 58 352 159 352 c 0
 218 352 271 329 304 289 c 1
 304 336 l 2
 304 345 312 352 321 352 c 0
 330 352 338 345 338 336 c 2
 338 -76 l 1
 383 58 464 114 527 172 c 0
 530 175 534 177 538 177 c 0
 547 177 555 168 555 159 c 0
 555 155 553 151 549 148 c 0
 458 65 338 -9 338 -314 c 0
 338 -324 331 -330 321 -330 c 0
 311 -330 304 -324 304 -314 c 2
 304 57 l 1
159 320 m 0
 79 320 16 249 16 167 c 0
 16 86 76 16 154 16 c 0
 235 16 304 77 304 156 c 2
 304 196 l 2
 304 272 235 320 159 320 c 0
EndSplineSet
Layer: 2
SplineSet
321 196 m 7
 321 283 242.504 336 159 336 c 31
 68.5049 336 0 257.495 0 167 c 31
 0 78.4043 65.4043 0 154 0 c 31
 243.126 0 321 66.874 321 156 c 31
 321 226.2 321 265.8 321 336 c 29
 321 -314 l 21
 321 0 448 78 538 160 c 1037
EndSplineSet
Layer: 3
SplineSet
321 196 m 7
 321 283 242.504 336 159 336 c 31
 68.5049 336 0 257.495 0 167 c 31
 0 78.4043 65.4043 0 154 0 c 31
 243.126 0 321 66.874 321 156 c 31
 321 226.2 321 265.8 321 336 c 29
 321 -314 l 21
 321 -59 390 -1 436 53 c 1037
EndSplineSet
EndChar

StartChar: r
Encoding: 114 114 28
Width: 540
VWidth: 0
Flags: HW
HStem: 187 33<42.734 142.734> 320 33<-192.266 -85.266>
VStem: -55 33<-11 258 324 352>
LayerCount: 4
Back
Fore
SplineSet
15 239 m 0
 79 319 104 352 181 352 c 0
 223 352 263 333 290 302 c 1
 290 336 l 2
 290 346 297 352 307 352 c 0
 317 352 324 346 324 336 c 0
 324 280 369 252 415 252 c 0
 456 252 495 273 508 313 c 0
 511 321 517 324 523 324 c 0
 532 324 541 318 541 308 c 0
 541 306 541 305 540 303 c 0
 521 246 466 219 415 219 c 0
 381 219 348 231 324 254 c 1
 324 -0 l 2
 324 -9 316 -16 307 -16 c 0
 298 -16 290 -9 290 -0 c 2
 290 215 l 2
 290 273 239 320 181 320 c 0
 118 320 102 293 41 219 c 0
 37 215 33 213 29 213 c 0
 20 213 11 220 11 229 c 0
 11 232 12 236 15 239 c 0
EndSplineSet
Validated: 1
Layer: 2
SplineSet
28 229 m 21
 90 306 111 336 181 336 c 7
 246 336 307 283 307 215 c 7
 307 113 307 83.8496 307 0 c 29
 307 336 l 21
 307 214 488.5 201.5 524 308 c 1029
EndSplineSet
EndChar

StartChar: s
Encoding: 115 115 29
Width: 267
VWidth: 0
Flags: HW
HStem: -16 33<865 991>
VStem: 1062 33<101 196>
LayerCount: 4
Back
Fore
SplineSet
-0 227 m 2
 110 347 l 2
 114 351 118 352 123 352 c 0
 128 352 133 350 136 345 c 0
 191 258 290 248 290 143 c 0
 290 58 224 -16 137 -16 c 0
 84 -16 50 -1 9 44 c 0
 6 48 4 51 4 55 c 0
 4 64 13 71 22 71 c 0
 26 71 30 70 33 66 c 0
 67 30 90 16 137 16 c 0
 204 16 256 74 256 143 c 0
 256 223 178 233 120 310 c 1
 24 205 l 2
 21 201 17 200 13 200 c 0
 4 200 -5 207 -5 216 c 0
 -5 220 -3 223 -0 227 c 2
EndSplineSet
Layer: 2
SplineSet
12 216 m 5
 122 336 l 5
 179 246 273 238.57 273 143 c 31
 273 66.0352 213.965 0 137 0 c 31
 86.9326 0 60 14 21 55 c 1029
EndSplineSet
EndChar

StartChar: t
Encoding: 116 116 30
Width: 335
VWidth: 0
Flags: HW
HStem: -16 33<494.999 600.999> 357 33<324.999 419.999 451.999 546.999> 654 13G<430.999 439.999>
VStem: 420 33<63 186 225 357 389 667>
LayerCount: 4
Back
Fore
SplineSet
-14 373 m 0
 -14 382 -6 390 3 390 c 2
 82 390 l 1
 82 650 l 2
 82 659 89 666 98 666 c 0
 107 666 114 659 114 650 c 2
 114 390 l 1
 193 390 l 2
 202 390 210 382 210 373 c 0
 210 364 202 356 193 356 c 2
 114 356 l 1
 114 132 l 2
 114 85 134 16 213 16 c 0
 308 16 316 71 335 71 c 0
 338 71 342 69 346 66 c 0
 350 63 352 58 352 53 c 0
 352 49 351 45 348 42 c 0
 312 -1 274 -17 213 -17 c 0
 122 -17 82 56 82 132 c 2
 82 356 l 1
 3 356 l 2
 -6 356 -14 364 -14 373 c 0
EndSplineSet
Validated: 1
Layer: 2
SplineSet
3 373 m 25
 193 373 l 1049
98 650 m 25
 98 447.98 98 334.02 98 132 c 27
 98 63.6348 132.667 0 213.332 -0.0107422 c 1
 268.333 0 302 13 335 53 c 1029
EndSplineSet
EndChar

StartChar: u
Encoding: 117 117 31
Width: 564
VWidth: 0
Flags: HW
HStem: -16 33<767.001 896.001 1034 1113>
VStem: 686 33<64 291> 975 33<82 346>
LayerCount: 4
Back
Fore
SplineSet
-14 186 m 2
 73 344 l 2
 76 350 82 352 88 352 c 0
 96 352 104 347 104 336 c 2
 104 177 l 2
 104 94 161 16 226 16 c 0
 316 16 372 96 372 184 c 2
 372 336 l 2
 372 345 379 352 388 352 c 0
 397 352 404 345 404 336 c 2
 404 133 l 2
 404 83 417 16 466 16 c 0
 537 16 545 70 564 70 c 0
 567 70 570 69 574 66 c 0
 578 62 581 58 581 53 c 0
 581 50 579 46 577 43 c 0
 542 0 516 -16 466 -16 c 0
 412 -16 387 27 377 75 c 1
 348 22 296 -16 226 -16 c 0
 139 -16 72 78 72 177 c 2
 72 274 l 1
 14 170 l 2
 11 164 5 161 0 161 c 0
 -8 161 -16 169 -16 178 c 0
 -16 181 -16 183 -14 186 c 2
EndSplineSet
Validated: 1
Layer: 2
SplineSet
564 53 m 17
 532 13 510 0 466 0 c 3
 405 0 388 72.8682 388 133 c 27
 388 212.17 388 203 388 336 c 1
 388 211 388 243.28 388 184 c 27
 388 88.3906 327 0 226 0 c 3
 147 0 88 89.4688 88 177 c 27
 88 239.01 88 248 88 336 c 5
 0 178 l 1029
EndSplineSet
EndChar

StartChar: v
Encoding: 118 118 32
Width: 622
VWidth: 0
Flags: HW
HStem: -16 33<-119.266 12.734> 176 33<158.734 244.734>
VStem: -208 33<69 300> 81 33<76 225 261 342>
LayerCount: 4
Back
Fore
SplineSet
-14 186 m 2
 75 344 l 2
 78 350 83 352 89 352 c 0
 97 352 106 346 106 336 c 2
 106 177 l 2
 106 94 162 16 227 16 c 0
 316 16 372 95 372 183 c 2
 372 336 l 2
 372 346 379 352 389 352 c 0
 399 352 406 346 406 336 c 0
 406 278 449 253 495 253 c 0
 537 253 577 275 590 313 c 0
 593 321 599 325 605 325 c 0
 614 325 623 318 623 308 c 0
 623 306 623 305 622 303 c 0
 604 247 547 220 495 220 c 0
 461 220 429 231 406 253 c 1
 406 183 l 2
 406 80 338 -16 227 -16 c 0
 140 -16 72 78 72 177 c 2
 72 273 l 1
 14 170 l 2
 11 164 6 162 1 162 c 0
 -8 162 -16 169 -16 178 c 0
 -16 181 -16 183 -14 186 c 2
EndSplineSet
Layer: 2
SplineSet
606 308 m 4
 572.5 207 389 209.5 389 336 c 13
 389 276.33 389 242.67 389 183 c 27
 389 87.6826 327 0 227 0 c 3
 148 0 89 89.4688 89 177 c 27
 89 239.01 89 273.99 89 336 c 17
 0 178 l 1025
EndSplineSet
EndChar

StartChar: w
Encoding: 119 119 33
Width: 925
VWidth: 0
Flags: HW
HStem: -16 33<120.734 249.734 421.734 551.734> 167 33<710.734 801.734> 339 13G<330.734 335.734>
VStem: 20 33<82 301> 315 33<89 352> 627 33<92 229 273 350>
LayerCount: 4
Back
Fore
SplineSet
-14 186 m 2
 78 344 l 2
 81 350 87 352 92 352 c 0
 100 352 108 346 108 336 c 2
 108 177 l 2
 108 101 158 16 230 16 c 0
 321 16 376 100 376 178 c 2
 376 336 l 2
 376 345 383 352 392 352 c 0
 401 352 408 345 408 336 c 2
 408 178 l 2
 408 96 461 16 530 16 c 0
 619 16 676 95 676 183 c 2
 676 336 l 2
 676 347 684 352 692 352 c 0
 700 352 708 347 708 336 c 2
 708 335 l 2
 708 278 752 253 798 253 c 0
 841 253 882 275 893 313 c 0
 896 321 902 325 908 325 c 0
 917 325 926 318 926 308 c 0
 926 306 926 305 925 303 c 0
 908 247 851 220 798 220 c 0
 764 220 731 231 708 253 c 1
 708 183 l 2
 708 80 641 -16 530 -16 c 0
 465 -16 415 33 391 95 c 1
 365 34 309 -16 230 -16 c 0
 143 -16 76 78 76 177 c 2
 76 275 l 1
 14 170 l 2
 11 164 5 162 0 162 c 0
 -9 162 -17 169 -17 178 c 0
 -17 181 -16 183 -14 186 c 2
EndSplineSet
Validated: 1
Layer: 2
SplineSet
909 308 m 5
 879 208.062 691 208 692 336 c 1
 692 239 692 242.67 692 183 c 27
 692 87.6826 630 0 530 0 c 3
 449 0 392 90.1611 392 178 c 27
 392 239.62 392 274.38 392 336 c 25
 392 274.38 392 240 392 178 c 3
 392 93 332 0 230 0 c 3
 150 0 92 89.4688 92 177 c 27
 92 239.01 92 258 92 336 c 1
 0 178 l 1025
EndSplineSet
EndChar

StartChar: x
Encoding: 120 120 34
Width: 564
VWidth: 0
Flags: HW
HStem: -16 33<563 653>
LayerCount: 4
Back
Fore
SplineSet
-17 53 m 0
 -17 62 -8 70 1 70 c 0
 18 70 29 16 118 16 c 0
 167 16 217 64 262 125 c 1
 214 194 142 327 142 336 c 0
 142 345 151 353 160 353 c 0
 165 353 171 350 174 344 c 0
 196 302 235 223 282 154 c 1
 329 223 368 302 390 344 c 0
 393 350 399 353 404 353 c 0
 413 353 422 345 422 336 c 0
 422 326 350 193 302 125 c 1
 347 64 397 16 446 16 c 0
 536 16 545 70 564 70 c 0
 571 70 580 63 580 53 c 0
 580 49 579 46 577 43 c 0
 535 -9 488 -16 446 -16 c 0
 387 -16 332 31 282 97 c 1
 232 31 177 -16 118 -16 c 0
 76 -16 29 -9 -13 43 c 0
 -16 46 -17 50 -17 53 c 0
EndSplineSet
Validated: 1
Layer: 2
SplineSet
405 336 m 4
 337 207 231 0 118 0 c 7
 81 0 38 6 0 53 c 1028
159 336 m 4
 227 207 333 0 446 0 c 7
 483 0 526 6 564 53 c 1028
EndSplineSet
EndChar

StartChar: y
Encoding: 121 121 35
Width: 569
VWidth: 0
Flags: HW
HStem: -331 33<432 511> -16 33<338 456>
VStem: 226 33<105 291> 380 33<-277 -172> 548 34<-259 -5 27 33 107 349>
LayerCount: 4
Back
Fore
SplineSet
410 -47 m 1
 410 -224 l 2
 410 -261 407 -324 346 -324 c 0
 308 -324 282 -297 282 -237 c 0
 282 -177 325 -104 378 -35 c 1
 378 65 l 1
 347 16 296 -16 233 -16 c 0
 140 -16 78 84 78 178 c 2
 78 277 l 1
 14 170 l 2
 11 164 6 161 1 161 c 0
 -8 161 -17 169 -17 178 c 0
 -17 181 -16 183 -14 186 c 2
 80 345 l 2
 83 350 89 353 94 353 c 0
 102 353 110 347 110 337 c 2
 110 178 l 2
 110 95 164 16 233 16 c 0
 321 16 378 95 378 183 c 2
 378 337 l 2
 378 346 385 354 394 354 c 0
 403 354 410 346 410 337 c 2
 410 6 l 1
 464 72 523 132 556 171 c 0
 560 175 564 177 568 177 c 0
 577 177 586 169 586 160 c 0
 586 157 585 152 582 149 c 0
 547 108 471 32 410 -47 c 1
316 -237 m 0
 316 -287 333 -292 346 -292 c 0
 372 -292 378 -267 378 -224 c 2
 378 -92 l 1
 342 -145 316 -196 316 -237 c 0
EndSplineSet
Layer: 2
SplineSet
569 160 m 21
 501 80 299 -113.963 299 -237 c 7
 299 -288 318 -308 346 -308 c 7
 390 -308 394 -261.731 394 -224 c 31
 394 -5.20996 394 118.21 394 337 c 29
 394 276.94 394 243.06 394 183 c 31
 394 87.9404 332 0 233 0 c 7
 152 0 94 89.9209 94 178 c 31
 94 240.01 94 274.99 94 337 c 21
 0 178 l 1029
EndSplineSet
Layer: 3
SplineSet
473 53 m 21
 404 -29 299 -143 299 -237 c 7
 299 -288 318 -308 346 -308 c 7
 390 -308 394 -261.731 394 -224 c 31
 394 -5.20996 394 118.21 394 337 c 29
 394 276.94 394 243.06 394 183 c 31
 394 87.9404 332 0 233 0 c 7
 152 0 94 89.9209 94 178 c 31
 94 240.01 94 274.99 94 337 c 21
 0 178 l 1029
EndSplineSet
EndChar

StartChar: z
Encoding: 122 122 36
Width: 357
VWidth: 0
Flags: HW
HStem: -16 33<866 971> 38 33<755 812> 270 33<833 886> 320 33<680 792>
LayerCount: 4
Back
Fore
SplineSet
-17 0 m 0
 -17 4 -15 7 -12 11 c 2
 214 270 l 1
 213 270 l 2
 164 270 134 320 86 320 c 0
 31 320 31 271 9 271 c 0
 0 271 -9 279 -9 288 c 0
 -9 291 -8 296 -5 299 c 0
 22 331 38 352 86 352 c 0
 146 352 177 303 213 303 c 0
 251 303 280 353 294 353 c 0
 303 353 311 345 311 336 c 0
 311 332 309 329 306 325 c 2
 83 70 l 1
 90 70 l 2
 146 70 190 16 263 16 c 2
 267 16 l 2
 296 16 306 16 344 63 c 0
 348 67 352 70 356 70 c 0
 365 70 374 62 374 53 c 0
 374 50 373 46 370 43 c 0
 324 -14 303 -17 267 -17 c 2
 263 -17 l 2
 181 -17 135 37 90 37 c 0
 45 37 14 -17 0 -17 c 0
 -9 -17 -17 -9 -17 0 c 0
EndSplineSet
Validated: 1
Layer: 2
SplineSet
8 288 m 5
 32 317 44 336 86 336 c 15
 167.12 336 192 225 294 336 c 13
 0 0 l 21
 108 121 145 0 263 0 c 7
 297 0 313 -1 357 53 c 1028
EndSplineSet
EndChar

StartChar: space
Encoding: 32 32 37
Width: 651
VWidth: 0
Flags: W
HStem: -10 20<0 1107> 326 10<0 1107> 656 10<0 1107>
LayerCount: 4
Fore
SplineSet
0 667 m 1
 1107 667 l 1
 1107 656 l 1
 0 656 l 1
 0 667 l 1
EndSplineSet
EndChar

StartChar: uni001E
Encoding: 30 30 43
Width: 651
Flags: HW
HStem: -10 20<0 1107 0 1107> 326 10 656 10
LayerCount: 4
Fore
SplineSet
0 337 m 1
 651 337 l 1
 651 326 l 1
 0 326 l 1
 0 337 l 1
0 10 m 1
 651 10 l 1
 651 -10 l 1
 0 -10 l 1
 0 10 l 1
0 667 m 1
 651 667 l 1
 651 656 l 1
 0 656 l 1
 0 667 l 1
EndSplineSet
EndChar

StartChar: uni001F
Encoding: 31 31 44
Width: 651
Flags: W
HStem: -10 20<0 1107 0 1107> 326 10 656 10
LayerCount: 4
Fore
SplineSet
0 337 m 1
 1107 337 l 1
 1107 326 l 1
 0 326 l 1
 0 337 l 1
0 10 m 1
 1107 10 l 1
 1107 -10 l 1
 0 -10 l 1
 0 10 l 1
0 667 m 1
 1107 667 l 1
 1107 656 l 1
 0 656 l 1
 0 667 l 1
EndSplineSet
EndChar

StartChar: lonelyX
Encoding: 35 35 45
Width: 1000
VWidth: 0
Flags: H
LayerCount: 4
Back
SplineSet
389.974 335.938 m 4
 322.266 207.031 228.516 0 115.234 0 c 7
 64.4531 0 46.875 3.90625 0 80.0781 c 1028
154.948 335.938 m 4
 222.656 207.031 316.406 0 429.688 0 c 7
 480.469 0 539.062 68.3594 605.469 132.812 c 1028
EndSplineSet
EndChar

StartChar: dollar
Encoding: 36 36 46
Width: 1000
VWidth: 0
Flags: HM
LayerCount: 4
Back
SplineSet
175.781 58.5938 m 5
 175.781 39.0625 l 5
 156.25 39.0625 l 5
 156.25 58.5938 l 5
 175.781 58.5938 l 5
175.781 97.6562 m 5
 175.781 78.125 l 5
 156.25 78.125 l 5
 156.25 97.6562 l 5
 175.781 97.6562 l 5
175.781 136.719 m 5
 175.781 117.188 l 5
 156.25 117.188 l 5
 156.25 136.719 l 5
 175.781 136.719 l 5
175.781 175.781 m 5
 175.781 156.25 l 5
 156.25 156.25 l 5
 156.25 175.781 l 5
 175.781 175.781 l 5
175.781 214.844 m 5
 175.781 195.312 l 5
 156.25 195.312 l 5
 156.25 214.844 l 5
 175.781 214.844 l 5
175.781 253.906 m 5
 175.781 234.375 l 5
 156.25 234.375 l 5
 156.25 253.906 l 5
 175.781 253.906 l 5
175.781 292.969 m 5
 175.781 273.438 l 5
 156.25 273.438 l 5
 156.25 292.969 l 5
 175.781 292.969 l 5
214.844 39.0625 m 5
 195.312 39.0625 l 5
 195.312 58.5938 l 5
 214.844 58.5938 l 5
 214.844 39.0625 l 5
214.844 78.125 m 5
 195.312 78.125 l 5
 195.312 97.6562 l 5
 214.844 97.6562 l 5
 214.844 78.125 l 5
214.844 117.188 m 5
 195.312 117.188 l 5
 195.312 136.719 l 5
 214.844 136.719 l 5
 214.844 117.188 l 5
214.844 156.25 m 5
 195.312 156.25 l 5
 195.312 175.781 l 5
 214.844 175.781 l 5
 214.844 156.25 l 5
214.844 195.312 m 5
 195.312 195.312 l 5
 195.312 214.844 l 5
 214.844 214.844 l 5
 214.844 195.312 l 5
214.844 234.375 m 5
 195.312 234.375 l 5
 195.312 253.906 l 5
 214.844 253.906 l 5
 214.844 234.375 l 5
214.844 273.438 m 5
 195.312 273.438 l 5
 195.312 292.969 l 5
 214.844 292.969 l 5
 214.844 273.438 l 5
253.906 39.0625 m 5
 234.375 39.0625 l 5
 234.375 58.5938 l 5
 253.906 58.5938 l 5
 253.906 39.0625 l 5
253.906 78.125 m 5
 234.375 78.125 l 5
 234.375 97.6562 l 5
 253.906 97.6562 l 5
 253.906 78.125 l 5
253.906 117.188 m 5
 234.375 117.188 l 5
 234.375 136.719 l 5
 253.906 136.719 l 5
 253.906 117.188 l 5
253.906 156.25 m 5
 234.375 156.25 l 5
 234.375 175.781 l 5
 253.906 175.781 l 5
 253.906 156.25 l 5
253.906 195.312 m 5
 234.375 195.312 l 5
 234.375 214.844 l 5
 253.906 214.844 l 5
 253.906 195.312 l 5
253.906 234.375 m 5
 234.375 234.375 l 5
 234.375 253.906 l 5
 253.906 253.906 l 5
 253.906 234.375 l 5
253.906 273.438 m 5
 234.375 273.438 l 5
 234.375 292.969 l 5
 253.906 292.969 l 5
 253.906 273.438 l 5
292.969 39.0625 m 5
 273.438 39.0625 l 5
 273.438 58.5938 l 5
 292.969 58.5938 l 5
 292.969 39.0625 l 5
292.969 78.125 m 5
 273.438 78.125 l 5
 273.438 97.6562 l 5
 292.969 97.6562 l 5
 292.969 78.125 l 5
292.969 117.188 m 5
 273.438 117.188 l 5
 273.438 136.719 l 5
 292.969 136.719 l 5
 292.969 117.188 l 5
292.969 156.25 m 5
 273.438 156.25 l 5
 273.438 175.781 l 5
 292.969 175.781 l 5
 292.969 156.25 l 5
292.969 195.312 m 5
 273.438 195.312 l 5
 273.438 214.844 l 5
 292.969 214.844 l 5
 292.969 195.312 l 5
292.969 234.375 m 5
 273.438 234.375 l 5
 273.438 253.906 l 5
 292.969 253.906 l 5
 292.969 234.375 l 5
292.969 273.438 m 5
 273.438 273.438 l 5
 273.438 292.969 l 5
 292.969 292.969 l 5
 292.969 273.438 l 5
19.5312 39.0625 m 5
 0 39.0625 l 5
 0 58.5938 l 5
 19.5312 58.5938 l 5
 19.5312 39.0625 l 5
19.5312 78.125 m 5
 0 78.125 l 5
 0 97.6562 l 5
 19.5312 97.6562 l 5
 19.5312 78.125 l 5
19.5312 117.188 m 5
 0 117.188 l 5
 0 136.719 l 5
 19.5312 136.719 l 5
 19.5312 117.188 l 5
19.5312 156.25 m 5
 0 156.25 l 5
 0 175.781 l 5
 19.5312 175.781 l 5
 19.5312 156.25 l 5
19.5312 195.312 m 5
 0 195.312 l 5
 0 214.844 l 5
 19.5312 214.844 l 5
 19.5312 195.312 l 5
19.5312 234.375 m 5
 0 234.375 l 5
 0 253.906 l 5
 19.5312 253.906 l 5
 19.5312 234.375 l 5
19.5312 273.438 m 5
 0 273.438 l 5
 0 292.969 l 5
 19.5312 292.969 l 5
 19.5312 273.438 l 5
58.5938 39.0625 m 5
 39.0625 39.0625 l 5
 39.0625 58.5938 l 5
 58.5938 58.5938 l 5
 58.5938 39.0625 l 5
58.5938 78.125 m 5
 39.0625 78.125 l 5
 39.0625 97.6562 l 5
 58.5938 97.6562 l 5
 58.5938 78.125 l 5
58.5938 117.188 m 5
 39.0625 117.188 l 5
 39.0625 136.719 l 5
 58.5938 136.719 l 5
 58.5938 117.188 l 5
58.5938 156.25 m 5
 39.0625 156.25 l 5
 39.0625 175.781 l 5
 58.5938 175.781 l 5
 58.5938 156.25 l 5
58.5938 195.312 m 5
 39.0625 195.312 l 5
 39.0625 214.844 l 5
 58.5938 214.844 l 5
 58.5938 195.312 l 5
58.5938 234.375 m 5
 39.0625 234.375 l 5
 39.0625 253.906 l 5
 58.5938 253.906 l 5
 58.5938 234.375 l 5
58.5938 273.438 m 5
 39.0625 273.438 l 5
 39.0625 292.969 l 5
 58.5938 292.969 l 5
 58.5938 273.438 l 5
97.6562 39.0625 m 5
 78.125 39.0625 l 5
 78.125 58.5938 l 5
 97.6562 58.5938 l 5
 97.6562 39.0625 l 5
97.6562 78.125 m 5
 78.125 78.125 l 5
 78.125 97.6562 l 5
 97.6562 97.6562 l 5
 97.6562 78.125 l 5
97.6562 117.188 m 5
 78.125 117.188 l 5
 78.125 136.719 l 5
 97.6562 136.719 l 5
 97.6562 117.188 l 5
97.6562 156.25 m 5
 78.125 156.25 l 5
 78.125 175.781 l 5
 97.6562 175.781 l 5
 97.6562 156.25 l 5
97.6562 195.312 m 5
 78.125 195.312 l 5
 78.125 214.844 l 5
 97.6562 214.844 l 5
 97.6562 195.312 l 5
97.6562 234.375 m 5
 78.125 234.375 l 5
 78.125 253.906 l 5
 97.6562 253.906 l 5
 97.6562 234.375 l 5
97.6562 273.438 m 5
 78.125 273.438 l 5
 78.125 292.969 l 5
 97.6562 292.969 l 5
 97.6562 273.438 l 5
136.719 39.0625 m 5
 117.188 39.0625 l 5
 117.188 58.5938 l 5
 136.719 58.5938 l 5
 136.719 39.0625 l 5
136.719 78.125 m 5
 117.188 78.125 l 5
 117.188 97.6562 l 5
 136.719 97.6562 l 5
 136.719 78.125 l 5
136.719 117.188 m 5
 117.188 117.188 l 5
 117.188 136.719 l 5
 136.719 136.719 l 5
 136.719 117.188 l 5
136.719 156.25 m 5
 117.188 156.25 l 5
 117.188 175.781 l 5
 136.719 175.781 l 5
 136.719 156.25 l 5
136.719 195.312 m 5
 117.188 195.312 l 5
 117.188 214.844 l 5
 136.719 214.844 l 5
 136.719 195.312 l 5
136.719 234.375 m 5
 117.188 234.375 l 5
 117.188 253.906 l 5
 136.719 253.906 l 5
 136.719 234.375 l 5
136.719 273.438 m 5
 117.188 273.438 l 5
 117.188 292.969 l 5
 136.719 292.969 l 5
 136.719 273.438 l 5
175.781 371.094 m 5
 175.781 351.562 l 5
 156.25 351.562 l 5
 156.25 371.094 l 5
 175.781 371.094 l 5
175.781 410.156 m 5
 175.781 390.625 l 5
 156.25 390.625 l 5
 156.25 410.156 l 5
 175.781 410.156 l 5
175.781 449.219 m 5
 175.781 429.688 l 5
 156.25 429.688 l 5
 156.25 449.219 l 5
 175.781 449.219 l 5
175.781 488.281 m 5
 175.781 468.75 l 5
 156.25 468.75 l 5
 156.25 488.281 l 5
 175.781 488.281 l 5
175.781 527.344 m 5
 175.781 507.812 l 5
 156.25 507.812 l 5
 156.25 527.344 l 5
 175.781 527.344 l 5
175.781 566.406 m 5
 175.781 546.875 l 5
 156.25 546.875 l 5
 156.25 566.406 l 5
 175.781 566.406 l 5
175.781 605.469 m 5
 175.781 585.938 l 5
 156.25 585.938 l 5
 156.25 605.469 l 5
 175.781 605.469 l 5
214.844 351.562 m 5
 195.312 351.562 l 5
 195.312 371.094 l 5
 214.844 371.094 l 5
 214.844 351.562 l 5
214.844 390.625 m 5
 195.312 390.625 l 5
 195.312 410.156 l 5
 214.844 410.156 l 5
 214.844 390.625 l 5
214.844 429.688 m 5
 195.312 429.688 l 5
 195.312 449.219 l 5
 214.844 449.219 l 5
 214.844 429.688 l 5
214.844 468.75 m 5
 195.312 468.75 l 5
 195.312 488.281 l 5
 214.844 488.281 l 5
 214.844 468.75 l 5
214.844 507.812 m 5
 195.312 507.812 l 5
 195.312 527.344 l 5
 214.844 527.344 l 5
 214.844 507.812 l 5
214.844 546.875 m 5
 195.312 546.875 l 5
 195.312 566.406 l 5
 214.844 566.406 l 5
 214.844 546.875 l 5
214.844 585.938 m 5
 195.312 585.938 l 5
 195.312 605.469 l 5
 214.844 605.469 l 5
 214.844 585.938 l 5
253.906 351.562 m 5
 234.375 351.562 l 5
 234.375 371.094 l 5
 253.906 371.094 l 5
 253.906 351.562 l 5
253.906 390.625 m 5
 234.375 390.625 l 5
 234.375 410.156 l 5
 253.906 410.156 l 5
 253.906 390.625 l 5
253.906 429.688 m 5
 234.375 429.688 l 5
 234.375 449.219 l 5
 253.906 449.219 l 5
 253.906 429.688 l 5
253.906 468.75 m 5
 234.375 468.75 l 5
 234.375 488.281 l 5
 253.906 488.281 l 5
 253.906 468.75 l 5
253.906 507.812 m 5
 234.375 507.812 l 5
 234.375 527.344 l 5
 253.906 527.344 l 5
 253.906 507.812 l 5
253.906 546.875 m 5
 234.375 546.875 l 5
 234.375 566.406 l 5
 253.906 566.406 l 5
 253.906 546.875 l 5
253.906 585.938 m 5
 234.375 585.938 l 5
 234.375 605.469 l 5
 253.906 605.469 l 5
 253.906 585.938 l 5
292.969 351.562 m 5
 273.438 351.562 l 5
 273.438 371.094 l 5
 292.969 371.094 l 5
 292.969 351.562 l 5
292.969 390.625 m 5
 273.438 390.625 l 5
 273.438 410.156 l 5
 292.969 410.156 l 5
 292.969 390.625 l 5
292.969 429.688 m 5
 273.438 429.688 l 5
 273.438 449.219 l 5
 292.969 449.219 l 5
 292.969 429.688 l 5
292.969 468.75 m 5
 273.438 468.75 l 5
 273.438 488.281 l 5
 292.969 488.281 l 5
 292.969 468.75 l 5
292.969 507.812 m 5
 273.438 507.812 l 5
 273.438 527.344 l 5
 292.969 527.344 l 5
 292.969 507.812 l 5
292.969 546.875 m 5
 273.438 546.875 l 5
 273.438 566.406 l 5
 292.969 566.406 l 5
 292.969 546.875 l 5
292.969 585.938 m 5
 273.438 585.938 l 5
 273.438 605.469 l 5
 292.969 605.469 l 5
 292.969 585.938 l 5
19.5312 351.562 m 5
 0 351.562 l 5
 0 371.094 l 5
 19.5312 371.094 l 5
 19.5312 351.562 l 5
19.5312 390.625 m 5
 0 390.625 l 5
 0 410.156 l 5
 19.5312 410.156 l 5
 19.5312 390.625 l 5
19.5312 429.688 m 5
 0 429.688 l 5
 0 449.219 l 5
 19.5312 449.219 l 5
 19.5312 429.688 l 5
19.5312 468.75 m 5
 0 468.75 l 5
 0 488.281 l 5
 19.5312 488.281 l 5
 19.5312 468.75 l 5
19.5312 507.812 m 5
 0 507.812 l 5
 0 527.344 l 5
 19.5312 527.344 l 5
 19.5312 507.812 l 5
19.5312 546.875 m 5
 0 546.875 l 5
 0 566.406 l 5
 19.5312 566.406 l 5
 19.5312 546.875 l 5
19.5312 585.938 m 5
 0 585.938 l 5
 0 605.469 l 5
 19.5312 605.469 l 5
 19.5312 585.938 l 5
58.5938 351.562 m 5
 39.0625 351.562 l 5
 39.0625 371.094 l 5
 58.5938 371.094 l 5
 58.5938 351.562 l 5
58.5938 390.625 m 5
 39.0625 390.625 l 5
 39.0625 410.156 l 5
 58.5938 410.156 l 5
 58.5938 390.625 l 5
58.5938 429.688 m 5
 39.0625 429.688 l 5
 39.0625 449.219 l 5
 58.5938 449.219 l 5
 58.5938 429.688 l 5
58.5938 468.75 m 5
 39.0625 468.75 l 5
 39.0625 488.281 l 5
 58.5938 488.281 l 5
 58.5938 468.75 l 5
58.5938 507.812 m 5
 39.0625 507.812 l 5
 39.0625 527.344 l 5
 58.5938 527.344 l 5
 58.5938 507.812 l 5
58.5938 546.875 m 5
 39.0625 546.875 l 5
 39.0625 566.406 l 5
 58.5938 566.406 l 5
 58.5938 546.875 l 5
58.5938 585.938 m 5
 39.0625 585.938 l 5
 39.0625 605.469 l 5
 58.5938 605.469 l 5
 58.5938 585.938 l 5
97.6562 351.562 m 5
 78.125 351.562 l 5
 78.125 371.094 l 5
 97.6562 371.094 l 5
 97.6562 351.562 l 5
97.6562 390.625 m 5
 78.125 390.625 l 5
 78.125 410.156 l 5
 97.6562 410.156 l 5
 97.6562 390.625 l 5
97.6562 429.688 m 5
 78.125 429.688 l 5
 78.125 449.219 l 5
 97.6562 449.219 l 5
 97.6562 429.688 l 5
97.6562 468.75 m 5
 78.125 468.75 l 5
 78.125 488.281 l 5
 97.6562 488.281 l 5
 97.6562 468.75 l 5
97.6562 507.812 m 5
 78.125 507.812 l 5
 78.125 527.344 l 5
 97.6562 527.344 l 5
 97.6562 507.812 l 5
97.6562 546.875 m 5
 78.125 546.875 l 5
 78.125 566.406 l 5
 97.6562 566.406 l 5
 97.6562 546.875 l 5
97.6562 585.938 m 5
 78.125 585.938 l 5
 78.125 605.469 l 5
 97.6562 605.469 l 5
 97.6562 585.938 l 5
136.719 351.562 m 5
 117.188 351.562 l 5
 117.188 371.094 l 5
 136.719 371.094 l 5
 136.719 351.562 l 5
136.719 390.625 m 5
 117.188 390.625 l 5
 117.188 410.156 l 5
 136.719 410.156 l 5
 136.719 390.625 l 5
136.719 429.688 m 5
 117.188 429.688 l 5
 117.188 449.219 l 5
 136.719 449.219 l 5
 136.719 429.688 l 5
136.719 468.75 m 5
 117.188 468.75 l 5
 117.188 488.281 l 5
 136.719 488.281 l 5
 136.719 468.75 l 5
136.719 507.812 m 5
 117.188 507.812 l 5
 117.188 527.344 l 5
 136.719 527.344 l 5
 136.719 507.812 l 5
136.719 546.875 m 5
 117.188 546.875 l 5
 117.188 566.406 l 5
 136.719 566.406 l 5
 136.719 546.875 l 5
136.719 585.938 m 5
 117.188 585.938 l 5
 117.188 605.469 l 5
 136.719 605.469 l 5
 136.719 585.938 l 5
488.281 58.5938 m 5
 488.281 39.0625 l 5
 468.75 39.0625 l 5
 468.75 58.5938 l 5
 488.281 58.5938 l 5
488.281 97.6562 m 5
 488.281 78.125 l 5
 468.75 78.125 l 5
 468.75 97.6562 l 5
 488.281 97.6562 l 5
488.281 136.719 m 5
 488.281 117.188 l 5
 468.75 117.188 l 5
 468.75 136.719 l 5
 488.281 136.719 l 5
488.281 175.781 m 5
 488.281 156.25 l 5
 468.75 156.25 l 5
 468.75 175.781 l 5
 488.281 175.781 l 5
488.281 214.844 m 5
 488.281 195.312 l 5
 468.75 195.312 l 5
 468.75 214.844 l 5
 488.281 214.844 l 5
488.281 253.906 m 5
 488.281 234.375 l 5
 468.75 234.375 l 5
 468.75 253.906 l 5
 488.281 253.906 l 5
488.281 292.969 m 5
 488.281 273.438 l 5
 468.75 273.438 l 5
 468.75 292.969 l 5
 488.281 292.969 l 5
527.344 39.0625 m 5
 507.812 39.0625 l 5
 507.812 58.5938 l 5
 527.344 58.5938 l 5
 527.344 39.0625 l 5
527.344 78.125 m 5
 507.812 78.125 l 5
 507.812 97.6562 l 5
 527.344 97.6562 l 5
 527.344 78.125 l 5
527.344 117.188 m 5
 507.812 117.188 l 5
 507.812 136.719 l 5
 527.344 136.719 l 5
 527.344 117.188 l 5
527.344 156.25 m 5
 507.812 156.25 l 5
 507.812 175.781 l 5
 527.344 175.781 l 5
 527.344 156.25 l 5
527.344 195.312 m 5
 507.812 195.312 l 5
 507.812 214.844 l 5
 527.344 214.844 l 5
 527.344 195.312 l 5
527.344 234.375 m 5
 507.812 234.375 l 5
 507.812 253.906 l 5
 527.344 253.906 l 5
 527.344 234.375 l 5
527.344 273.438 m 5
 507.812 273.438 l 5
 507.812 292.969 l 5
 527.344 292.969 l 5
 527.344 273.438 l 5
566.406 39.0625 m 5
 546.875 39.0625 l 5
 546.875 58.5938 l 5
 566.406 58.5938 l 5
 566.406 39.0625 l 5
566.406 78.125 m 5
 546.875 78.125 l 5
 546.875 97.6562 l 5
 566.406 97.6562 l 5
 566.406 78.125 l 5
566.406 117.188 m 5
 546.875 117.188 l 5
 546.875 136.719 l 5
 566.406 136.719 l 5
 566.406 117.188 l 5
566.406 156.25 m 5
 546.875 156.25 l 5
 546.875 175.781 l 5
 566.406 175.781 l 5
 566.406 156.25 l 5
566.406 195.312 m 5
 546.875 195.312 l 5
 546.875 214.844 l 5
 566.406 214.844 l 5
 566.406 195.312 l 5
566.406 234.375 m 5
 546.875 234.375 l 5
 546.875 253.906 l 5
 566.406 253.906 l 5
 566.406 234.375 l 5
566.406 273.438 m 5
 546.875 273.438 l 5
 546.875 292.969 l 5
 566.406 292.969 l 5
 566.406 273.438 l 5
605.469 39.0625 m 5
 585.938 39.0625 l 5
 585.938 58.5938 l 5
 605.469 58.5938 l 5
 605.469 39.0625 l 5
605.469 78.125 m 5
 585.938 78.125 l 5
 585.938 97.6562 l 5
 605.469 97.6562 l 5
 605.469 78.125 l 5
605.469 117.188 m 5
 585.938 117.188 l 5
 585.938 136.719 l 5
 605.469 136.719 l 5
 605.469 117.188 l 5
605.469 156.25 m 5
 585.938 156.25 l 5
 585.938 175.781 l 5
 605.469 175.781 l 5
 605.469 156.25 l 5
605.469 195.312 m 5
 585.938 195.312 l 5
 585.938 214.844 l 5
 605.469 214.844 l 5
 605.469 195.312 l 5
605.469 234.375 m 5
 585.938 234.375 l 5
 585.938 253.906 l 5
 605.469 253.906 l 5
 605.469 234.375 l 5
605.469 273.438 m 5
 585.938 273.438 l 5
 585.938 292.969 l 5
 605.469 292.969 l 5
 605.469 273.438 l 5
371.094 39.0625 m 5
 351.562 39.0625 l 5
 351.562 58.5938 l 5
 371.094 58.5938 l 5
 371.094 39.0625 l 5
371.094 78.125 m 5
 351.562 78.125 l 5
 351.562 97.6562 l 5
 371.094 97.6562 l 5
 371.094 78.125 l 5
371.094 117.188 m 5
 351.562 117.188 l 5
 351.562 136.719 l 5
 371.094 136.719 l 5
 371.094 117.188 l 5
371.094 156.25 m 5
 351.562 156.25 l 5
 351.562 175.781 l 5
 371.094 175.781 l 5
 371.094 156.25 l 5
371.094 195.312 m 5
 351.562 195.312 l 5
 351.562 214.844 l 5
 371.094 214.844 l 5
 371.094 195.312 l 5
371.094 234.375 m 5
 351.562 234.375 l 5
 351.562 253.906 l 5
 371.094 253.906 l 5
 371.094 234.375 l 5
371.094 273.438 m 5
 351.562 273.438 l 5
 351.562 292.969 l 5
 371.094 292.969 l 5
 371.094 273.438 l 5
410.156 39.0625 m 5
 390.625 39.0625 l 5
 390.625 58.5938 l 5
 410.156 58.5938 l 5
 410.156 39.0625 l 5
410.156 78.125 m 5
 390.625 78.125 l 5
 390.625 97.6562 l 5
 410.156 97.6562 l 5
 410.156 78.125 l 5
410.156 117.188 m 5
 390.625 117.188 l 5
 390.625 136.719 l 5
 410.156 136.719 l 5
 410.156 117.188 l 5
410.156 156.25 m 5
 390.625 156.25 l 5
 390.625 175.781 l 5
 410.156 175.781 l 5
 410.156 156.25 l 5
410.156 195.312 m 5
 390.625 195.312 l 5
 390.625 214.844 l 5
 410.156 214.844 l 5
 410.156 195.312 l 5
410.156 234.375 m 5
 390.625 234.375 l 5
 390.625 253.906 l 5
 410.156 253.906 l 5
 410.156 234.375 l 5
410.156 273.438 m 5
 390.625 273.438 l 5
 390.625 292.969 l 5
 410.156 292.969 l 5
 410.156 273.438 l 5
449.219 39.0625 m 5
 429.688 39.0625 l 5
 429.688 58.5938 l 5
 449.219 58.5938 l 5
 449.219 39.0625 l 5
449.219 78.125 m 5
 429.688 78.125 l 5
 429.688 97.6562 l 5
 449.219 97.6562 l 5
 449.219 78.125 l 5
449.219 117.188 m 5
 429.688 117.188 l 5
 429.688 136.719 l 5
 449.219 136.719 l 5
 449.219 117.188 l 5
449.219 156.25 m 5
 429.688 156.25 l 5
 429.688 175.781 l 5
 449.219 175.781 l 5
 449.219 156.25 l 5
449.219 195.312 m 5
 429.688 195.312 l 5
 429.688 214.844 l 5
 449.219 214.844 l 5
 449.219 195.312 l 5
449.219 234.375 m 5
 429.688 234.375 l 5
 429.688 253.906 l 5
 449.219 253.906 l 5
 449.219 234.375 l 5
449.219 273.438 m 5
 429.688 273.438 l 5
 429.688 292.969 l 5
 449.219 292.969 l 5
 449.219 273.438 l 5
488.281 371.094 m 5
 488.281 351.562 l 5
 468.75 351.562 l 5
 468.75 371.094 l 5
 488.281 371.094 l 5
488.281 410.156 m 5
 488.281 390.625 l 5
 468.75 390.625 l 5
 468.75 410.156 l 5
 488.281 410.156 l 5
488.281 449.219 m 5
 488.281 429.688 l 5
 468.75 429.688 l 5
 468.75 449.219 l 5
 488.281 449.219 l 5
488.281 488.281 m 5
 488.281 468.75 l 5
 468.75 468.75 l 5
 468.75 488.281 l 5
 488.281 488.281 l 5
488.281 527.344 m 5
 488.281 507.812 l 5
 468.75 507.812 l 5
 468.75 527.344 l 5
 488.281 527.344 l 5
488.281 566.406 m 5
 488.281 546.875 l 5
 468.75 546.875 l 5
 468.75 566.406 l 5
 488.281 566.406 l 5
488.281 605.469 m 5
 488.281 585.938 l 5
 468.75 585.938 l 5
 468.75 605.469 l 5
 488.281 605.469 l 5
527.344 351.562 m 5
 507.812 351.562 l 5
 507.812 371.094 l 5
 527.344 371.094 l 5
 527.344 351.562 l 5
527.344 390.625 m 5
 507.812 390.625 l 5
 507.812 410.156 l 5
 527.344 410.156 l 5
 527.344 390.625 l 5
527.344 429.688 m 5
 507.812 429.688 l 5
 507.812 449.219 l 5
 527.344 449.219 l 5
 527.344 429.688 l 5
527.344 468.75 m 5
 507.812 468.75 l 5
 507.812 488.281 l 5
 527.344 488.281 l 5
 527.344 468.75 l 5
527.344 507.812 m 5
 507.812 507.812 l 5
 507.812 527.344 l 5
 527.344 527.344 l 5
 527.344 507.812 l 5
527.344 546.875 m 5
 507.812 546.875 l 5
 507.812 566.406 l 5
 527.344 566.406 l 5
 527.344 546.875 l 5
527.344 585.938 m 5
 507.812 585.938 l 5
 507.812 605.469 l 5
 527.344 605.469 l 5
 527.344 585.938 l 5
566.406 351.562 m 5
 546.875 351.562 l 5
 546.875 371.094 l 5
 566.406 371.094 l 5
 566.406 351.562 l 5
566.406 390.625 m 5
 546.875 390.625 l 5
 546.875 410.156 l 5
 566.406 410.156 l 5
 566.406 390.625 l 5
566.406 429.688 m 5
 546.875 429.688 l 5
 546.875 449.219 l 5
 566.406 449.219 l 5
 566.406 429.688 l 5
566.406 468.75 m 5
 546.875 468.75 l 5
 546.875 488.281 l 5
 566.406 488.281 l 5
 566.406 468.75 l 5
566.406 507.812 m 5
 546.875 507.812 l 5
 546.875 527.344 l 5
 566.406 527.344 l 5
 566.406 507.812 l 5
566.406 546.875 m 5
 546.875 546.875 l 5
 546.875 566.406 l 5
 566.406 566.406 l 5
 566.406 546.875 l 5
566.406 585.938 m 5
 546.875 585.938 l 5
 546.875 605.469 l 5
 566.406 605.469 l 5
 566.406 585.938 l 5
605.469 351.562 m 5
 585.938 351.562 l 5
 585.938 371.094 l 5
 605.469 371.094 l 5
 605.469 351.562 l 5
605.469 390.625 m 5
 585.938 390.625 l 5
 585.938 410.156 l 5
 605.469 410.156 l 5
 605.469 390.625 l 5
605.469 429.688 m 5
 585.938 429.688 l 5
 585.938 449.219 l 5
 605.469 449.219 l 5
 605.469 429.688 l 5
605.469 468.75 m 5
 585.938 468.75 l 5
 585.938 488.281 l 5
 605.469 488.281 l 5
 605.469 468.75 l 5
605.469 507.812 m 5
 585.938 507.812 l 5
 585.938 527.344 l 5
 605.469 527.344 l 5
 605.469 507.812 l 5
605.469 546.875 m 5
 585.938 546.875 l 5
 585.938 566.406 l 5
 605.469 566.406 l 5
 605.469 546.875 l 5
605.469 585.938 m 5
 585.938 585.938 l 5
 585.938 605.469 l 5
 605.469 605.469 l 5
 605.469 585.938 l 5
371.094 351.562 m 5
 351.562 351.562 l 5
 351.562 371.094 l 5
 371.094 371.094 l 5
 371.094 351.562 l 5
371.094 390.625 m 5
 351.562 390.625 l 5
 351.562 410.156 l 5
 371.094 410.156 l 5
 371.094 390.625 l 5
371.094 429.688 m 5
 351.562 429.688 l 5
 351.562 449.219 l 5
 371.094 449.219 l 5
 371.094 429.688 l 5
371.094 468.75 m 5
 351.562 468.75 l 5
 351.562 488.281 l 5
 371.094 488.281 l 5
 371.094 468.75 l 5
371.094 507.812 m 5
 351.562 507.812 l 5
 351.562 527.344 l 5
 371.094 527.344 l 5
 371.094 507.812 l 5
371.094 546.875 m 5
 351.562 546.875 l 5
 351.562 566.406 l 5
 371.094 566.406 l 5
 371.094 546.875 l 5
371.094 585.938 m 5
 351.562 585.938 l 5
 351.562 605.469 l 5
 371.094 605.469 l 5
 371.094 585.938 l 5
410.156 351.562 m 5
 390.625 351.562 l 5
 390.625 371.094 l 5
 410.156 371.094 l 5
 410.156 351.562 l 5
410.156 390.625 m 5
 390.625 390.625 l 5
 390.625 410.156 l 5
 410.156 410.156 l 5
 410.156 390.625 l 5
410.156 429.688 m 5
 390.625 429.688 l 5
 390.625 449.219 l 5
 410.156 449.219 l 5
 410.156 429.688 l 5
410.156 468.75 m 5
 390.625 468.75 l 5
 390.625 488.281 l 5
 410.156 488.281 l 5
 410.156 468.75 l 5
410.156 507.812 m 5
 390.625 507.812 l 5
 390.625 527.344 l 5
 410.156 527.344 l 5
 410.156 507.812 l 5
410.156 546.875 m 5
 390.625 546.875 l 5
 390.625 566.406 l 5
 410.156 566.406 l 5
 410.156 546.875 l 5
410.156 585.938 m 5
 390.625 585.938 l 5
 390.625 605.469 l 5
 410.156 605.469 l 5
 410.156 585.938 l 5
449.219 351.562 m 5
 429.688 351.562 l 5
 429.688 371.094 l 5
 449.219 371.094 l 5
 449.219 351.562 l 5
449.219 390.625 m 5
 429.688 390.625 l 5
 429.688 410.156 l 5
 449.219 410.156 l 5
 449.219 390.625 l 5
449.219 429.688 m 5
 429.688 429.688 l 5
 429.688 449.219 l 5
 449.219 449.219 l 5
 449.219 429.688 l 5
449.219 468.75 m 5
 429.688 468.75 l 5
 429.688 488.281 l 5
 449.219 488.281 l 5
 449.219 468.75 l 5
449.219 507.812 m 5
 429.688 507.812 l 5
 429.688 527.344 l 5
 449.219 527.344 l 5
 449.219 507.812 l 5
449.219 546.875 m 5
 429.688 546.875 l 5
 429.688 566.406 l 5
 449.219 566.406 l 5
 449.219 546.875 l 5
449.219 585.938 m 5
 429.688 585.938 l 5
 429.688 605.469 l 5
 449.219 605.469 l 5
 449.219 585.938 l 5
800.781 58.5938 m 5
 800.781 39.0625 l 5
 781.25 39.0625 l 5
 781.25 58.5938 l 5
 800.781 58.5938 l 5
800.781 97.6562 m 5
 800.781 78.125 l 5
 781.25 78.125 l 5
 781.25 97.6562 l 5
 800.781 97.6562 l 5
800.781 136.719 m 5
 800.781 117.188 l 5
 781.25 117.188 l 5
 781.25 136.719 l 5
 800.781 136.719 l 5
800.781 175.781 m 5
 800.781 156.25 l 5
 781.25 156.25 l 5
 781.25 175.781 l 5
 800.781 175.781 l 5
800.781 214.844 m 5
 800.781 195.312 l 5
 781.25 195.312 l 5
 781.25 214.844 l 5
 800.781 214.844 l 5
800.781 253.906 m 5
 800.781 234.375 l 5
 781.25 234.375 l 5
 781.25 253.906 l 5
 800.781 253.906 l 5
800.781 292.969 m 5
 800.781 273.438 l 5
 781.25 273.438 l 5
 781.25 292.969 l 5
 800.781 292.969 l 5
839.844 39.0625 m 5
 820.312 39.0625 l 5
 820.312 58.5938 l 5
 839.844 58.5938 l 5
 839.844 39.0625 l 5
839.844 78.125 m 5
 820.312 78.125 l 5
 820.312 97.6562 l 5
 839.844 97.6562 l 5
 839.844 78.125 l 5
839.844 117.188 m 5
 820.312 117.188 l 5
 820.312 136.719 l 5
 839.844 136.719 l 5
 839.844 117.188 l 5
839.844 156.25 m 5
 820.312 156.25 l 5
 820.312 175.781 l 5
 839.844 175.781 l 5
 839.844 156.25 l 5
839.844 195.312 m 5
 820.312 195.312 l 5
 820.312 214.844 l 5
 839.844 214.844 l 5
 839.844 195.312 l 5
839.844 234.375 m 5
 820.312 234.375 l 5
 820.312 253.906 l 5
 839.844 253.906 l 5
 839.844 234.375 l 5
839.844 273.438 m 5
 820.312 273.438 l 5
 820.312 292.969 l 5
 839.844 292.969 l 5
 839.844 273.438 l 5
878.906 39.0625 m 5
 859.375 39.0625 l 5
 859.375 58.5938 l 5
 878.906 58.5938 l 5
 878.906 39.0625 l 5
878.906 78.125 m 5
 859.375 78.125 l 5
 859.375 97.6562 l 5
 878.906 97.6562 l 5
 878.906 78.125 l 5
878.906 117.188 m 5
 859.375 117.188 l 5
 859.375 136.719 l 5
 878.906 136.719 l 5
 878.906 117.188 l 5
878.906 156.25 m 5
 859.375 156.25 l 5
 859.375 175.781 l 5
 878.906 175.781 l 5
 878.906 156.25 l 5
878.906 195.312 m 5
 859.375 195.312 l 5
 859.375 214.844 l 5
 878.906 214.844 l 5
 878.906 195.312 l 5
878.906 234.375 m 5
 859.375 234.375 l 5
 859.375 253.906 l 5
 878.906 253.906 l 5
 878.906 234.375 l 5
878.906 273.438 m 5
 859.375 273.438 l 5
 859.375 292.969 l 5
 878.906 292.969 l 5
 878.906 273.438 l 5
917.969 39.0625 m 5
 898.438 39.0625 l 5
 898.438 58.5938 l 5
 917.969 58.5938 l 5
 917.969 39.0625 l 5
917.969 78.125 m 5
 898.438 78.125 l 5
 898.438 97.6562 l 5
 917.969 97.6562 l 5
 917.969 78.125 l 5
917.969 117.188 m 5
 898.438 117.188 l 5
 898.438 136.719 l 5
 917.969 136.719 l 5
 917.969 117.188 l 5
917.969 156.25 m 5
 898.438 156.25 l 5
 898.438 175.781 l 5
 917.969 175.781 l 5
 917.969 156.25 l 5
917.969 195.312 m 5
 898.438 195.312 l 5
 898.438 214.844 l 5
 917.969 214.844 l 5
 917.969 195.312 l 5
917.969 234.375 m 5
 898.438 234.375 l 5
 898.438 253.906 l 5
 917.969 253.906 l 5
 917.969 234.375 l 5
917.969 273.438 m 5
 898.438 273.438 l 5
 898.438 292.969 l 5
 917.969 292.969 l 5
 917.969 273.438 l 5
683.594 39.0625 m 5
 664.062 39.0625 l 5
 664.062 58.5938 l 5
 683.594 58.5938 l 5
 683.594 39.0625 l 5
683.594 78.125 m 5
 664.062 78.125 l 5
 664.062 97.6562 l 5
 683.594 97.6562 l 5
 683.594 78.125 l 5
683.594 117.188 m 5
 664.062 117.188 l 5
 664.062 136.719 l 5
 683.594 136.719 l 5
 683.594 117.188 l 5
683.594 156.25 m 5
 664.062 156.25 l 5
 664.062 175.781 l 5
 683.594 175.781 l 5
 683.594 156.25 l 5
683.594 195.312 m 5
 664.062 195.312 l 5
 664.062 214.844 l 5
 683.594 214.844 l 5
 683.594 195.312 l 5
683.594 234.375 m 5
 664.062 234.375 l 5
 664.062 253.906 l 5
 683.594 253.906 l 5
 683.594 234.375 l 5
683.594 273.438 m 5
 664.062 273.438 l 5
 664.062 292.969 l 5
 683.594 292.969 l 5
 683.594 273.438 l 5
722.656 39.0625 m 5
 703.125 39.0625 l 5
 703.125 58.5938 l 5
 722.656 58.5938 l 5
 722.656 39.0625 l 5
722.656 78.125 m 5
 703.125 78.125 l 5
 703.125 97.6562 l 5
 722.656 97.6562 l 5
 722.656 78.125 l 5
722.656 117.188 m 5
 703.125 117.188 l 5
 703.125 136.719 l 5
 722.656 136.719 l 5
 722.656 117.188 l 5
722.656 156.25 m 5
 703.125 156.25 l 5
 703.125 175.781 l 5
 722.656 175.781 l 5
 722.656 156.25 l 5
722.656 195.312 m 5
 703.125 195.312 l 5
 703.125 214.844 l 5
 722.656 214.844 l 5
 722.656 195.312 l 5
722.656 234.375 m 5
 703.125 234.375 l 5
 703.125 253.906 l 5
 722.656 253.906 l 5
 722.656 234.375 l 5
722.656 273.438 m 5
 703.125 273.438 l 5
 703.125 292.969 l 5
 722.656 292.969 l 5
 722.656 273.438 l 5
761.719 39.0625 m 5
 742.188 39.0625 l 5
 742.188 58.5938 l 5
 761.719 58.5938 l 5
 761.719 39.0625 l 5
761.719 78.125 m 5
 742.188 78.125 l 5
 742.188 97.6562 l 5
 761.719 97.6562 l 5
 761.719 78.125 l 5
761.719 117.188 m 5
 742.188 117.188 l 5
 742.188 136.719 l 5
 761.719 136.719 l 5
 761.719 117.188 l 5
761.719 156.25 m 5
 742.188 156.25 l 5
 742.188 175.781 l 5
 761.719 175.781 l 5
 761.719 156.25 l 5
761.719 195.312 m 5
 742.188 195.312 l 5
 742.188 214.844 l 5
 761.719 214.844 l 5
 761.719 195.312 l 5
761.719 234.375 m 5
 742.188 234.375 l 5
 742.188 253.906 l 5
 761.719 253.906 l 5
 761.719 234.375 l 5
761.719 273.438 m 5
 742.188 273.438 l 5
 742.188 292.969 l 5
 761.719 292.969 l 5
 761.719 273.438 l 5
800.781 371.094 m 5
 800.781 351.562 l 5
 781.25 351.562 l 5
 781.25 371.094 l 5
 800.781 371.094 l 5
800.781 410.156 m 5
 800.781 390.625 l 5
 781.25 390.625 l 5
 781.25 410.156 l 5
 800.781 410.156 l 5
800.781 449.219 m 5
 800.781 429.688 l 5
 781.25 429.688 l 5
 781.25 449.219 l 5
 800.781 449.219 l 5
800.781 488.281 m 5
 800.781 468.75 l 5
 781.25 468.75 l 5
 781.25 488.281 l 5
 800.781 488.281 l 5
800.781 527.344 m 5
 800.781 507.812 l 5
 781.25 507.812 l 5
 781.25 527.344 l 5
 800.781 527.344 l 5
800.781 566.406 m 5
 800.781 546.875 l 5
 781.25 546.875 l 5
 781.25 566.406 l 5
 800.781 566.406 l 5
800.781 605.469 m 5
 800.781 585.938 l 5
 781.25 585.938 l 5
 781.25 605.469 l 5
 800.781 605.469 l 5
839.844 351.562 m 5
 820.312 351.562 l 5
 820.312 371.094 l 5
 839.844 371.094 l 5
 839.844 351.562 l 5
839.844 390.625 m 5
 820.312 390.625 l 5
 820.312 410.156 l 5
 839.844 410.156 l 5
 839.844 390.625 l 5
839.844 429.688 m 5
 820.312 429.688 l 5
 820.312 449.219 l 5
 839.844 449.219 l 5
 839.844 429.688 l 5
839.844 468.75 m 5
 820.312 468.75 l 5
 820.312 488.281 l 5
 839.844 488.281 l 5
 839.844 468.75 l 5
839.844 507.812 m 5
 820.312 507.812 l 5
 820.312 527.344 l 5
 839.844 527.344 l 5
 839.844 507.812 l 5
839.844 546.875 m 5
 820.312 546.875 l 5
 820.312 566.406 l 5
 839.844 566.406 l 5
 839.844 546.875 l 5
839.844 585.938 m 5
 820.312 585.938 l 5
 820.312 605.469 l 5
 839.844 605.469 l 5
 839.844 585.938 l 5
878.906 351.562 m 5
 859.375 351.562 l 5
 859.375 371.094 l 5
 878.906 371.094 l 5
 878.906 351.562 l 5
878.906 390.625 m 5
 859.375 390.625 l 5
 859.375 410.156 l 5
 878.906 410.156 l 5
 878.906 390.625 l 5
878.906 429.688 m 5
 859.375 429.688 l 5
 859.375 449.219 l 5
 878.906 449.219 l 5
 878.906 429.688 l 5
878.906 468.75 m 5
 859.375 468.75 l 5
 859.375 488.281 l 5
 878.906 488.281 l 5
 878.906 468.75 l 5
878.906 507.812 m 5
 859.375 507.812 l 5
 859.375 527.344 l 5
 878.906 527.344 l 5
 878.906 507.812 l 5
878.906 546.875 m 5
 859.375 546.875 l 5
 859.375 566.406 l 5
 878.906 566.406 l 5
 878.906 546.875 l 5
878.906 585.938 m 5
 859.375 585.938 l 5
 859.375 605.469 l 5
 878.906 605.469 l 5
 878.906 585.938 l 5
917.969 351.562 m 5
 898.438 351.562 l 5
 898.438 371.094 l 5
 917.969 371.094 l 5
 917.969 351.562 l 5
917.969 390.625 m 5
 898.438 390.625 l 5
 898.438 410.156 l 5
 917.969 410.156 l 5
 917.969 390.625 l 5
917.969 429.688 m 5
 898.438 429.688 l 5
 898.438 449.219 l 5
 917.969 449.219 l 5
 917.969 429.688 l 5
917.969 468.75 m 5
 898.438 468.75 l 5
 898.438 488.281 l 5
 917.969 488.281 l 5
 917.969 468.75 l 5
917.969 507.812 m 5
 898.438 507.812 l 5
 898.438 527.344 l 5
 917.969 527.344 l 5
 917.969 507.812 l 5
917.969 546.875 m 5
 898.438 546.875 l 5
 898.438 566.406 l 5
 917.969 566.406 l 5
 917.969 546.875 l 5
917.969 585.938 m 5
 898.438 585.938 l 5
 898.438 605.469 l 5
 917.969 605.469 l 5
 917.969 585.938 l 5
683.594 351.562 m 5
 664.062 351.562 l 5
 664.062 371.094 l 5
 683.594 371.094 l 5
 683.594 351.562 l 5
683.594 390.625 m 5
 664.062 390.625 l 5
 664.062 410.156 l 5
 683.594 410.156 l 5
 683.594 390.625 l 5
683.594 429.688 m 5
 664.062 429.688 l 5
 664.062 449.219 l 5
 683.594 449.219 l 5
 683.594 429.688 l 5
683.594 468.75 m 5
 664.062 468.75 l 5
 664.062 488.281 l 5
 683.594 488.281 l 5
 683.594 468.75 l 5
683.594 507.812 m 5
 664.062 507.812 l 5
 664.062 527.344 l 5
 683.594 527.344 l 5
 683.594 507.812 l 5
683.594 546.875 m 5
 664.062 546.875 l 5
 664.062 566.406 l 5
 683.594 566.406 l 5
 683.594 546.875 l 5
683.594 585.938 m 5
 664.062 585.938 l 5
 664.062 605.469 l 5
 683.594 605.469 l 5
 683.594 585.938 l 5
722.656 351.562 m 5
 703.125 351.562 l 5
 703.125 371.094 l 5
 722.656 371.094 l 5
 722.656 351.562 l 5
722.656 390.625 m 5
 703.125 390.625 l 5
 703.125 410.156 l 5
 722.656 410.156 l 5
 722.656 390.625 l 5
722.656 429.688 m 5
 703.125 429.688 l 5
 703.125 449.219 l 5
 722.656 449.219 l 5
 722.656 429.688 l 5
722.656 468.75 m 5
 703.125 468.75 l 5
 703.125 488.281 l 5
 722.656 488.281 l 5
 722.656 468.75 l 5
722.656 507.812 m 5
 703.125 507.812 l 5
 703.125 527.344 l 5
 722.656 527.344 l 5
 722.656 507.812 l 5
722.656 546.875 m 5
 703.125 546.875 l 5
 703.125 566.406 l 5
 722.656 566.406 l 5
 722.656 546.875 l 5
722.656 585.938 m 5
 703.125 585.938 l 5
 703.125 605.469 l 5
 722.656 605.469 l 5
 722.656 585.938 l 5
761.719 351.562 m 5
 742.188 351.562 l 5
 742.188 371.094 l 5
 761.719 371.094 l 5
 761.719 351.562 l 5
761.719 390.625 m 5
 742.188 390.625 l 5
 742.188 410.156 l 5
 761.719 410.156 l 5
 761.719 390.625 l 5
761.719 429.688 m 5
 742.188 429.688 l 5
 742.188 449.219 l 5
 761.719 449.219 l 5
 761.719 429.688 l 5
761.719 468.75 m 5
 742.188 468.75 l 5
 742.188 488.281 l 5
 761.719 488.281 l 5
 761.719 468.75 l 5
761.719 507.812 m 5
 742.188 507.812 l 5
 742.188 527.344 l 5
 761.719 527.344 l 5
 761.719 507.812 l 5
761.719 546.875 m 5
 742.188 546.875 l 5
 742.188 566.406 l 5
 761.719 566.406 l 5
 761.719 546.875 l 5
761.719 585.938 m 5
 742.188 585.938 l 5
 742.188 605.469 l 5
 761.719 605.469 l 5
 761.719 585.938 l 5
1113.28 58.5938 m 5
 1113.28 39.0625 l 5
 1093.75 39.0625 l 5
 1093.75 58.5938 l 5
 1113.28 58.5938 l 5
1113.28 97.6562 m 5
 1113.28 78.125 l 5
 1093.75 78.125 l 5
 1093.75 97.6562 l 5
 1113.28 97.6562 l 5
1113.28 136.719 m 5
 1113.28 117.188 l 5
 1093.75 117.188 l 5
 1093.75 136.719 l 5
 1113.28 136.719 l 5
1113.28 175.781 m 5
 1113.28 156.25 l 5
 1093.75 156.25 l 5
 1093.75 175.781 l 5
 1113.28 175.781 l 5
1113.28 214.844 m 5
 1113.28 195.312 l 5
 1093.75 195.312 l 5
 1093.75 214.844 l 5
 1113.28 214.844 l 5
1113.28 253.906 m 5
 1113.28 234.375 l 5
 1093.75 234.375 l 5
 1093.75 253.906 l 5
 1113.28 253.906 l 5
1113.28 292.969 m 5
 1113.28 273.438 l 5
 1093.75 273.438 l 5
 1093.75 292.969 l 5
 1113.28 292.969 l 5
1152.34 39.0625 m 5
 1132.81 39.0625 l 5
 1132.81 58.5938 l 5
 1152.34 58.5938 l 5
 1152.34 39.0625 l 5
1152.34 78.125 m 5
 1132.81 78.125 l 5
 1132.81 97.6562 l 5
 1152.34 97.6562 l 5
 1152.34 78.125 l 5
1152.34 117.188 m 5
 1132.81 117.188 l 5
 1132.81 136.719 l 5
 1152.34 136.719 l 5
 1152.34 117.188 l 5
1152.34 156.25 m 5
 1132.81 156.25 l 5
 1132.81 175.781 l 5
 1152.34 175.781 l 5
 1152.34 156.25 l 5
1152.34 195.312 m 5
 1132.81 195.312 l 5
 1132.81 214.844 l 5
 1152.34 214.844 l 5
 1152.34 195.312 l 5
1152.34 234.375 m 5
 1132.81 234.375 l 5
 1132.81 253.906 l 5
 1152.34 253.906 l 5
 1152.34 234.375 l 5
1152.34 273.438 m 5
 1132.81 273.438 l 5
 1132.81 292.969 l 5
 1152.34 292.969 l 5
 1152.34 273.438 l 5
1191.41 39.0625 m 5
 1171.88 39.0625 l 5
 1171.88 58.5938 l 5
 1191.41 58.5938 l 5
 1191.41 39.0625 l 5
1191.41 78.125 m 5
 1171.88 78.125 l 5
 1171.88 97.6562 l 5
 1191.41 97.6562 l 5
 1191.41 78.125 l 5
1191.41 117.188 m 5
 1171.88 117.188 l 5
 1171.88 136.719 l 5
 1191.41 136.719 l 5
 1191.41 117.188 l 5
1191.41 156.25 m 5
 1171.88 156.25 l 5
 1171.88 175.781 l 5
 1191.41 175.781 l 5
 1191.41 156.25 l 5
1191.41 195.312 m 5
 1171.88 195.312 l 5
 1171.88 214.844 l 5
 1191.41 214.844 l 5
 1191.41 195.312 l 5
1191.41 234.375 m 5
 1171.88 234.375 l 5
 1171.88 253.906 l 5
 1191.41 253.906 l 5
 1191.41 234.375 l 5
1191.41 273.438 m 5
 1171.88 273.438 l 5
 1171.88 292.969 l 5
 1191.41 292.969 l 5
 1191.41 273.438 l 5
1230.47 39.0625 m 5
 1210.94 39.0625 l 5
 1210.94 58.5938 l 5
 1230.47 58.5938 l 5
 1230.47 39.0625 l 5
1230.47 78.125 m 5
 1210.94 78.125 l 5
 1210.94 97.6562 l 5
 1230.47 97.6562 l 5
 1230.47 78.125 l 5
1230.47 117.188 m 5
 1210.94 117.188 l 5
 1210.94 136.719 l 5
 1230.47 136.719 l 5
 1230.47 117.188 l 5
1230.47 156.25 m 5
 1210.94 156.25 l 5
 1210.94 175.781 l 5
 1230.47 175.781 l 5
 1230.47 156.25 l 5
1230.47 195.312 m 5
 1210.94 195.312 l 5
 1210.94 214.844 l 5
 1230.47 214.844 l 5
 1230.47 195.312 l 5
1230.47 234.375 m 5
 1210.94 234.375 l 5
 1210.94 253.906 l 5
 1230.47 253.906 l 5
 1230.47 234.375 l 5
1230.47 273.438 m 5
 1210.94 273.438 l 5
 1210.94 292.969 l 5
 1230.47 292.969 l 5
 1230.47 273.438 l 5
1269.53 39.0625 m 5
 1250 39.0625 l 5
 1250 58.5938 l 5
 1269.53 58.5938 l 5
 1269.53 39.0625 l 5
1269.53 78.125 m 5
 1250 78.125 l 5
 1250 97.6562 l 5
 1269.53 97.6562 l 5
 1269.53 78.125 l 5
1269.53 117.188 m 5
 1250 117.188 l 5
 1250 136.719 l 5
 1269.53 136.719 l 5
 1269.53 117.188 l 5
1269.53 156.25 m 5
 1250 156.25 l 5
 1250 175.781 l 5
 1269.53 175.781 l 5
 1269.53 156.25 l 5
1269.53 195.312 m 5
 1250 195.312 l 5
 1250 214.844 l 5
 1269.53 214.844 l 5
 1269.53 195.312 l 5
1269.53 234.375 m 5
 1250 234.375 l 5
 1250 253.906 l 5
 1269.53 253.906 l 5
 1269.53 234.375 l 5
1269.53 273.438 m 5
 1250 273.438 l 5
 1250 292.969 l 5
 1269.53 292.969 l 5
 1269.53 273.438 l 5
996.094 39.0625 m 5
 976.562 39.0625 l 5
 976.562 58.5938 l 5
 996.094 58.5938 l 5
 996.094 39.0625 l 5
996.094 78.125 m 5
 976.562 78.125 l 5
 976.562 97.6562 l 5
 996.094 97.6562 l 5
 996.094 78.125 l 5
996.094 117.188 m 5
 976.562 117.188 l 5
 976.562 136.719 l 5
 996.094 136.719 l 5
 996.094 117.188 l 5
996.094 156.25 m 5
 976.562 156.25 l 5
 976.562 175.781 l 5
 996.094 175.781 l 5
 996.094 156.25 l 5
996.094 195.312 m 5
 976.562 195.312 l 5
 976.562 214.844 l 5
 996.094 214.844 l 5
 996.094 195.312 l 5
996.094 234.375 m 5
 976.562 234.375 l 5
 976.562 253.906 l 5
 996.094 253.906 l 5
 996.094 234.375 l 5
996.094 273.438 m 5
 976.562 273.438 l 5
 976.562 292.969 l 5
 996.094 292.969 l 5
 996.094 273.438 l 5
1035.16 39.0625 m 5
 1015.62 39.0625 l 5
 1015.62 58.5938 l 5
 1035.16 58.5938 l 5
 1035.16 39.0625 l 5
1035.16 78.125 m 5
 1015.62 78.125 l 5
 1015.62 97.6562 l 5
 1035.16 97.6562 l 5
 1035.16 78.125 l 5
1035.16 117.188 m 5
 1015.62 117.188 l 5
 1015.62 136.719 l 5
 1035.16 136.719 l 5
 1035.16 117.188 l 5
1035.16 156.25 m 5
 1015.62 156.25 l 5
 1015.62 175.781 l 5
 1035.16 175.781 l 5
 1035.16 156.25 l 5
1035.16 195.312 m 5
 1015.62 195.312 l 5
 1015.62 214.844 l 5
 1035.16 214.844 l 5
 1035.16 195.312 l 5
1035.16 234.375 m 5
 1015.62 234.375 l 5
 1015.62 253.906 l 5
 1035.16 253.906 l 5
 1035.16 234.375 l 5
1035.16 273.438 m 5
 1015.62 273.438 l 5
 1015.62 292.969 l 5
 1035.16 292.969 l 5
 1035.16 273.438 l 5
1074.22 39.0625 m 5
 1054.69 39.0625 l 5
 1054.69 58.5938 l 5
 1074.22 58.5938 l 5
 1074.22 39.0625 l 5
1074.22 78.125 m 5
 1054.69 78.125 l 5
 1054.69 97.6562 l 5
 1074.22 97.6562 l 5
 1074.22 78.125 l 5
1074.22 117.188 m 5
 1054.69 117.188 l 5
 1054.69 136.719 l 5
 1074.22 136.719 l 5
 1074.22 117.188 l 5
1074.22 156.25 m 5
 1054.69 156.25 l 5
 1054.69 175.781 l 5
 1074.22 175.781 l 5
 1074.22 156.25 l 5
1074.22 195.312 m 5
 1054.69 195.312 l 5
 1054.69 214.844 l 5
 1074.22 214.844 l 5
 1074.22 195.312 l 5
1074.22 234.375 m 5
 1054.69 234.375 l 5
 1054.69 253.906 l 5
 1074.22 253.906 l 5
 1074.22 234.375 l 5
1074.22 273.438 m 5
 1054.69 273.438 l 5
 1054.69 292.969 l 5
 1074.22 292.969 l 5
 1074.22 273.438 l 5
1113.28 371.094 m 5
 1113.28 351.562 l 5
 1093.75 351.562 l 5
 1093.75 371.094 l 5
 1113.28 371.094 l 5
1113.28 410.156 m 5
 1113.28 390.625 l 5
 1093.75 390.625 l 5
 1093.75 410.156 l 5
 1113.28 410.156 l 5
1113.28 449.219 m 5
 1113.28 429.688 l 5
 1093.75 429.688 l 5
 1093.75 449.219 l 5
 1113.28 449.219 l 5
1113.28 488.281 m 5
 1113.28 468.75 l 5
 1093.75 468.75 l 5
 1093.75 488.281 l 5
 1113.28 488.281 l 5
1113.28 527.344 m 5
 1113.28 507.812 l 5
 1093.75 507.812 l 5
 1093.75 527.344 l 5
 1113.28 527.344 l 5
1113.28 566.406 m 5
 1113.28 546.875 l 5
 1093.75 546.875 l 5
 1093.75 566.406 l 5
 1113.28 566.406 l 5
1113.28 605.469 m 5
 1113.28 585.938 l 5
 1093.75 585.938 l 5
 1093.75 605.469 l 5
 1113.28 605.469 l 5
1152.34 351.562 m 5
 1132.81 351.562 l 5
 1132.81 371.094 l 5
 1152.34 371.094 l 5
 1152.34 351.562 l 5
1152.34 390.625 m 5
 1132.81 390.625 l 5
 1132.81 410.156 l 5
 1152.34 410.156 l 5
 1152.34 390.625 l 5
1152.34 429.688 m 5
 1132.81 429.688 l 5
 1132.81 449.219 l 5
 1152.34 449.219 l 5
 1152.34 429.688 l 5
1152.34 468.75 m 5
 1132.81 468.75 l 5
 1132.81 488.281 l 5
 1152.34 488.281 l 5
 1152.34 468.75 l 5
1152.34 507.812 m 5
 1132.81 507.812 l 5
 1132.81 527.344 l 5
 1152.34 527.344 l 5
 1152.34 507.812 l 5
1152.34 546.875 m 5
 1132.81 546.875 l 5
 1132.81 566.406 l 5
 1152.34 566.406 l 5
 1152.34 546.875 l 5
1152.34 585.938 m 5
 1132.81 585.938 l 5
 1132.81 605.469 l 5
 1152.34 605.469 l 5
 1152.34 585.938 l 5
1191.41 351.562 m 5
 1171.88 351.562 l 5
 1171.88 371.094 l 5
 1191.41 371.094 l 5
 1191.41 351.562 l 5
1191.41 390.625 m 5
 1171.88 390.625 l 5
 1171.88 410.156 l 5
 1191.41 410.156 l 5
 1191.41 390.625 l 5
1191.41 429.688 m 5
 1171.88 429.688 l 5
 1171.88 449.219 l 5
 1191.41 449.219 l 5
 1191.41 429.688 l 5
1191.41 468.75 m 5
 1171.88 468.75 l 5
 1171.88 488.281 l 5
 1191.41 488.281 l 5
 1191.41 468.75 l 5
1191.41 507.812 m 5
 1171.88 507.812 l 5
 1171.88 527.344 l 5
 1191.41 527.344 l 5
 1191.41 507.812 l 5
1191.41 546.875 m 5
 1171.88 546.875 l 5
 1171.88 566.406 l 5
 1191.41 566.406 l 5
 1191.41 546.875 l 5
1191.41 585.938 m 5
 1171.88 585.938 l 5
 1171.88 605.469 l 5
 1191.41 605.469 l 5
 1191.41 585.938 l 5
1230.47 351.562 m 5
 1210.94 351.562 l 5
 1210.94 371.094 l 5
 1230.47 371.094 l 5
 1230.47 351.562 l 5
1230.47 390.625 m 5
 1210.94 390.625 l 5
 1210.94 410.156 l 5
 1230.47 410.156 l 5
 1230.47 390.625 l 5
1230.47 429.688 m 5
 1210.94 429.688 l 5
 1210.94 449.219 l 5
 1230.47 449.219 l 5
 1230.47 429.688 l 5
1230.47 468.75 m 5
 1210.94 468.75 l 5
 1210.94 488.281 l 5
 1230.47 488.281 l 5
 1230.47 468.75 l 5
1230.47 507.812 m 5
 1210.94 507.812 l 5
 1210.94 527.344 l 5
 1230.47 527.344 l 5
 1230.47 507.812 l 5
1230.47 546.875 m 5
 1210.94 546.875 l 5
 1210.94 566.406 l 5
 1230.47 566.406 l 5
 1230.47 546.875 l 5
1230.47 585.938 m 5
 1210.94 585.938 l 5
 1210.94 605.469 l 5
 1230.47 605.469 l 5
 1230.47 585.938 l 5
1269.53 351.562 m 5
 1250 351.562 l 5
 1250 371.094 l 5
 1269.53 371.094 l 5
 1269.53 351.562 l 5
1269.53 390.625 m 5
 1250 390.625 l 5
 1250 410.156 l 5
 1269.53 410.156 l 5
 1269.53 390.625 l 5
1269.53 429.688 m 5
 1250 429.688 l 5
 1250 449.219 l 5
 1269.53 449.219 l 5
 1269.53 429.688 l 5
1269.53 468.75 m 5
 1250 468.75 l 5
 1250 488.281 l 5
 1269.53 488.281 l 5
 1269.53 468.75 l 5
1269.53 507.812 m 5
 1250 507.812 l 5
 1250 527.344 l 5
 1269.53 527.344 l 5
 1269.53 507.812 l 5
1269.53 546.875 m 5
 1250 546.875 l 5
 1250 566.406 l 5
 1269.53 566.406 l 5
 1269.53 546.875 l 5
1269.53 585.938 m 5
 1250 585.938 l 5
 1250 605.469 l 5
 1269.53 605.469 l 5
 1269.53 585.938 l 5
996.094 351.562 m 5
 976.562 351.562 l 5
 976.562 371.094 l 5
 996.094 371.094 l 5
 996.094 351.562 l 5
996.094 390.625 m 5
 976.562 390.625 l 5
 976.562 410.156 l 5
 996.094 410.156 l 5
 996.094 390.625 l 5
996.094 429.688 m 5
 976.562 429.688 l 5
 976.562 449.219 l 5
 996.094 449.219 l 5
 996.094 429.688 l 5
996.094 468.75 m 5
 976.562 468.75 l 5
 976.562 488.281 l 5
 996.094 488.281 l 5
 996.094 468.75 l 5
996.094 507.812 m 5
 976.562 507.812 l 5
 976.562 527.344 l 5
 996.094 527.344 l 5
 996.094 507.812 l 5
996.094 546.875 m 5
 976.562 546.875 l 5
 976.562 566.406 l 5
 996.094 566.406 l 5
 996.094 546.875 l 5
996.094 585.938 m 5
 976.562 585.938 l 5
 976.562 605.469 l 5
 996.094 605.469 l 5
 996.094 585.938 l 5
1035.16 351.562 m 5
 1015.62 351.562 l 5
 1015.62 371.094 l 5
 1035.16 371.094 l 5
 1035.16 351.562 l 5
1035.16 390.625 m 5
 1015.62 390.625 l 5
 1015.62 410.156 l 5
 1035.16 410.156 l 5
 1035.16 390.625 l 5
1035.16 429.688 m 5
 1015.62 429.688 l 5
 1015.62 449.219 l 5
 1035.16 449.219 l 5
 1035.16 429.688 l 5
1035.16 468.75 m 5
 1015.62 468.75 l 5
 1015.62 488.281 l 5
 1035.16 488.281 l 5
 1035.16 468.75 l 5
1035.16 507.812 m 5
 1015.62 507.812 l 5
 1015.62 527.344 l 5
 1035.16 527.344 l 5
 1035.16 507.812 l 5
1035.16 546.875 m 5
 1015.62 546.875 l 5
 1015.62 566.406 l 5
 1035.16 566.406 l 5
 1035.16 546.875 l 5
1035.16 585.938 m 5
 1015.62 585.938 l 5
 1015.62 605.469 l 5
 1035.16 605.469 l 5
 1035.16 585.938 l 5
1074.22 351.562 m 5
 1054.69 351.562 l 5
 1054.69 371.094 l 5
 1074.22 371.094 l 5
 1074.22 351.562 l 5
1074.22 390.625 m 5
 1054.69 390.625 l 5
 1054.69 410.156 l 5
 1074.22 410.156 l 5
 1074.22 390.625 l 5
1074.22 429.688 m 5
 1054.69 429.688 l 5
 1054.69 449.219 l 5
 1074.22 449.219 l 5
 1074.22 429.688 l 5
1074.22 468.75 m 5
 1054.69 468.75 l 5
 1054.69 488.281 l 5
 1074.22 488.281 l 5
 1074.22 468.75 l 5
1074.22 507.812 m 5
 1054.69 507.812 l 5
 1054.69 527.344 l 5
 1074.22 527.344 l 5
 1074.22 507.812 l 5
1074.22 546.875 m 5
 1054.69 546.875 l 5
 1054.69 566.406 l 5
 1074.22 566.406 l 5
 1074.22 546.875 l 5
1074.22 585.938 m 5
 1054.69 585.938 l 5
 1054.69 605.469 l 5
 1074.22 605.469 l 5
 1074.22 585.938 l 5
175.781 683.594 m 5
 175.781 664.062 l 5
 156.25 664.062 l 5
 156.25 683.594 l 5
 175.781 683.594 l 5
175.781 722.656 m 5
 175.781 703.125 l 5
 156.25 703.125 l 5
 156.25 722.656 l 5
 175.781 722.656 l 5
175.781 761.719 m 5
 175.781 742.188 l 5
 156.25 742.188 l 5
 156.25 761.719 l 5
 175.781 761.719 l 5
175.781 800.781 m 5
 175.781 781.25 l 5
 156.25 781.25 l 5
 156.25 800.781 l 5
 175.781 800.781 l 5
175.781 839.844 m 5
 175.781 820.312 l 5
 156.25 820.312 l 5
 156.25 839.844 l 5
 175.781 839.844 l 5
175.781 878.906 m 5
 175.781 859.375 l 5
 156.25 859.375 l 5
 156.25 878.906 l 5
 175.781 878.906 l 5
175.781 917.969 m 5
 175.781 898.438 l 5
 156.25 898.438 l 5
 156.25 917.969 l 5
 175.781 917.969 l 5
214.844 664.062 m 5
 195.312 664.062 l 5
 195.312 683.594 l 5
 214.844 683.594 l 5
 214.844 664.062 l 5
214.844 703.125 m 5
 195.312 703.125 l 5
 195.312 722.656 l 5
 214.844 722.656 l 5
 214.844 703.125 l 5
214.844 742.188 m 5
 195.312 742.188 l 5
 195.312 761.719 l 5
 214.844 761.719 l 5
 214.844 742.188 l 5
214.844 781.25 m 5
 195.312 781.25 l 5
 195.312 800.781 l 5
 214.844 800.781 l 5
 214.844 781.25 l 5
214.844 820.312 m 5
 195.312 820.312 l 5
 195.312 839.844 l 5
 214.844 839.844 l 5
 214.844 820.312 l 5
214.844 859.375 m 5
 195.312 859.375 l 5
 195.312 878.906 l 5
 214.844 878.906 l 5
 214.844 859.375 l 5
214.844 898.438 m 5
 195.312 898.438 l 5
 195.312 917.969 l 5
 214.844 917.969 l 5
 214.844 898.438 l 5
253.906 664.062 m 5
 234.375 664.062 l 5
 234.375 683.594 l 5
 253.906 683.594 l 5
 253.906 664.062 l 5
253.906 703.125 m 5
 234.375 703.125 l 5
 234.375 722.656 l 5
 253.906 722.656 l 5
 253.906 703.125 l 5
253.906 742.188 m 5
 234.375 742.188 l 5
 234.375 761.719 l 5
 253.906 761.719 l 5
 253.906 742.188 l 5
253.906 781.25 m 5
 234.375 781.25 l 5
 234.375 800.781 l 5
 253.906 800.781 l 5
 253.906 781.25 l 5
253.906 820.312 m 5
 234.375 820.312 l 5
 234.375 839.844 l 5
 253.906 839.844 l 5
 253.906 820.312 l 5
253.906 859.375 m 5
 234.375 859.375 l 5
 234.375 878.906 l 5
 253.906 878.906 l 5
 253.906 859.375 l 5
253.906 898.438 m 5
 234.375 898.438 l 5
 234.375 917.969 l 5
 253.906 917.969 l 5
 253.906 898.438 l 5
292.969 664.062 m 5
 273.438 664.062 l 5
 273.438 683.594 l 5
 292.969 683.594 l 5
 292.969 664.062 l 5
292.969 703.125 m 5
 273.438 703.125 l 5
 273.438 722.656 l 5
 292.969 722.656 l 5
 292.969 703.125 l 5
292.969 742.188 m 5
 273.438 742.188 l 5
 273.438 761.719 l 5
 292.969 761.719 l 5
 292.969 742.188 l 5
292.969 781.25 m 5
 273.438 781.25 l 5
 273.438 800.781 l 5
 292.969 800.781 l 5
 292.969 781.25 l 5
292.969 820.312 m 5
 273.438 820.312 l 5
 273.438 839.844 l 5
 292.969 839.844 l 5
 292.969 820.312 l 5
292.969 859.375 m 5
 273.438 859.375 l 5
 273.438 878.906 l 5
 292.969 878.906 l 5
 292.969 859.375 l 5
292.969 898.438 m 5
 273.438 898.438 l 5
 273.438 917.969 l 5
 292.969 917.969 l 5
 292.969 898.438 l 5
19.5312 664.062 m 5
 0 664.062 l 5
 0 683.594 l 5
 19.5312 683.594 l 5
 19.5312 664.062 l 5
19.5312 703.125 m 5
 0 703.125 l 5
 0 722.656 l 5
 19.5312 722.656 l 5
 19.5312 703.125 l 5
19.5312 742.188 m 5
 0 742.188 l 5
 0 761.719 l 5
 19.5312 761.719 l 5
 19.5312 742.188 l 5
19.5312 781.25 m 5
 0 781.25 l 5
 0 800.781 l 5
 19.5312 800.781 l 5
 19.5312 781.25 l 5
19.5312 820.312 m 5
 0 820.312 l 5
 0 839.844 l 5
 19.5312 839.844 l 5
 19.5312 820.312 l 5
19.5312 859.375 m 5
 0 859.375 l 5
 0 878.906 l 5
 19.5312 878.906 l 5
 19.5312 859.375 l 5
19.5312 898.438 m 5
 0 898.438 l 5
 0 917.969 l 5
 19.5312 917.969 l 5
 19.5312 898.438 l 5
58.5938 664.062 m 5
 39.0625 664.062 l 5
 39.0625 683.594 l 5
 58.5938 683.594 l 5
 58.5938 664.062 l 5
58.5938 703.125 m 5
 39.0625 703.125 l 5
 39.0625 722.656 l 5
 58.5938 722.656 l 5
 58.5938 703.125 l 5
58.5938 742.188 m 5
 39.0625 742.188 l 5
 39.0625 761.719 l 5
 58.5938 761.719 l 5
 58.5938 742.188 l 5
58.5938 781.25 m 5
 39.0625 781.25 l 5
 39.0625 800.781 l 5
 58.5938 800.781 l 5
 58.5938 781.25 l 5
58.5938 820.312 m 5
 39.0625 820.312 l 5
 39.0625 839.844 l 5
 58.5938 839.844 l 5
 58.5938 820.312 l 5
58.5938 859.375 m 5
 39.0625 859.375 l 5
 39.0625 878.906 l 5
 58.5938 878.906 l 5
 58.5938 859.375 l 5
58.5938 898.438 m 5
 39.0625 898.438 l 5
 39.0625 917.969 l 5
 58.5938 917.969 l 5
 58.5938 898.438 l 5
97.6562 664.062 m 5
 78.125 664.062 l 5
 78.125 683.594 l 5
 97.6562 683.594 l 5
 97.6562 664.062 l 5
97.6562 703.125 m 5
 78.125 703.125 l 5
 78.125 722.656 l 5
 97.6562 722.656 l 5
 97.6562 703.125 l 5
97.6562 742.188 m 5
 78.125 742.188 l 5
 78.125 761.719 l 5
 97.6562 761.719 l 5
 97.6562 742.188 l 5
97.6562 781.25 m 5
 78.125 781.25 l 5
 78.125 800.781 l 5
 97.6562 800.781 l 5
 97.6562 781.25 l 5
97.6562 820.312 m 5
 78.125 820.312 l 5
 78.125 839.844 l 5
 97.6562 839.844 l 5
 97.6562 820.312 l 5
97.6562 859.375 m 5
 78.125 859.375 l 5
 78.125 878.906 l 5
 97.6562 878.906 l 5
 97.6562 859.375 l 5
97.6562 898.438 m 5
 78.125 898.438 l 5
 78.125 917.969 l 5
 97.6562 917.969 l 5
 97.6562 898.438 l 5
136.719 664.062 m 5
 117.188 664.062 l 5
 117.188 683.594 l 5
 136.719 683.594 l 5
 136.719 664.062 l 5
136.719 703.125 m 5
 117.188 703.125 l 5
 117.188 722.656 l 5
 136.719 722.656 l 5
 136.719 703.125 l 5
136.719 742.188 m 5
 117.188 742.188 l 5
 117.188 761.719 l 5
 136.719 761.719 l 5
 136.719 742.188 l 5
136.719 781.25 m 5
 117.188 781.25 l 5
 117.188 800.781 l 5
 136.719 800.781 l 5
 136.719 781.25 l 5
136.719 820.312 m 5
 117.188 820.312 l 5
 117.188 839.844 l 5
 136.719 839.844 l 5
 136.719 820.312 l 5
136.719 859.375 m 5
 117.188 859.375 l 5
 117.188 878.906 l 5
 136.719 878.906 l 5
 136.719 859.375 l 5
136.719 898.438 m 5
 117.188 898.438 l 5
 117.188 917.969 l 5
 136.719 917.969 l 5
 136.719 898.438 l 5
175.781 996.094 m 5
 175.781 976.562 l 5
 156.25 976.562 l 5
 156.25 996.094 l 5
 175.781 996.094 l 5
214.844 976.562 m 5
 195.312 976.562 l 5
 195.312 996.094 l 5
 214.844 996.094 l 5
 214.844 976.562 l 5
253.906 976.562 m 5
 234.375 976.562 l 5
 234.375 996.094 l 5
 253.906 996.094 l 5
 253.906 976.562 l 5
292.969 976.562 m 5
 273.438 976.562 l 5
 273.438 996.094 l 5
 292.969 996.094 l 5
 292.969 976.562 l 5
19.5312 976.562 m 5
 0 976.562 l 5
 0 996.094 l 5
 19.5312 996.094 l 5
 19.5312 976.562 l 5
58.5938 976.562 m 5
 39.0625 976.562 l 5
 39.0625 996.094 l 5
 58.5938 996.094 l 5
 58.5938 976.562 l 5
97.6562 976.562 m 5
 78.125 976.562 l 5
 78.125 996.094 l 5
 97.6562 996.094 l 5
 97.6562 976.562 l 5
136.719 976.562 m 5
 117.188 976.562 l 5
 117.188 996.094 l 5
 136.719 996.094 l 5
 136.719 976.562 l 5
488.281 683.594 m 5
 488.281 664.062 l 5
 468.75 664.062 l 5
 468.75 683.594 l 5
 488.281 683.594 l 5
488.281 722.656 m 5
 488.281 703.125 l 5
 468.75 703.125 l 5
 468.75 722.656 l 5
 488.281 722.656 l 5
488.281 761.719 m 5
 488.281 742.188 l 5
 468.75 742.188 l 5
 468.75 761.719 l 5
 488.281 761.719 l 5
488.281 800.781 m 5
 488.281 781.25 l 5
 468.75 781.25 l 5
 468.75 800.781 l 5
 488.281 800.781 l 5
488.281 839.844 m 5
 488.281 820.312 l 5
 468.75 820.312 l 5
 468.75 839.844 l 5
 488.281 839.844 l 5
488.281 878.906 m 5
 488.281 859.375 l 5
 468.75 859.375 l 5
 468.75 878.906 l 5
 488.281 878.906 l 5
488.281 917.969 m 5
 488.281 898.438 l 5
 468.75 898.438 l 5
 468.75 917.969 l 5
 488.281 917.969 l 5
527.344 664.062 m 5
 507.812 664.062 l 5
 507.812 683.594 l 5
 527.344 683.594 l 5
 527.344 664.062 l 5
527.344 703.125 m 5
 507.812 703.125 l 5
 507.812 722.656 l 5
 527.344 722.656 l 5
 527.344 703.125 l 5
527.344 742.188 m 5
 507.812 742.188 l 5
 507.812 761.719 l 5
 527.344 761.719 l 5
 527.344 742.188 l 5
527.344 781.25 m 5
 507.812 781.25 l 5
 507.812 800.781 l 5
 527.344 800.781 l 5
 527.344 781.25 l 5
527.344 820.312 m 5
 507.812 820.312 l 5
 507.812 839.844 l 5
 527.344 839.844 l 5
 527.344 820.312 l 5
527.344 859.375 m 5
 507.812 859.375 l 5
 507.812 878.906 l 5
 527.344 878.906 l 5
 527.344 859.375 l 5
527.344 898.438 m 5
 507.812 898.438 l 5
 507.812 917.969 l 5
 527.344 917.969 l 5
 527.344 898.438 l 5
566.406 664.062 m 5
 546.875 664.062 l 5
 546.875 683.594 l 5
 566.406 683.594 l 5
 566.406 664.062 l 5
566.406 703.125 m 5
 546.875 703.125 l 5
 546.875 722.656 l 5
 566.406 722.656 l 5
 566.406 703.125 l 5
566.406 742.188 m 5
 546.875 742.188 l 5
 546.875 761.719 l 5
 566.406 761.719 l 5
 566.406 742.188 l 5
566.406 781.25 m 5
 546.875 781.25 l 5
 546.875 800.781 l 5
 566.406 800.781 l 5
 566.406 781.25 l 5
566.406 820.312 m 5
 546.875 820.312 l 5
 546.875 839.844 l 5
 566.406 839.844 l 5
 566.406 820.312 l 5
566.406 859.375 m 5
 546.875 859.375 l 5
 546.875 878.906 l 5
 566.406 878.906 l 5
 566.406 859.375 l 5
566.406 898.438 m 5
 546.875 898.438 l 5
 546.875 917.969 l 5
 566.406 917.969 l 5
 566.406 898.438 l 5
605.469 664.062 m 5
 585.938 664.062 l 5
 585.938 683.594 l 5
 605.469 683.594 l 5
 605.469 664.062 l 5
605.469 703.125 m 5
 585.938 703.125 l 5
 585.938 722.656 l 5
 605.469 722.656 l 5
 605.469 703.125 l 5
605.469 742.188 m 5
 585.938 742.188 l 5
 585.938 761.719 l 5
 605.469 761.719 l 5
 605.469 742.188 l 5
605.469 781.25 m 5
 585.938 781.25 l 5
 585.938 800.781 l 5
 605.469 800.781 l 5
 605.469 781.25 l 5
605.469 820.312 m 5
 585.938 820.312 l 5
 585.938 839.844 l 5
 605.469 839.844 l 5
 605.469 820.312 l 5
605.469 859.375 m 5
 585.938 859.375 l 5
 585.938 878.906 l 5
 605.469 878.906 l 5
 605.469 859.375 l 5
605.469 898.438 m 5
 585.938 898.438 l 5
 585.938 917.969 l 5
 605.469 917.969 l 5
 605.469 898.438 l 5
371.094 664.062 m 5
 351.562 664.062 l 5
 351.562 683.594 l 5
 371.094 683.594 l 5
 371.094 664.062 l 5
371.094 703.125 m 5
 351.562 703.125 l 5
 351.562 722.656 l 5
 371.094 722.656 l 5
 371.094 703.125 l 5
371.094 742.188 m 5
 351.562 742.188 l 5
 351.562 761.719 l 5
 371.094 761.719 l 5
 371.094 742.188 l 5
371.094 781.25 m 5
 351.562 781.25 l 5
 351.562 800.781 l 5
 371.094 800.781 l 5
 371.094 781.25 l 5
371.094 820.312 m 5
 351.562 820.312 l 5
 351.562 839.844 l 5
 371.094 839.844 l 5
 371.094 820.312 l 5
371.094 859.375 m 5
 351.562 859.375 l 5
 351.562 878.906 l 5
 371.094 878.906 l 5
 371.094 859.375 l 5
371.094 898.438 m 5
 351.562 898.438 l 5
 351.562 917.969 l 5
 371.094 917.969 l 5
 371.094 898.438 l 5
410.156 664.062 m 5
 390.625 664.062 l 5
 390.625 683.594 l 5
 410.156 683.594 l 5
 410.156 664.062 l 5
410.156 703.125 m 5
 390.625 703.125 l 5
 390.625 722.656 l 5
 410.156 722.656 l 5
 410.156 703.125 l 5
410.156 742.188 m 5
 390.625 742.188 l 5
 390.625 761.719 l 5
 410.156 761.719 l 5
 410.156 742.188 l 5
410.156 781.25 m 5
 390.625 781.25 l 5
 390.625 800.781 l 5
 410.156 800.781 l 5
 410.156 781.25 l 5
410.156 820.312 m 5
 390.625 820.312 l 5
 390.625 839.844 l 5
 410.156 839.844 l 5
 410.156 820.312 l 5
410.156 859.375 m 5
 390.625 859.375 l 5
 390.625 878.906 l 5
 410.156 878.906 l 5
 410.156 859.375 l 5
410.156 898.438 m 5
 390.625 898.438 l 5
 390.625 917.969 l 5
 410.156 917.969 l 5
 410.156 898.438 l 5
449.219 664.062 m 5
 429.688 664.062 l 5
 429.688 683.594 l 5
 449.219 683.594 l 5
 449.219 664.062 l 5
449.219 703.125 m 5
 429.688 703.125 l 5
 429.688 722.656 l 5
 449.219 722.656 l 5
 449.219 703.125 l 5
449.219 742.188 m 5
 429.688 742.188 l 5
 429.688 761.719 l 5
 449.219 761.719 l 5
 449.219 742.188 l 5
449.219 781.25 m 5
 429.688 781.25 l 5
 429.688 800.781 l 5
 449.219 800.781 l 5
 449.219 781.25 l 5
449.219 820.312 m 5
 429.688 820.312 l 5
 429.688 839.844 l 5
 449.219 839.844 l 5
 449.219 820.312 l 5
449.219 859.375 m 5
 429.688 859.375 l 5
 429.688 878.906 l 5
 449.219 878.906 l 5
 449.219 859.375 l 5
449.219 898.438 m 5
 429.688 898.438 l 5
 429.688 917.969 l 5
 449.219 917.969 l 5
 449.219 898.438 l 5
488.281 996.094 m 5
 488.281 976.562 l 5
 468.75 976.562 l 5
 468.75 996.094 l 5
 488.281 996.094 l 5
527.344 976.562 m 5
 507.812 976.562 l 5
 507.812 996.094 l 5
 527.344 996.094 l 5
 527.344 976.562 l 5
566.406 976.562 m 5
 546.875 976.562 l 5
 546.875 996.094 l 5
 566.406 996.094 l 5
 566.406 976.562 l 5
605.469 976.562 m 5
 585.938 976.562 l 5
 585.938 996.094 l 5
 605.469 996.094 l 5
 605.469 976.562 l 5
371.094 976.562 m 5
 351.562 976.562 l 5
 351.562 996.094 l 5
 371.094 996.094 l 5
 371.094 976.562 l 5
410.156 976.562 m 5
 390.625 976.562 l 5
 390.625 996.094 l 5
 410.156 996.094 l 5
 410.156 976.562 l 5
449.219 976.562 m 5
 429.688 976.562 l 5
 429.688 996.094 l 5
 449.219 996.094 l 5
 449.219 976.562 l 5
800.781 683.594 m 5
 800.781 664.062 l 5
 781.25 664.062 l 5
 781.25 683.594 l 5
 800.781 683.594 l 5
800.781 722.656 m 5
 800.781 703.125 l 5
 781.25 703.125 l 5
 781.25 722.656 l 5
 800.781 722.656 l 5
800.781 761.719 m 5
 800.781 742.188 l 5
 781.25 742.188 l 5
 781.25 761.719 l 5
 800.781 761.719 l 5
800.781 800.781 m 5
 800.781 781.25 l 5
 781.25 781.25 l 5
 781.25 800.781 l 5
 800.781 800.781 l 5
800.781 839.844 m 5
 800.781 820.312 l 5
 781.25 820.312 l 5
 781.25 839.844 l 5
 800.781 839.844 l 5
800.781 878.906 m 5
 800.781 859.375 l 5
 781.25 859.375 l 5
 781.25 878.906 l 5
 800.781 878.906 l 5
800.781 917.969 m 5
 800.781 898.438 l 5
 781.25 898.438 l 5
 781.25 917.969 l 5
 800.781 917.969 l 5
839.844 664.062 m 5
 820.312 664.062 l 5
 820.312 683.594 l 5
 839.844 683.594 l 5
 839.844 664.062 l 5
839.844 703.125 m 5
 820.312 703.125 l 5
 820.312 722.656 l 5
 839.844 722.656 l 5
 839.844 703.125 l 5
839.844 742.188 m 5
 820.312 742.188 l 5
 820.312 761.719 l 5
 839.844 761.719 l 5
 839.844 742.188 l 5
839.844 781.25 m 5
 820.312 781.25 l 5
 820.312 800.781 l 5
 839.844 800.781 l 5
 839.844 781.25 l 5
839.844 820.312 m 5
 820.312 820.312 l 5
 820.312 839.844 l 5
 839.844 839.844 l 5
 839.844 820.312 l 5
839.844 859.375 m 5
 820.312 859.375 l 5
 820.312 878.906 l 5
 839.844 878.906 l 5
 839.844 859.375 l 5
839.844 898.438 m 5
 820.312 898.438 l 5
 820.312 917.969 l 5
 839.844 917.969 l 5
 839.844 898.438 l 5
878.906 664.062 m 5
 859.375 664.062 l 5
 859.375 683.594 l 5
 878.906 683.594 l 5
 878.906 664.062 l 5
878.906 703.125 m 5
 859.375 703.125 l 5
 859.375 722.656 l 5
 878.906 722.656 l 5
 878.906 703.125 l 5
878.906 742.188 m 5
 859.375 742.188 l 5
 859.375 761.719 l 5
 878.906 761.719 l 5
 878.906 742.188 l 5
878.906 781.25 m 5
 859.375 781.25 l 5
 859.375 800.781 l 5
 878.906 800.781 l 5
 878.906 781.25 l 5
878.906 820.312 m 5
 859.375 820.312 l 5
 859.375 839.844 l 5
 878.906 839.844 l 5
 878.906 820.312 l 5
878.906 859.375 m 5
 859.375 859.375 l 5
 859.375 878.906 l 5
 878.906 878.906 l 5
 878.906 859.375 l 5
878.906 898.438 m 5
 859.375 898.438 l 5
 859.375 917.969 l 5
 878.906 917.969 l 5
 878.906 898.438 l 5
917.969 664.062 m 5
 898.438 664.062 l 5
 898.438 683.594 l 5
 917.969 683.594 l 5
 917.969 664.062 l 5
917.969 703.125 m 5
 898.438 703.125 l 5
 898.438 722.656 l 5
 917.969 722.656 l 5
 917.969 703.125 l 5
917.969 742.188 m 5
 898.438 742.188 l 5
 898.438 761.719 l 5
 917.969 761.719 l 5
 917.969 742.188 l 5
917.969 781.25 m 5
 898.438 781.25 l 5
 898.438 800.781 l 5
 917.969 800.781 l 5
 917.969 781.25 l 5
917.969 820.312 m 5
 898.438 820.312 l 5
 898.438 839.844 l 5
 917.969 839.844 l 5
 917.969 820.312 l 5
917.969 859.375 m 5
 898.438 859.375 l 5
 898.438 878.906 l 5
 917.969 878.906 l 5
 917.969 859.375 l 5
917.969 898.438 m 5
 898.438 898.438 l 5
 898.438 917.969 l 5
 917.969 917.969 l 5
 917.969 898.438 l 5
683.594 664.062 m 5
 664.062 664.062 l 5
 664.062 683.594 l 5
 683.594 683.594 l 5
 683.594 664.062 l 5
683.594 703.125 m 5
 664.062 703.125 l 5
 664.062 722.656 l 5
 683.594 722.656 l 5
 683.594 703.125 l 5
683.594 742.188 m 5
 664.062 742.188 l 5
 664.062 761.719 l 5
 683.594 761.719 l 5
 683.594 742.188 l 5
683.594 781.25 m 5
 664.062 781.25 l 5
 664.062 800.781 l 5
 683.594 800.781 l 5
 683.594 781.25 l 5
683.594 820.312 m 5
 664.062 820.312 l 5
 664.062 839.844 l 5
 683.594 839.844 l 5
 683.594 820.312 l 5
683.594 859.375 m 5
 664.062 859.375 l 5
 664.062 878.906 l 5
 683.594 878.906 l 5
 683.594 859.375 l 5
683.594 898.438 m 5
 664.062 898.438 l 5
 664.062 917.969 l 5
 683.594 917.969 l 5
 683.594 898.438 l 5
722.656 664.062 m 5
 703.125 664.062 l 5
 703.125 683.594 l 5
 722.656 683.594 l 5
 722.656 664.062 l 5
722.656 703.125 m 5
 703.125 703.125 l 5
 703.125 722.656 l 5
 722.656 722.656 l 5
 722.656 703.125 l 5
722.656 742.188 m 5
 703.125 742.188 l 5
 703.125 761.719 l 5
 722.656 761.719 l 5
 722.656 742.188 l 5
722.656 781.25 m 5
 703.125 781.25 l 5
 703.125 800.781 l 5
 722.656 800.781 l 5
 722.656 781.25 l 5
722.656 820.312 m 5
 703.125 820.312 l 5
 703.125 839.844 l 5
 722.656 839.844 l 5
 722.656 820.312 l 5
722.656 859.375 m 5
 703.125 859.375 l 5
 703.125 878.906 l 5
 722.656 878.906 l 5
 722.656 859.375 l 5
722.656 898.438 m 5
 703.125 898.438 l 5
 703.125 917.969 l 5
 722.656 917.969 l 5
 722.656 898.438 l 5
761.719 664.062 m 5
 742.188 664.062 l 5
 742.188 683.594 l 5
 761.719 683.594 l 5
 761.719 664.062 l 5
761.719 703.125 m 5
 742.188 703.125 l 5
 742.188 722.656 l 5
 761.719 722.656 l 5
 761.719 703.125 l 5
761.719 742.188 m 5
 742.188 742.188 l 5
 742.188 761.719 l 5
 761.719 761.719 l 5
 761.719 742.188 l 5
761.719 781.25 m 5
 742.188 781.25 l 5
 742.188 800.781 l 5
 761.719 800.781 l 5
 761.719 781.25 l 5
761.719 820.312 m 5
 742.188 820.312 l 5
 742.188 839.844 l 5
 761.719 839.844 l 5
 761.719 820.312 l 5
761.719 859.375 m 5
 742.188 859.375 l 5
 742.188 878.906 l 5
 761.719 878.906 l 5
 761.719 859.375 l 5
761.719 898.438 m 5
 742.188 898.438 l 5
 742.188 917.969 l 5
 761.719 917.969 l 5
 761.719 898.438 l 5
800.781 996.094 m 5
 800.781 976.562 l 5
 781.25 976.562 l 5
 781.25 996.094 l 5
 800.781 996.094 l 5
839.844 976.562 m 5
 820.312 976.562 l 5
 820.312 996.094 l 5
 839.844 996.094 l 5
 839.844 976.562 l 5
878.906 976.562 m 5
 859.375 976.562 l 5
 859.375 996.094 l 5
 878.906 996.094 l 5
 878.906 976.562 l 5
917.969 976.562 m 5
 898.438 976.562 l 5
 898.438 996.094 l 5
 917.969 996.094 l 5
 917.969 976.562 l 5
683.594 976.562 m 5
 664.062 976.562 l 5
 664.062 996.094 l 5
 683.594 996.094 l 5
 683.594 976.562 l 5
722.656 976.562 m 5
 703.125 976.562 l 5
 703.125 996.094 l 5
 722.656 996.094 l 5
 722.656 976.562 l 5
761.719 976.562 m 5
 742.188 976.562 l 5
 742.188 996.094 l 5
 761.719 996.094 l 5
 761.719 976.562 l 5
1113.28 683.594 m 5
 1113.28 664.062 l 5
 1093.75 664.062 l 5
 1093.75 683.594 l 5
 1113.28 683.594 l 5
1113.28 722.656 m 5
 1113.28 703.125 l 5
 1093.75 703.125 l 5
 1093.75 722.656 l 5
 1113.28 722.656 l 5
1113.28 761.719 m 5
 1113.28 742.188 l 5
 1093.75 742.188 l 5
 1093.75 761.719 l 5
 1113.28 761.719 l 5
1113.28 800.781 m 5
 1113.28 781.25 l 5
 1093.75 781.25 l 5
 1093.75 800.781 l 5
 1113.28 800.781 l 5
1113.28 839.844 m 5
 1113.28 820.312 l 5
 1093.75 820.312 l 5
 1093.75 839.844 l 5
 1113.28 839.844 l 5
1113.28 878.906 m 5
 1113.28 859.375 l 5
 1093.75 859.375 l 5
 1093.75 878.906 l 5
 1113.28 878.906 l 5
1113.28 917.969 m 5
 1113.28 898.438 l 5
 1093.75 898.438 l 5
 1093.75 917.969 l 5
 1113.28 917.969 l 5
1152.34 664.062 m 5
 1132.81 664.062 l 5
 1132.81 683.594 l 5
 1152.34 683.594 l 5
 1152.34 664.062 l 5
1152.34 703.125 m 5
 1132.81 703.125 l 5
 1132.81 722.656 l 5
 1152.34 722.656 l 5
 1152.34 703.125 l 5
1152.34 742.188 m 5
 1132.81 742.188 l 5
 1132.81 761.719 l 5
 1152.34 761.719 l 5
 1152.34 742.188 l 5
1152.34 781.25 m 5
 1132.81 781.25 l 5
 1132.81 800.781 l 5
 1152.34 800.781 l 5
 1152.34 781.25 l 5
1152.34 820.312 m 5
 1132.81 820.312 l 5
 1132.81 839.844 l 5
 1152.34 839.844 l 5
 1152.34 820.312 l 5
1152.34 859.375 m 5
 1132.81 859.375 l 5
 1132.81 878.906 l 5
 1152.34 878.906 l 5
 1152.34 859.375 l 5
1152.34 898.438 m 5
 1132.81 898.438 l 5
 1132.81 917.969 l 5
 1152.34 917.969 l 5
 1152.34 898.438 l 5
1191.41 664.062 m 5
 1171.88 664.062 l 5
 1171.88 683.594 l 5
 1191.41 683.594 l 5
 1191.41 664.062 l 5
1191.41 703.125 m 5
 1171.88 703.125 l 5
 1171.88 722.656 l 5
 1191.41 722.656 l 5
 1191.41 703.125 l 5
1191.41 742.188 m 5
 1171.88 742.188 l 5
 1171.88 761.719 l 5
 1191.41 761.719 l 5
 1191.41 742.188 l 5
1191.41 781.25 m 5
 1171.88 781.25 l 5
 1171.88 800.781 l 5
 1191.41 800.781 l 5
 1191.41 781.25 l 5
1191.41 820.312 m 5
 1171.88 820.312 l 5
 1171.88 839.844 l 5
 1191.41 839.844 l 5
 1191.41 820.312 l 5
1191.41 859.375 m 5
 1171.88 859.375 l 5
 1171.88 878.906 l 5
 1191.41 878.906 l 5
 1191.41 859.375 l 5
1191.41 898.438 m 5
 1171.88 898.438 l 5
 1171.88 917.969 l 5
 1191.41 917.969 l 5
 1191.41 898.438 l 5
1230.47 664.062 m 5
 1210.94 664.062 l 5
 1210.94 683.594 l 5
 1230.47 683.594 l 5
 1230.47 664.062 l 5
1230.47 703.125 m 5
 1210.94 703.125 l 5
 1210.94 722.656 l 5
 1230.47 722.656 l 5
 1230.47 703.125 l 5
1230.47 742.188 m 5
 1210.94 742.188 l 5
 1210.94 761.719 l 5
 1230.47 761.719 l 5
 1230.47 742.188 l 5
1230.47 781.25 m 5
 1210.94 781.25 l 5
 1210.94 800.781 l 5
 1230.47 800.781 l 5
 1230.47 781.25 l 5
1230.47 820.312 m 5
 1210.94 820.312 l 5
 1210.94 839.844 l 5
 1230.47 839.844 l 5
 1230.47 820.312 l 5
1230.47 859.375 m 5
 1210.94 859.375 l 5
 1210.94 878.906 l 5
 1230.47 878.906 l 5
 1230.47 859.375 l 5
1230.47 898.438 m 5
 1210.94 898.438 l 5
 1210.94 917.969 l 5
 1230.47 917.969 l 5
 1230.47 898.438 l 5
1269.53 664.062 m 5
 1250 664.062 l 5
 1250 683.594 l 5
 1269.53 683.594 l 5
 1269.53 664.062 l 5
1269.53 703.125 m 5
 1250 703.125 l 5
 1250 722.656 l 5
 1269.53 722.656 l 5
 1269.53 703.125 l 5
1269.53 742.188 m 5
 1250 742.188 l 5
 1250 761.719 l 5
 1269.53 761.719 l 5
 1269.53 742.188 l 5
1269.53 781.25 m 5
 1250 781.25 l 5
 1250 800.781 l 5
 1269.53 800.781 l 5
 1269.53 781.25 l 5
1269.53 820.312 m 5
 1250 820.312 l 5
 1250 839.844 l 5
 1269.53 839.844 l 5
 1269.53 820.312 l 5
1269.53 859.375 m 5
 1250 859.375 l 5
 1250 878.906 l 5
 1269.53 878.906 l 5
 1269.53 859.375 l 5
1269.53 898.438 m 5
 1250 898.438 l 5
 1250 917.969 l 5
 1269.53 917.969 l 5
 1269.53 898.438 l 5
996.094 664.062 m 5
 976.562 664.062 l 5
 976.562 683.594 l 5
 996.094 683.594 l 5
 996.094 664.062 l 5
996.094 703.125 m 5
 976.562 703.125 l 5
 976.562 722.656 l 5
 996.094 722.656 l 5
 996.094 703.125 l 5
996.094 742.188 m 5
 976.562 742.188 l 5
 976.562 761.719 l 5
 996.094 761.719 l 5
 996.094 742.188 l 5
996.094 781.25 m 5
 976.562 781.25 l 5
 976.562 800.781 l 5
 996.094 800.781 l 5
 996.094 781.25 l 5
996.094 820.312 m 5
 976.562 820.312 l 5
 976.562 839.844 l 5
 996.094 839.844 l 5
 996.094 820.312 l 5
996.094 859.375 m 5
 976.562 859.375 l 5
 976.562 878.906 l 5
 996.094 878.906 l 5
 996.094 859.375 l 5
996.094 898.438 m 5
 976.562 898.438 l 5
 976.562 917.969 l 5
 996.094 917.969 l 5
 996.094 898.438 l 5
1035.16 664.062 m 5
 1015.62 664.062 l 5
 1015.62 683.594 l 5
 1035.16 683.594 l 5
 1035.16 664.062 l 5
1035.16 703.125 m 5
 1015.62 703.125 l 5
 1015.62 722.656 l 5
 1035.16 722.656 l 5
 1035.16 703.125 l 5
1035.16 742.188 m 5
 1015.62 742.188 l 5
 1015.62 761.719 l 5
 1035.16 761.719 l 5
 1035.16 742.188 l 5
1035.16 781.25 m 5
 1015.62 781.25 l 5
 1015.62 800.781 l 5
 1035.16 800.781 l 5
 1035.16 781.25 l 5
1035.16 820.312 m 5
 1015.62 820.312 l 5
 1015.62 839.844 l 5
 1035.16 839.844 l 5
 1035.16 820.312 l 5
1035.16 859.375 m 5
 1015.62 859.375 l 5
 1015.62 878.906 l 5
 1035.16 878.906 l 5
 1035.16 859.375 l 5
1035.16 898.438 m 5
 1015.62 898.438 l 5
 1015.62 917.969 l 5
 1035.16 917.969 l 5
 1035.16 898.438 l 5
1074.22 664.062 m 5
 1054.69 664.062 l 5
 1054.69 683.594 l 5
 1074.22 683.594 l 5
 1074.22 664.062 l 5
1074.22 703.125 m 5
 1054.69 703.125 l 5
 1054.69 722.656 l 5
 1074.22 722.656 l 5
 1074.22 703.125 l 5
1074.22 742.188 m 5
 1054.69 742.188 l 5
 1054.69 761.719 l 5
 1074.22 761.719 l 5
 1074.22 742.188 l 5
1074.22 781.25 m 5
 1054.69 781.25 l 5
 1054.69 800.781 l 5
 1074.22 800.781 l 5
 1074.22 781.25 l 5
1074.22 820.312 m 5
 1054.69 820.312 l 5
 1054.69 839.844 l 5
 1074.22 839.844 l 5
 1074.22 820.312 l 5
1074.22 859.375 m 5
 1054.69 859.375 l 5
 1054.69 878.906 l 5
 1074.22 878.906 l 5
 1074.22 859.375 l 5
1074.22 898.438 m 5
 1054.69 898.438 l 5
 1054.69 917.969 l 5
 1074.22 917.969 l 5
 1074.22 898.438 l 5
1113.28 996.094 m 5
 1113.28 976.562 l 5
 1093.75 976.562 l 5
 1093.75 996.094 l 5
 1113.28 996.094 l 5
1152.34 976.562 m 5
 1132.81 976.562 l 5
 1132.81 996.094 l 5
 1152.34 996.094 l 5
 1152.34 976.562 l 5
1191.41 976.562 m 5
 1171.88 976.562 l 5
 1171.88 996.094 l 5
 1191.41 996.094 l 5
 1191.41 976.562 l 5
1230.47 976.562 m 5
 1210.94 976.562 l 5
 1210.94 996.094 l 5
 1230.47 996.094 l 5
 1230.47 976.562 l 5
1269.53 976.562 m 5
 1250 976.562 l 5
 1250 996.094 l 5
 1269.53 996.094 l 5
 1269.53 976.562 l 5
996.094 976.562 m 5
 976.562 976.562 l 5
 976.562 996.094 l 5
 996.094 996.094 l 5
 996.094 976.562 l 5
1035.16 976.562 m 5
 1015.62 976.562 l 5
 1015.62 996.094 l 5
 1035.16 996.094 l 5
 1035.16 976.562 l 5
1074.22 976.562 m 5
 1054.69 976.562 l 5
 1054.69 996.094 l 5
 1074.22 996.094 l 5
 1074.22 976.562 l 5
175.781 -292.969 m 5
 175.781 -312.5 l 5
 156.25 -312.5 l 5
 156.25 -292.969 l 5
 175.781 -292.969 l 5
175.781 -253.906 m 5
 175.781 -273.438 l 5
 156.25 -273.438 l 5
 156.25 -253.906 l 5
 175.781 -253.906 l 5
175.781 -214.844 m 5
 175.781 -234.375 l 5
 156.25 -234.375 l 5
 156.25 -214.844 l 5
 175.781 -214.844 l 5
175.781 -175.781 m 5
 175.781 -195.312 l 5
 156.25 -195.312 l 5
 156.25 -175.781 l 5
 175.781 -175.781 l 5
175.781 -136.719 m 5
 175.781 -156.25 l 5
 156.25 -156.25 l 5
 156.25 -136.719 l 5
 175.781 -136.719 l 5
175.781 -97.6562 m 5
 175.781 -117.188 l 5
 156.25 -117.188 l 5
 156.25 -97.6562 l 5
 175.781 -97.6562 l 5
175.781 -58.5938 m 5
 175.781 -78.125 l 5
 156.25 -78.125 l 5
 156.25 -58.5938 l 5
 175.781 -58.5938 l 5
214.844 -312.5 m 5
 195.312 -312.5 l 5
 195.312 -292.969 l 5
 214.844 -292.969 l 5
 214.844 -312.5 l 5
214.844 -273.438 m 5
 195.312 -273.438 l 5
 195.312 -253.906 l 5
 214.844 -253.906 l 5
 214.844 -273.438 l 5
214.844 -234.375 m 5
 195.312 -234.375 l 5
 195.312 -214.844 l 5
 214.844 -214.844 l 5
 214.844 -234.375 l 5
214.844 -195.312 m 5
 195.312 -195.312 l 5
 195.312 -175.781 l 5
 214.844 -175.781 l 5
 214.844 -195.312 l 5
214.844 -156.25 m 5
 195.312 -156.25 l 5
 195.312 -136.719 l 5
 214.844 -136.719 l 5
 214.844 -156.25 l 5
214.844 -117.188 m 5
 195.312 -117.188 l 5
 195.312 -97.6562 l 5
 214.844 -97.6562 l 5
 214.844 -117.188 l 5
214.844 -78.125 m 5
 195.312 -78.125 l 5
 195.312 -58.5938 l 5
 214.844 -58.5938 l 5
 214.844 -78.125 l 5
253.906 -312.5 m 5
 234.375 -312.5 l 5
 234.375 -292.969 l 5
 253.906 -292.969 l 5
 253.906 -312.5 l 5
253.906 -273.438 m 5
 234.375 -273.438 l 5
 234.375 -253.906 l 5
 253.906 -253.906 l 5
 253.906 -273.438 l 5
253.906 -234.375 m 5
 234.375 -234.375 l 5
 234.375 -214.844 l 5
 253.906 -214.844 l 5
 253.906 -234.375 l 5
253.906 -195.312 m 5
 234.375 -195.312 l 5
 234.375 -175.781 l 5
 253.906 -175.781 l 5
 253.906 -195.312 l 5
253.906 -156.25 m 5
 234.375 -156.25 l 5
 234.375 -136.719 l 5
 253.906 -136.719 l 5
 253.906 -156.25 l 5
253.906 -117.188 m 5
 234.375 -117.188 l 5
 234.375 -97.6562 l 5
 253.906 -97.6562 l 5
 253.906 -117.188 l 5
253.906 -78.125 m 5
 234.375 -78.125 l 5
 234.375 -58.5938 l 5
 253.906 -58.5938 l 5
 253.906 -78.125 l 5
292.969 -312.5 m 5
 273.438 -312.5 l 5
 273.438 -292.969 l 5
 292.969 -292.969 l 5
 292.969 -312.5 l 5
292.969 -273.438 m 5
 273.438 -273.438 l 5
 273.438 -253.906 l 5
 292.969 -253.906 l 5
 292.969 -273.438 l 5
292.969 -234.375 m 5
 273.438 -234.375 l 5
 273.438 -214.844 l 5
 292.969 -214.844 l 5
 292.969 -234.375 l 5
292.969 -195.312 m 5
 273.438 -195.312 l 5
 273.438 -175.781 l 5
 292.969 -175.781 l 5
 292.969 -195.312 l 5
292.969 -156.25 m 5
 273.438 -156.25 l 5
 273.438 -136.719 l 5
 292.969 -136.719 l 5
 292.969 -156.25 l 5
292.969 -117.188 m 5
 273.438 -117.188 l 5
 273.438 -97.6562 l 5
 292.969 -97.6562 l 5
 292.969 -117.188 l 5
292.969 -78.125 m 5
 273.438 -78.125 l 5
 273.438 -58.5938 l 5
 292.969 -58.5938 l 5
 292.969 -78.125 l 5
19.5312 -312.5 m 5
 0 -312.5 l 5
 0 -292.969 l 5
 19.5312 -292.969 l 5
 19.5312 -312.5 l 5
19.5312 -273.438 m 5
 0 -273.438 l 5
 0 -253.906 l 5
 19.5312 -253.906 l 5
 19.5312 -273.438 l 5
19.5312 -234.375 m 5
 0 -234.375 l 5
 0 -214.844 l 5
 19.5312 -214.844 l 5
 19.5312 -234.375 l 5
19.5312 -195.312 m 5
 0 -195.312 l 5
 0 -175.781 l 5
 19.5312 -175.781 l 5
 19.5312 -195.312 l 5
19.5312 -156.25 m 5
 0 -156.25 l 5
 0 -136.719 l 5
 19.5312 -136.719 l 5
 19.5312 -156.25 l 5
19.5312 -117.188 m 5
 0 -117.188 l 5
 0 -97.6562 l 5
 19.5312 -97.6562 l 5
 19.5312 -117.188 l 5
19.5312 -78.125 m 5
 0 -78.125 l 5
 0 -58.5938 l 5
 19.5312 -58.5938 l 5
 19.5312 -78.125 l 5
58.5938 -312.5 m 5
 39.0625 -312.5 l 5
 39.0625 -292.969 l 5
 58.5938 -292.969 l 5
 58.5938 -312.5 l 5
58.5938 -273.438 m 5
 39.0625 -273.438 l 5
 39.0625 -253.906 l 5
 58.5938 -253.906 l 5
 58.5938 -273.438 l 5
58.5938 -234.375 m 5
 39.0625 -234.375 l 5
 39.0625 -214.844 l 5
 58.5938 -214.844 l 5
 58.5938 -234.375 l 5
58.5938 -195.312 m 5
 39.0625 -195.312 l 5
 39.0625 -175.781 l 5
 58.5938 -175.781 l 5
 58.5938 -195.312 l 5
58.5938 -156.25 m 5
 39.0625 -156.25 l 5
 39.0625 -136.719 l 5
 58.5938 -136.719 l 5
 58.5938 -156.25 l 5
58.5938 -117.188 m 5
 39.0625 -117.188 l 5
 39.0625 -97.6562 l 5
 58.5938 -97.6562 l 5
 58.5938 -117.188 l 5
58.5938 -78.125 m 5
 39.0625 -78.125 l 5
 39.0625 -58.5938 l 5
 58.5938 -58.5938 l 5
 58.5938 -78.125 l 5
97.6562 -312.5 m 5
 78.125 -312.5 l 5
 78.125 -292.969 l 5
 97.6562 -292.969 l 5
 97.6562 -312.5 l 5
97.6562 -273.438 m 5
 78.125 -273.438 l 5
 78.125 -253.906 l 5
 97.6562 -253.906 l 5
 97.6562 -273.438 l 5
97.6562 -234.375 m 5
 78.125 -234.375 l 5
 78.125 -214.844 l 5
 97.6562 -214.844 l 5
 97.6562 -234.375 l 5
97.6562 -195.312 m 5
 78.125 -195.312 l 5
 78.125 -175.781 l 5
 97.6562 -175.781 l 5
 97.6562 -195.312 l 5
97.6562 -156.25 m 5
 78.125 -156.25 l 5
 78.125 -136.719 l 5
 97.6562 -136.719 l 5
 97.6562 -156.25 l 5
97.6562 -117.188 m 5
 78.125 -117.188 l 5
 78.125 -97.6562 l 5
 97.6562 -97.6562 l 5
 97.6562 -117.188 l 5
97.6562 -78.125 m 5
 78.125 -78.125 l 5
 78.125 -58.5938 l 5
 97.6562 -58.5938 l 5
 97.6562 -78.125 l 5
136.719 -312.5 m 5
 117.188 -312.5 l 5
 117.188 -292.969 l 5
 136.719 -292.969 l 5
 136.719 -312.5 l 5
136.719 -273.438 m 5
 117.188 -273.438 l 5
 117.188 -253.906 l 5
 136.719 -253.906 l 5
 136.719 -273.438 l 5
136.719 -234.375 m 5
 117.188 -234.375 l 5
 117.188 -214.844 l 5
 136.719 -214.844 l 5
 136.719 -234.375 l 5
136.719 -195.312 m 5
 117.188 -195.312 l 5
 117.188 -175.781 l 5
 136.719 -175.781 l 5
 136.719 -195.312 l 5
136.719 -156.25 m 5
 117.188 -156.25 l 5
 117.188 -136.719 l 5
 136.719 -136.719 l 5
 136.719 -156.25 l 5
136.719 -117.188 m 5
 117.188 -117.188 l 5
 117.188 -97.6562 l 5
 136.719 -97.6562 l 5
 136.719 -117.188 l 5
136.719 -78.125 m 5
 117.188 -78.125 l 5
 117.188 -58.5938 l 5
 136.719 -58.5938 l 5
 136.719 -78.125 l 5
488.281 -292.969 m 5
 488.281 -312.5 l 5
 468.75 -312.5 l 5
 468.75 -292.969 l 5
 488.281 -292.969 l 5
488.281 -253.906 m 5
 488.281 -273.438 l 5
 468.75 -273.438 l 5
 468.75 -253.906 l 5
 488.281 -253.906 l 5
488.281 -214.844 m 5
 488.281 -234.375 l 5
 468.75 -234.375 l 5
 468.75 -214.844 l 5
 488.281 -214.844 l 5
488.281 -175.781 m 5
 488.281 -195.312 l 5
 468.75 -195.312 l 5
 468.75 -175.781 l 5
 488.281 -175.781 l 5
488.281 -136.719 m 5
 488.281 -156.25 l 5
 468.75 -156.25 l 5
 468.75 -136.719 l 5
 488.281 -136.719 l 5
488.281 -97.6562 m 5
 488.281 -117.188 l 5
 468.75 -117.188 l 5
 468.75 -97.6562 l 5
 488.281 -97.6562 l 5
488.281 -58.5938 m 5
 488.281 -78.125 l 5
 468.75 -78.125 l 5
 468.75 -58.5938 l 5
 488.281 -58.5938 l 5
527.344 -312.5 m 5
 507.812 -312.5 l 5
 507.812 -292.969 l 5
 527.344 -292.969 l 5
 527.344 -312.5 l 5
527.344 -273.438 m 5
 507.812 -273.438 l 5
 507.812 -253.906 l 5
 527.344 -253.906 l 5
 527.344 -273.438 l 5
527.344 -234.375 m 5
 507.812 -234.375 l 5
 507.812 -214.844 l 5
 527.344 -214.844 l 5
 527.344 -234.375 l 5
527.344 -195.312 m 5
 507.812 -195.312 l 5
 507.812 -175.781 l 5
 527.344 -175.781 l 5
 527.344 -195.312 l 5
527.344 -156.25 m 5
 507.812 -156.25 l 5
 507.812 -136.719 l 5
 527.344 -136.719 l 5
 527.344 -156.25 l 5
527.344 -117.188 m 5
 507.812 -117.188 l 5
 507.812 -97.6562 l 5
 527.344 -97.6562 l 5
 527.344 -117.188 l 5
527.344 -78.125 m 5
 507.812 -78.125 l 5
 507.812 -58.5938 l 5
 527.344 -58.5938 l 5
 527.344 -78.125 l 5
566.406 -312.5 m 5
 546.875 -312.5 l 5
 546.875 -292.969 l 5
 566.406 -292.969 l 5
 566.406 -312.5 l 5
566.406 -273.438 m 5
 546.875 -273.438 l 5
 546.875 -253.906 l 5
 566.406 -253.906 l 5
 566.406 -273.438 l 5
566.406 -234.375 m 5
 546.875 -234.375 l 5
 546.875 -214.844 l 5
 566.406 -214.844 l 5
 566.406 -234.375 l 5
566.406 -195.312 m 5
 546.875 -195.312 l 5
 546.875 -175.781 l 5
 566.406 -175.781 l 5
 566.406 -195.312 l 5
566.406 -156.25 m 5
 546.875 -156.25 l 5
 546.875 -136.719 l 5
 566.406 -136.719 l 5
 566.406 -156.25 l 5
566.406 -117.188 m 5
 546.875 -117.188 l 5
 546.875 -97.6562 l 5
 566.406 -97.6562 l 5
 566.406 -117.188 l 5
566.406 -78.125 m 5
 546.875 -78.125 l 5
 546.875 -58.5938 l 5
 566.406 -58.5938 l 5
 566.406 -78.125 l 5
605.469 -312.5 m 5
 585.938 -312.5 l 5
 585.938 -292.969 l 5
 605.469 -292.969 l 5
 605.469 -312.5 l 5
605.469 -273.438 m 5
 585.938 -273.438 l 5
 585.938 -253.906 l 5
 605.469 -253.906 l 5
 605.469 -273.438 l 5
605.469 -234.375 m 5
 585.938 -234.375 l 5
 585.938 -214.844 l 5
 605.469 -214.844 l 5
 605.469 -234.375 l 5
605.469 -195.312 m 5
 585.938 -195.312 l 5
 585.938 -175.781 l 5
 605.469 -175.781 l 5
 605.469 -195.312 l 5
605.469 -156.25 m 5
 585.938 -156.25 l 5
 585.938 -136.719 l 5
 605.469 -136.719 l 5
 605.469 -156.25 l 5
605.469 -117.188 m 5
 585.938 -117.188 l 5
 585.938 -97.6562 l 5
 605.469 -97.6562 l 5
 605.469 -117.188 l 5
605.469 -78.125 m 5
 585.938 -78.125 l 5
 585.938 -58.5938 l 5
 605.469 -58.5938 l 5
 605.469 -78.125 l 5
371.094 -312.5 m 5
 351.562 -312.5 l 5
 351.562 -292.969 l 5
 371.094 -292.969 l 5
 371.094 -312.5 l 5
371.094 -273.438 m 5
 351.562 -273.438 l 5
 351.562 -253.906 l 5
 371.094 -253.906 l 5
 371.094 -273.438 l 5
371.094 -234.375 m 5
 351.562 -234.375 l 5
 351.562 -214.844 l 5
 371.094 -214.844 l 5
 371.094 -234.375 l 5
371.094 -195.312 m 5
 351.562 -195.312 l 5
 351.562 -175.781 l 5
 371.094 -175.781 l 5
 371.094 -195.312 l 5
371.094 -156.25 m 5
 351.562 -156.25 l 5
 351.562 -136.719 l 5
 371.094 -136.719 l 5
 371.094 -156.25 l 5
371.094 -117.188 m 5
 351.562 -117.188 l 5
 351.562 -97.6562 l 5
 371.094 -97.6562 l 5
 371.094 -117.188 l 5
371.094 -78.125 m 5
 351.562 -78.125 l 5
 351.562 -58.5938 l 5
 371.094 -58.5938 l 5
 371.094 -78.125 l 5
410.156 -312.5 m 5
 390.625 -312.5 l 5
 390.625 -292.969 l 5
 410.156 -292.969 l 5
 410.156 -312.5 l 5
410.156 -273.438 m 5
 390.625 -273.438 l 5
 390.625 -253.906 l 5
 410.156 -253.906 l 5
 410.156 -273.438 l 5
410.156 -234.375 m 5
 390.625 -234.375 l 5
 390.625 -214.844 l 5
 410.156 -214.844 l 5
 410.156 -234.375 l 5
410.156 -195.312 m 5
 390.625 -195.312 l 5
 390.625 -175.781 l 5
 410.156 -175.781 l 5
 410.156 -195.312 l 5
410.156 -156.25 m 5
 390.625 -156.25 l 5
 390.625 -136.719 l 5
 410.156 -136.719 l 5
 410.156 -156.25 l 5
410.156 -117.188 m 5
 390.625 -117.188 l 5
 390.625 -97.6562 l 5
 410.156 -97.6562 l 5
 410.156 -117.188 l 5
410.156 -78.125 m 5
 390.625 -78.125 l 5
 390.625 -58.5938 l 5
 410.156 -58.5938 l 5
 410.156 -78.125 l 5
449.219 -312.5 m 5
 429.688 -312.5 l 5
 429.688 -292.969 l 5
 449.219 -292.969 l 5
 449.219 -312.5 l 5
449.219 -273.438 m 5
 429.688 -273.438 l 5
 429.688 -253.906 l 5
 449.219 -253.906 l 5
 449.219 -273.438 l 5
449.219 -234.375 m 5
 429.688 -234.375 l 5
 429.688 -214.844 l 5
 449.219 -214.844 l 5
 449.219 -234.375 l 5
449.219 -195.312 m 5
 429.688 -195.312 l 5
 429.688 -175.781 l 5
 449.219 -175.781 l 5
 449.219 -195.312 l 5
449.219 -156.25 m 5
 429.688 -156.25 l 5
 429.688 -136.719 l 5
 449.219 -136.719 l 5
 449.219 -156.25 l 5
449.219 -117.188 m 5
 429.688 -117.188 l 5
 429.688 -97.6562 l 5
 449.219 -97.6562 l 5
 449.219 -117.188 l 5
449.219 -78.125 m 5
 429.688 -78.125 l 5
 429.688 -58.5938 l 5
 449.219 -58.5938 l 5
 449.219 -78.125 l 5
800.781 -292.969 m 5
 800.781 -312.5 l 5
 781.25 -312.5 l 5
 781.25 -292.969 l 5
 800.781 -292.969 l 5
800.781 -253.906 m 5
 800.781 -273.438 l 5
 781.25 -273.438 l 5
 781.25 -253.906 l 5
 800.781 -253.906 l 5
800.781 -214.844 m 5
 800.781 -234.375 l 5
 781.25 -234.375 l 5
 781.25 -214.844 l 5
 800.781 -214.844 l 5
800.781 -175.781 m 5
 800.781 -195.312 l 5
 781.25 -195.312 l 5
 781.25 -175.781 l 5
 800.781 -175.781 l 5
800.781 -136.719 m 5
 800.781 -156.25 l 5
 781.25 -156.25 l 5
 781.25 -136.719 l 5
 800.781 -136.719 l 5
800.781 -97.6562 m 5
 800.781 -117.188 l 5
 781.25 -117.188 l 5
 781.25 -97.6562 l 5
 800.781 -97.6562 l 5
800.781 -58.5938 m 5
 800.781 -78.125 l 5
 781.25 -78.125 l 5
 781.25 -58.5938 l 5
 800.781 -58.5938 l 5
839.844 -312.5 m 5
 820.312 -312.5 l 5
 820.312 -292.969 l 5
 839.844 -292.969 l 5
 839.844 -312.5 l 5
839.844 -273.438 m 5
 820.312 -273.438 l 5
 820.312 -253.906 l 5
 839.844 -253.906 l 5
 839.844 -273.438 l 5
839.844 -234.375 m 5
 820.312 -234.375 l 5
 820.312 -214.844 l 5
 839.844 -214.844 l 5
 839.844 -234.375 l 5
839.844 -195.312 m 5
 820.312 -195.312 l 5
 820.312 -175.781 l 5
 839.844 -175.781 l 5
 839.844 -195.312 l 5
839.844 -156.25 m 5
 820.312 -156.25 l 5
 820.312 -136.719 l 5
 839.844 -136.719 l 5
 839.844 -156.25 l 5
839.844 -117.188 m 5
 820.312 -117.188 l 5
 820.312 -97.6562 l 5
 839.844 -97.6562 l 5
 839.844 -117.188 l 5
839.844 -78.125 m 5
 820.312 -78.125 l 5
 820.312 -58.5938 l 5
 839.844 -58.5938 l 5
 839.844 -78.125 l 5
878.906 -312.5 m 5
 859.375 -312.5 l 5
 859.375 -292.969 l 5
 878.906 -292.969 l 5
 878.906 -312.5 l 5
878.906 -273.438 m 5
 859.375 -273.438 l 5
 859.375 -253.906 l 5
 878.906 -253.906 l 5
 878.906 -273.438 l 5
878.906 -234.375 m 5
 859.375 -234.375 l 5
 859.375 -214.844 l 5
 878.906 -214.844 l 5
 878.906 -234.375 l 5
878.906 -195.312 m 5
 859.375 -195.312 l 5
 859.375 -175.781 l 5
 878.906 -175.781 l 5
 878.906 -195.312 l 5
878.906 -156.25 m 5
 859.375 -156.25 l 5
 859.375 -136.719 l 5
 878.906 -136.719 l 5
 878.906 -156.25 l 5
878.906 -117.188 m 5
 859.375 -117.188 l 5
 859.375 -97.6562 l 5
 878.906 -97.6562 l 5
 878.906 -117.188 l 5
878.906 -78.125 m 5
 859.375 -78.125 l 5
 859.375 -58.5938 l 5
 878.906 -58.5938 l 5
 878.906 -78.125 l 5
917.969 -312.5 m 5
 898.438 -312.5 l 5
 898.438 -292.969 l 5
 917.969 -292.969 l 5
 917.969 -312.5 l 5
917.969 -273.438 m 5
 898.438 -273.438 l 5
 898.438 -253.906 l 5
 917.969 -253.906 l 5
 917.969 -273.438 l 5
917.969 -234.375 m 5
 898.438 -234.375 l 5
 898.438 -214.844 l 5
 917.969 -214.844 l 5
 917.969 -234.375 l 5
917.969 -195.312 m 5
 898.438 -195.312 l 5
 898.438 -175.781 l 5
 917.969 -175.781 l 5
 917.969 -195.312 l 5
917.969 -156.25 m 5
 898.438 -156.25 l 5
 898.438 -136.719 l 5
 917.969 -136.719 l 5
 917.969 -156.25 l 5
917.969 -117.188 m 5
 898.438 -117.188 l 5
 898.438 -97.6562 l 5
 917.969 -97.6562 l 5
 917.969 -117.188 l 5
917.969 -78.125 m 5
 898.438 -78.125 l 5
 898.438 -58.5938 l 5
 917.969 -58.5938 l 5
 917.969 -78.125 l 5
683.594 -312.5 m 5
 664.062 -312.5 l 5
 664.062 -292.969 l 5
 683.594 -292.969 l 5
 683.594 -312.5 l 5
683.594 -273.438 m 5
 664.062 -273.438 l 5
 664.062 -253.906 l 5
 683.594 -253.906 l 5
 683.594 -273.438 l 5
683.594 -234.375 m 5
 664.062 -234.375 l 5
 664.062 -214.844 l 5
 683.594 -214.844 l 5
 683.594 -234.375 l 5
683.594 -195.312 m 5
 664.062 -195.312 l 5
 664.062 -175.781 l 5
 683.594 -175.781 l 5
 683.594 -195.312 l 5
683.594 -156.25 m 5
 664.062 -156.25 l 5
 664.062 -136.719 l 5
 683.594 -136.719 l 5
 683.594 -156.25 l 5
683.594 -117.188 m 5
 664.062 -117.188 l 5
 664.062 -97.6562 l 5
 683.594 -97.6562 l 5
 683.594 -117.188 l 5
683.594 -78.125 m 5
 664.062 -78.125 l 5
 664.062 -58.5938 l 5
 683.594 -58.5938 l 5
 683.594 -78.125 l 5
722.656 -312.5 m 5
 703.125 -312.5 l 5
 703.125 -292.969 l 5
 722.656 -292.969 l 5
 722.656 -312.5 l 5
722.656 -273.438 m 5
 703.125 -273.438 l 5
 703.125 -253.906 l 5
 722.656 -253.906 l 5
 722.656 -273.438 l 5
722.656 -234.375 m 5
 703.125 -234.375 l 5
 703.125 -214.844 l 5
 722.656 -214.844 l 5
 722.656 -234.375 l 5
722.656 -195.312 m 5
 703.125 -195.312 l 5
 703.125 -175.781 l 5
 722.656 -175.781 l 5
 722.656 -195.312 l 5
722.656 -156.25 m 5
 703.125 -156.25 l 5
 703.125 -136.719 l 5
 722.656 -136.719 l 5
 722.656 -156.25 l 5
722.656 -117.188 m 5
 703.125 -117.188 l 5
 703.125 -97.6562 l 5
 722.656 -97.6562 l 5
 722.656 -117.188 l 5
722.656 -78.125 m 5
 703.125 -78.125 l 5
 703.125 -58.5938 l 5
 722.656 -58.5938 l 5
 722.656 -78.125 l 5
761.719 -312.5 m 5
 742.188 -312.5 l 5
 742.188 -292.969 l 5
 761.719 -292.969 l 5
 761.719 -312.5 l 5
761.719 -273.438 m 5
 742.188 -273.438 l 5
 742.188 -253.906 l 5
 761.719 -253.906 l 5
 761.719 -273.438 l 5
761.719 -234.375 m 5
 742.188 -234.375 l 5
 742.188 -214.844 l 5
 761.719 -214.844 l 5
 761.719 -234.375 l 5
761.719 -195.312 m 5
 742.188 -195.312 l 5
 742.188 -175.781 l 5
 761.719 -175.781 l 5
 761.719 -195.312 l 5
761.719 -156.25 m 5
 742.188 -156.25 l 5
 742.188 -136.719 l 5
 761.719 -136.719 l 5
 761.719 -156.25 l 5
761.719 -117.188 m 5
 742.188 -117.188 l 5
 742.188 -97.6562 l 5
 761.719 -97.6562 l 5
 761.719 -117.188 l 5
761.719 -78.125 m 5
 742.188 -78.125 l 5
 742.188 -58.5938 l 5
 761.719 -58.5938 l 5
 761.719 -78.125 l 5
1113.28 -292.969 m 5
 1113.28 -312.5 l 5
 1093.75 -312.5 l 5
 1093.75 -292.969 l 5
 1113.28 -292.969 l 5
1113.28 -253.906 m 5
 1113.28 -273.438 l 5
 1093.75 -273.438 l 5
 1093.75 -253.906 l 5
 1113.28 -253.906 l 5
1113.28 -214.844 m 5
 1113.28 -234.375 l 5
 1093.75 -234.375 l 5
 1093.75 -214.844 l 5
 1113.28 -214.844 l 5
1113.28 -175.781 m 5
 1113.28 -195.312 l 5
 1093.75 -195.312 l 5
 1093.75 -175.781 l 5
 1113.28 -175.781 l 5
1113.28 -136.719 m 5
 1113.28 -156.25 l 5
 1093.75 -156.25 l 5
 1093.75 -136.719 l 5
 1113.28 -136.719 l 5
1113.28 -97.6562 m 5
 1113.28 -117.188 l 5
 1093.75 -117.188 l 5
 1093.75 -97.6562 l 5
 1113.28 -97.6562 l 5
1113.28 -58.5938 m 5
 1113.28 -78.125 l 5
 1093.75 -78.125 l 5
 1093.75 -58.5938 l 5
 1113.28 -58.5938 l 5
1152.34 -312.5 m 5
 1132.81 -312.5 l 5
 1132.81 -292.969 l 5
 1152.34 -292.969 l 5
 1152.34 -312.5 l 5
1152.34 -273.438 m 5
 1132.81 -273.438 l 5
 1132.81 -253.906 l 5
 1152.34 -253.906 l 5
 1152.34 -273.438 l 5
1152.34 -234.375 m 5
 1132.81 -234.375 l 5
 1132.81 -214.844 l 5
 1152.34 -214.844 l 5
 1152.34 -234.375 l 5
1152.34 -195.312 m 5
 1132.81 -195.312 l 5
 1132.81 -175.781 l 5
 1152.34 -175.781 l 5
 1152.34 -195.312 l 5
1152.34 -156.25 m 5
 1132.81 -156.25 l 5
 1132.81 -136.719 l 5
 1152.34 -136.719 l 5
 1152.34 -156.25 l 5
1152.34 -117.188 m 5
 1132.81 -117.188 l 5
 1132.81 -97.6562 l 5
 1152.34 -97.6562 l 5
 1152.34 -117.188 l 5
1152.34 -78.125 m 5
 1132.81 -78.125 l 5
 1132.81 -58.5938 l 5
 1152.34 -58.5938 l 5
 1152.34 -78.125 l 5
1191.41 -312.5 m 5
 1171.88 -312.5 l 5
 1171.88 -292.969 l 5
 1191.41 -292.969 l 5
 1191.41 -312.5 l 5
1191.41 -273.438 m 5
 1171.88 -273.438 l 5
 1171.88 -253.906 l 5
 1191.41 -253.906 l 5
 1191.41 -273.438 l 5
1191.41 -234.375 m 5
 1171.88 -234.375 l 5
 1171.88 -214.844 l 5
 1191.41 -214.844 l 5
 1191.41 -234.375 l 5
1191.41 -195.312 m 5
 1171.88 -195.312 l 5
 1171.88 -175.781 l 5
 1191.41 -175.781 l 5
 1191.41 -195.312 l 5
1191.41 -156.25 m 5
 1171.88 -156.25 l 5
 1171.88 -136.719 l 5
 1191.41 -136.719 l 5
 1191.41 -156.25 l 5
1191.41 -117.188 m 5
 1171.88 -117.188 l 5
 1171.88 -97.6562 l 5
 1191.41 -97.6562 l 5
 1191.41 -117.188 l 5
1191.41 -78.125 m 5
 1171.88 -78.125 l 5
 1171.88 -58.5938 l 5
 1191.41 -58.5938 l 5
 1191.41 -78.125 l 5
1230.47 -312.5 m 5
 1210.94 -312.5 l 5
 1210.94 -292.969 l 5
 1230.47 -292.969 l 5
 1230.47 -312.5 l 5
1230.47 -273.438 m 5
 1210.94 -273.438 l 5
 1210.94 -253.906 l 5
 1230.47 -253.906 l 5
 1230.47 -273.438 l 5
1230.47 -234.375 m 5
 1210.94 -234.375 l 5
 1210.94 -214.844 l 5
 1230.47 -214.844 l 5
 1230.47 -234.375 l 5
1230.47 -195.312 m 5
 1210.94 -195.312 l 5
 1210.94 -175.781 l 5
 1230.47 -175.781 l 5
 1230.47 -195.312 l 5
1230.47 -156.25 m 5
 1210.94 -156.25 l 5
 1210.94 -136.719 l 5
 1230.47 -136.719 l 5
 1230.47 -156.25 l 5
1230.47 -117.188 m 5
 1210.94 -117.188 l 5
 1210.94 -97.6562 l 5
 1230.47 -97.6562 l 5
 1230.47 -117.188 l 5
1230.47 -78.125 m 5
 1210.94 -78.125 l 5
 1210.94 -58.5938 l 5
 1230.47 -58.5938 l 5
 1230.47 -78.125 l 5
1269.53 -312.5 m 5
 1250 -312.5 l 5
 1250 -292.969 l 5
 1269.53 -292.969 l 5
 1269.53 -312.5 l 5
1269.53 -273.438 m 5
 1250 -273.438 l 5
 1250 -253.906 l 5
 1269.53 -253.906 l 5
 1269.53 -273.438 l 5
1269.53 -234.375 m 5
 1250 -234.375 l 5
 1250 -214.844 l 5
 1269.53 -214.844 l 5
 1269.53 -234.375 l 5
1269.53 -195.312 m 5
 1250 -195.312 l 5
 1250 -175.781 l 5
 1269.53 -175.781 l 5
 1269.53 -195.312 l 5
1269.53 -156.25 m 5
 1250 -156.25 l 5
 1250 -136.719 l 5
 1269.53 -136.719 l 5
 1269.53 -156.25 l 5
1269.53 -117.188 m 5
 1250 -117.188 l 5
 1250 -97.6562 l 5
 1269.53 -97.6562 l 5
 1269.53 -117.188 l 5
1269.53 -78.125 m 5
 1250 -78.125 l 5
 1250 -58.5938 l 5
 1269.53 -58.5938 l 5
 1269.53 -78.125 l 5
996.094 -312.5 m 5
 976.562 -312.5 l 5
 976.562 -292.969 l 5
 996.094 -292.969 l 5
 996.094 -312.5 l 5
996.094 -273.438 m 5
 976.562 -273.438 l 5
 976.562 -253.906 l 5
 996.094 -253.906 l 5
 996.094 -273.438 l 5
996.094 -234.375 m 5
 976.562 -234.375 l 5
 976.562 -214.844 l 5
 996.094 -214.844 l 5
 996.094 -234.375 l 5
996.094 -195.312 m 5
 976.562 -195.312 l 5
 976.562 -175.781 l 5
 996.094 -175.781 l 5
 996.094 -195.312 l 5
996.094 -156.25 m 5
 976.562 -156.25 l 5
 976.562 -136.719 l 5
 996.094 -136.719 l 5
 996.094 -156.25 l 5
996.094 -117.188 m 5
 976.562 -117.188 l 5
 976.562 -97.6562 l 5
 996.094 -97.6562 l 5
 996.094 -117.188 l 5
996.094 -78.125 m 5
 976.562 -78.125 l 5
 976.562 -58.5938 l 5
 996.094 -58.5938 l 5
 996.094 -78.125 l 5
1035.16 -312.5 m 5
 1015.62 -312.5 l 5
 1015.62 -292.969 l 5
 1035.16 -292.969 l 5
 1035.16 -312.5 l 5
1035.16 -273.438 m 5
 1015.62 -273.438 l 5
 1015.62 -253.906 l 5
 1035.16 -253.906 l 5
 1035.16 -273.438 l 5
1035.16 -234.375 m 5
 1015.62 -234.375 l 5
 1015.62 -214.844 l 5
 1035.16 -214.844 l 5
 1035.16 -234.375 l 5
1035.16 -195.312 m 5
 1015.62 -195.312 l 5
 1015.62 -175.781 l 5
 1035.16 -175.781 l 5
 1035.16 -195.312 l 5
1035.16 -156.25 m 5
 1015.62 -156.25 l 5
 1015.62 -136.719 l 5
 1035.16 -136.719 l 5
 1035.16 -156.25 l 5
1035.16 -117.188 m 5
 1015.62 -117.188 l 5
 1015.62 -97.6562 l 5
 1035.16 -97.6562 l 5
 1035.16 -117.188 l 5
1035.16 -78.125 m 5
 1015.62 -78.125 l 5
 1015.62 -58.5938 l 5
 1035.16 -58.5938 l 5
 1035.16 -78.125 l 5
1074.22 -312.5 m 5
 1054.69 -312.5 l 5
 1054.69 -292.969 l 5
 1074.22 -292.969 l 5
 1074.22 -312.5 l 5
1074.22 -273.438 m 5
 1054.69 -273.438 l 5
 1054.69 -253.906 l 5
 1074.22 -253.906 l 5
 1074.22 -273.438 l 5
1074.22 -234.375 m 5
 1054.69 -234.375 l 5
 1054.69 -214.844 l 5
 1074.22 -214.844 l 5
 1074.22 -234.375 l 5
1074.22 -195.312 m 5
 1054.69 -195.312 l 5
 1054.69 -175.781 l 5
 1074.22 -175.781 l 5
 1074.22 -195.312 l 5
1074.22 -156.25 m 5
 1054.69 -156.25 l 5
 1054.69 -136.719 l 5
 1074.22 -136.719 l 5
 1074.22 -156.25 l 5
1074.22 -117.188 m 5
 1054.69 -117.188 l 5
 1054.69 -97.6562 l 5
 1074.22 -97.6562 l 5
 1074.22 -117.188 l 5
1074.22 -78.125 m 5
 1054.69 -78.125 l 5
 1054.69 -58.5938 l 5
 1074.22 -58.5938 l 5
 1074.22 -78.125 l 5
156.25 332.031 m 5
 175.781 332.031 l 5
 175.781 312.5 l 5
 156.25 312.5 l 5
 156.25 332.031 l 5
214.844 332.031 m 5
 214.844 312.5 l 5
 195.312 312.5 l 5
 195.312 332.031 l 5
 214.844 332.031 l 5
253.906 332.031 m 5
 253.906 312.5 l 5
 234.375 312.5 l 5
 234.375 332.031 l 5
 253.906 332.031 l 5
292.969 332.031 m 5
 292.969 312.5 l 5
 273.438 312.5 l 5
 273.438 332.031 l 5
 292.969 332.031 l 5
19.5312 332.031 m 5
 19.5312 312.5 l 5
 0 312.5 l 5
 0 332.031 l 5
 19.5312 332.031 l 5
58.5938 332.031 m 5
 58.5938 312.5 l 5
 39.0625 312.5 l 5
 39.0625 332.031 l 5
 58.5938 332.031 l 5
97.6562 332.031 m 5
 97.6562 312.5 l 5
 78.125 312.5 l 5
 78.125 332.031 l 5
 97.6562 332.031 l 5
136.719 332.031 m 5
 136.719 312.5 l 5
 117.188 312.5 l 5
 117.188 332.031 l 5
 136.719 332.031 l 5
332.031 58.5938 m 5
 332.031 39.0625 l 5
 312.5 39.0625 l 5
 312.5 58.5938 l 5
 332.031 58.5938 l 5
332.031 97.6562 m 5
 332.031 78.125 l 5
 312.5 78.125 l 5
 312.5 97.6562 l 5
 332.031 97.6562 l 5
332.031 136.719 m 5
 332.031 117.188 l 5
 312.5 117.188 l 5
 312.5 136.719 l 5
 332.031 136.719 l 5
332.031 175.781 m 5
 332.031 156.25 l 5
 312.5 156.25 l 5
 312.5 175.781 l 5
 332.031 175.781 l 5
332.031 214.844 m 5
 332.031 195.312 l 5
 312.5 195.312 l 5
 312.5 214.844 l 5
 332.031 214.844 l 5
332.031 253.906 m 5
 332.031 234.375 l 5
 312.5 234.375 l 5
 312.5 253.906 l 5
 332.031 253.906 l 5
332.031 292.969 m 5
 332.031 273.438 l 5
 312.5 273.438 l 5
 312.5 292.969 l 5
 332.031 292.969 l 5
468.75 332.031 m 5
 488.281 332.031 l 5
 488.281 312.5 l 5
 468.75 312.5 l 5
 468.75 332.031 l 5
527.344 332.031 m 5
 527.344 312.5 l 5
 507.812 312.5 l 5
 507.812 332.031 l 5
 527.344 332.031 l 5
566.406 332.031 m 5
 566.406 312.5 l 5
 546.875 312.5 l 5
 546.875 332.031 l 5
 566.406 332.031 l 5
605.469 332.031 m 5
 605.469 312.5 l 5
 585.938 312.5 l 5
 585.938 332.031 l 5
 605.469 332.031 l 5
332.031 332.031 m 5
 332.031 312.5 l 5
 312.5 312.5 l 5
 312.5 332.031 l 5
 332.031 332.031 l 5
332.031 371.094 m 5
 332.031 351.562 l 5
 312.5 351.562 l 5
 312.5 371.094 l 5
 332.031 371.094 l 5
332.031 410.156 m 5
 332.031 390.625 l 5
 312.5 390.625 l 5
 312.5 410.156 l 5
 332.031 410.156 l 5
332.031 449.219 m 5
 332.031 429.688 l 5
 312.5 429.688 l 5
 312.5 449.219 l 5
 332.031 449.219 l 5
332.031 488.281 m 5
 332.031 468.75 l 5
 312.5 468.75 l 5
 312.5 488.281 l 5
 332.031 488.281 l 5
332.031 527.344 m 5
 332.031 507.812 l 5
 312.5 507.812 l 5
 312.5 527.344 l 5
 332.031 527.344 l 5
332.031 566.406 m 5
 332.031 546.875 l 5
 312.5 546.875 l 5
 312.5 566.406 l 5
 332.031 566.406 l 5
332.031 605.469 m 5
 332.031 585.938 l 5
 312.5 585.938 l 5
 312.5 605.469 l 5
 332.031 605.469 l 5
371.094 332.031 m 5
 371.094 312.5 l 5
 351.562 312.5 l 5
 351.562 332.031 l 5
 371.094 332.031 l 5
410.156 332.031 m 5
 410.156 312.5 l 5
 390.625 312.5 l 5
 390.625 332.031 l 5
 410.156 332.031 l 5
449.219 332.031 m 5
 449.219 312.5 l 5
 429.688 312.5 l 5
 429.688 332.031 l 5
 449.219 332.031 l 5
644.531 58.5938 m 5
 644.531 39.0625 l 5
 625 39.0625 l 5
 625 58.5938 l 5
 644.531 58.5938 l 5
644.531 97.6562 m 5
 644.531 78.125 l 5
 625 78.125 l 5
 625 97.6562 l 5
 644.531 97.6562 l 5
644.531 136.719 m 5
 644.531 117.188 l 5
 625 117.188 l 5
 625 136.719 l 5
 644.531 136.719 l 5
644.531 175.781 m 5
 644.531 156.25 l 5
 625 156.25 l 5
 625 175.781 l 5
 644.531 175.781 l 5
644.531 214.844 m 5
 644.531 195.312 l 5
 625 195.312 l 5
 625 214.844 l 5
 644.531 214.844 l 5
644.531 253.906 m 5
 644.531 234.375 l 5
 625 234.375 l 5
 625 253.906 l 5
 644.531 253.906 l 5
644.531 292.969 m 5
 644.531 273.438 l 5
 625 273.438 l 5
 625 292.969 l 5
 644.531 292.969 l 5
781.25 332.031 m 5
 800.781 332.031 l 5
 800.781 312.5 l 5
 781.25 312.5 l 5
 781.25 332.031 l 5
839.844 332.031 m 5
 839.844 312.5 l 5
 820.312 312.5 l 5
 820.312 332.031 l 5
 839.844 332.031 l 5
878.906 332.031 m 5
 878.906 312.5 l 5
 859.375 312.5 l 5
 859.375 332.031 l 5
 878.906 332.031 l 5
917.969 332.031 m 5
 917.969 312.5 l 5
 898.438 312.5 l 5
 898.438 332.031 l 5
 917.969 332.031 l 5
644.531 332.031 m 5
 644.531 312.5 l 5
 625 312.5 l 5
 625 332.031 l 5
 644.531 332.031 l 5
644.531 371.094 m 5
 644.531 351.562 l 5
 625 351.562 l 5
 625 371.094 l 5
 644.531 371.094 l 5
644.531 410.156 m 5
 644.531 390.625 l 5
 625 390.625 l 5
 625 410.156 l 5
 644.531 410.156 l 5
644.531 449.219 m 5
 644.531 429.688 l 5
 625 429.688 l 5
 625 449.219 l 5
 644.531 449.219 l 5
644.531 488.281 m 5
 644.531 468.75 l 5
 625 468.75 l 5
 625 488.281 l 5
 644.531 488.281 l 5
644.531 527.344 m 5
 644.531 507.812 l 5
 625 507.812 l 5
 625 527.344 l 5
 644.531 527.344 l 5
644.531 566.406 m 5
 644.531 546.875 l 5
 625 546.875 l 5
 625 566.406 l 5
 644.531 566.406 l 5
644.531 605.469 m 5
 644.531 585.938 l 5
 625 585.938 l 5
 625 605.469 l 5
 644.531 605.469 l 5
683.594 332.031 m 5
 683.594 312.5 l 5
 664.062 312.5 l 5
 664.062 332.031 l 5
 683.594 332.031 l 5
722.656 332.031 m 5
 722.656 312.5 l 5
 703.125 312.5 l 5
 703.125 332.031 l 5
 722.656 332.031 l 5
761.719 332.031 m 5
 761.719 312.5 l 5
 742.188 312.5 l 5
 742.188 332.031 l 5
 761.719 332.031 l 5
957.031 58.5938 m 5
 957.031 39.0625 l 5
 937.5 39.0625 l 5
 937.5 58.5938 l 5
 957.031 58.5938 l 5
957.031 97.6562 m 5
 957.031 78.125 l 5
 937.5 78.125 l 5
 937.5 97.6562 l 5
 957.031 97.6562 l 5
957.031 136.719 m 5
 957.031 117.188 l 5
 937.5 117.188 l 5
 937.5 136.719 l 5
 957.031 136.719 l 5
957.031 175.781 m 5
 957.031 156.25 l 5
 937.5 156.25 l 5
 937.5 175.781 l 5
 957.031 175.781 l 5
957.031 214.844 m 5
 957.031 195.312 l 5
 937.5 195.312 l 5
 937.5 214.844 l 5
 957.031 214.844 l 5
957.031 253.906 m 5
 957.031 234.375 l 5
 937.5 234.375 l 5
 937.5 253.906 l 5
 957.031 253.906 l 5
957.031 292.969 m 5
 957.031 273.438 l 5
 937.5 273.438 l 5
 937.5 292.969 l 5
 957.031 292.969 l 5
1093.75 332.031 m 5
 1113.28 332.031 l 5
 1113.28 312.5 l 5
 1093.75 312.5 l 5
 1093.75 332.031 l 5
1152.34 332.031 m 5
 1152.34 312.5 l 5
 1132.81 312.5 l 5
 1132.81 332.031 l 5
 1152.34 332.031 l 5
1191.41 332.031 m 5
 1191.41 312.5 l 5
 1171.88 312.5 l 5
 1171.88 332.031 l 5
 1191.41 332.031 l 5
1230.47 332.031 m 5
 1230.47 312.5 l 5
 1210.94 312.5 l 5
 1210.94 332.031 l 5
 1230.47 332.031 l 5
1269.53 332.031 m 5
 1269.53 312.5 l 5
 1250 312.5 l 5
 1250 332.031 l 5
 1269.53 332.031 l 5
957.031 332.031 m 5
 957.031 312.5 l 5
 937.5 312.5 l 5
 937.5 332.031 l 5
 957.031 332.031 l 5
957.031 371.094 m 5
 957.031 351.562 l 5
 937.5 351.562 l 5
 937.5 371.094 l 5
 957.031 371.094 l 5
957.031 410.156 m 5
 957.031 390.625 l 5
 937.5 390.625 l 5
 937.5 410.156 l 5
 957.031 410.156 l 5
957.031 449.219 m 5
 957.031 429.688 l 5
 937.5 429.688 l 5
 937.5 449.219 l 5
 957.031 449.219 l 5
957.031 488.281 m 5
 957.031 468.75 l 5
 937.5 468.75 l 5
 937.5 488.281 l 5
 957.031 488.281 l 5
957.031 527.344 m 5
 957.031 507.812 l 5
 937.5 507.812 l 5
 937.5 527.344 l 5
 957.031 527.344 l 5
957.031 566.406 m 5
 957.031 546.875 l 5
 937.5 546.875 l 5
 937.5 566.406 l 5
 957.031 566.406 l 5
957.031 605.469 m 5
 957.031 585.938 l 5
 937.5 585.938 l 5
 937.5 605.469 l 5
 957.031 605.469 l 5
996.094 332.031 m 5
 996.094 312.5 l 5
 976.562 312.5 l 5
 976.562 332.031 l 5
 996.094 332.031 l 5
1035.16 332.031 m 5
 1035.16 312.5 l 5
 1015.62 312.5 l 5
 1015.62 332.031 l 5
 1035.16 332.031 l 5
1074.22 332.031 m 5
 1074.22 312.5 l 5
 1054.69 312.5 l 5
 1054.69 332.031 l 5
 1074.22 332.031 l 5
156.25 644.531 m 5
 175.781 644.531 l 5
 175.781 625 l 5
 156.25 625 l 5
 156.25 644.531 l 5
214.844 644.531 m 5
 214.844 625 l 5
 195.312 625 l 5
 195.312 644.531 l 5
 214.844 644.531 l 5
253.906 644.531 m 5
 253.906 625 l 5
 234.375 625 l 5
 234.375 644.531 l 5
 253.906 644.531 l 5
292.969 644.531 m 5
 292.969 625 l 5
 273.438 625 l 5
 273.438 644.531 l 5
 292.969 644.531 l 5
19.5312 644.531 m 5
 19.5312 625 l 5
 0 625 l 5
 0 644.531 l 5
 19.5312 644.531 l 5
58.5938 644.531 m 5
 58.5938 625 l 5
 39.0625 625 l 5
 39.0625 644.531 l 5
 58.5938 644.531 l 5
97.6562 644.531 m 5
 97.6562 625 l 5
 78.125 625 l 5
 78.125 644.531 l 5
 97.6562 644.531 l 5
136.719 644.531 m 5
 136.719 625 l 5
 117.188 625 l 5
 117.188 644.531 l 5
 136.719 644.531 l 5
156.25 957.031 m 5
 175.781 957.031 l 5
 175.781 937.5 l 5
 156.25 937.5 l 5
 156.25 957.031 l 5
214.844 957.031 m 5
 214.844 937.5 l 5
 195.312 937.5 l 5
 195.312 957.031 l 5
 214.844 957.031 l 5
253.906 957.031 m 5
 253.906 937.5 l 5
 234.375 937.5 l 5
 234.375 957.031 l 5
 253.906 957.031 l 5
292.969 957.031 m 5
 292.969 937.5 l 5
 273.438 937.5 l 5
 273.438 957.031 l 5
 292.969 957.031 l 5
19.5312 957.031 m 5
 19.5312 937.5 l 5
 0 937.5 l 5
 0 957.031 l 5
 19.5312 957.031 l 5
58.5938 957.031 m 5
 58.5938 937.5 l 5
 39.0625 937.5 l 5
 39.0625 957.031 l 5
 58.5938 957.031 l 5
97.6562 957.031 m 5
 97.6562 937.5 l 5
 78.125 937.5 l 5
 78.125 957.031 l 5
 97.6562 957.031 l 5
136.719 957.031 m 5
 136.719 937.5 l 5
 117.188 937.5 l 5
 117.188 957.031 l 5
 136.719 957.031 l 5
468.75 644.531 m 5
 488.281 644.531 l 5
 488.281 625 l 5
 468.75 625 l 5
 468.75 644.531 l 5
527.344 644.531 m 5
 527.344 625 l 5
 507.812 625 l 5
 507.812 644.531 l 5
 527.344 644.531 l 5
566.406 644.531 m 5
 566.406 625 l 5
 546.875 625 l 5
 546.875 644.531 l 5
 566.406 644.531 l 5
605.469 644.531 m 5
 605.469 625 l 5
 585.938 625 l 5
 585.938 644.531 l 5
 605.469 644.531 l 5
332.031 644.531 m 5
 332.031 625 l 5
 312.5 625 l 5
 312.5 644.531 l 5
 332.031 644.531 l 5
332.031 683.594 m 5
 332.031 664.062 l 5
 312.5 664.062 l 5
 312.5 683.594 l 5
 332.031 683.594 l 5
332.031 722.656 m 5
 332.031 703.125 l 5
 312.5 703.125 l 5
 312.5 722.656 l 5
 332.031 722.656 l 5
332.031 761.719 m 5
 332.031 742.188 l 5
 312.5 742.188 l 5
 312.5 761.719 l 5
 332.031 761.719 l 5
332.031 800.781 m 5
 332.031 781.25 l 5
 312.5 781.25 l 5
 312.5 800.781 l 5
 332.031 800.781 l 5
332.031 839.844 m 5
 332.031 820.312 l 5
 312.5 820.312 l 5
 312.5 839.844 l 5
 332.031 839.844 l 5
332.031 878.906 m 5
 332.031 859.375 l 5
 312.5 859.375 l 5
 312.5 878.906 l 5
 332.031 878.906 l 5
332.031 917.969 m 5
 332.031 898.438 l 5
 312.5 898.438 l 5
 312.5 917.969 l 5
 332.031 917.969 l 5
371.094 644.531 m 5
 371.094 625 l 5
 351.562 625 l 5
 351.562 644.531 l 5
 371.094 644.531 l 5
410.156 644.531 m 5
 410.156 625 l 5
 390.625 625 l 5
 390.625 644.531 l 5
 410.156 644.531 l 5
449.219 644.531 m 5
 449.219 625 l 5
 429.688 625 l 5
 429.688 644.531 l 5
 449.219 644.531 l 5
468.75 957.031 m 5
 488.281 957.031 l 5
 488.281 937.5 l 5
 468.75 937.5 l 5
 468.75 957.031 l 5
527.344 957.031 m 5
 527.344 937.5 l 5
 507.812 937.5 l 5
 507.812 957.031 l 5
 527.344 957.031 l 5
566.406 957.031 m 5
 566.406 937.5 l 5
 546.875 937.5 l 5
 546.875 957.031 l 5
 566.406 957.031 l 5
605.469 957.031 m 5
 605.469 937.5 l 5
 585.938 937.5 l 5
 585.938 957.031 l 5
 605.469 957.031 l 5
332.031 957.031 m 5
 332.031 937.5 l 5
 312.5 937.5 l 5
 312.5 957.031 l 5
 332.031 957.031 l 5
332.031 996.094 m 5
 332.031 976.562 l 5
 312.5 976.562 l 5
 312.5 996.094 l 5
 332.031 996.094 l 5
371.094 957.031 m 5
 371.094 937.5 l 5
 351.562 937.5 l 5
 351.562 957.031 l 5
 371.094 957.031 l 5
410.156 957.031 m 5
 410.156 937.5 l 5
 390.625 937.5 l 5
 390.625 957.031 l 5
 410.156 957.031 l 5
449.219 957.031 m 5
 449.219 937.5 l 5
 429.688 937.5 l 5
 429.688 957.031 l 5
 449.219 957.031 l 5
781.25 644.531 m 5
 800.781 644.531 l 5
 800.781 625 l 5
 781.25 625 l 5
 781.25 644.531 l 5
839.844 644.531 m 5
 839.844 625 l 5
 820.312 625 l 5
 820.312 644.531 l 5
 839.844 644.531 l 5
878.906 644.531 m 5
 878.906 625 l 5
 859.375 625 l 5
 859.375 644.531 l 5
 878.906 644.531 l 5
917.969 644.531 m 5
 917.969 625 l 5
 898.438 625 l 5
 898.438 644.531 l 5
 917.969 644.531 l 5
644.531 644.531 m 5
 644.531 625 l 5
 625 625 l 5
 625 644.531 l 5
 644.531 644.531 l 5
644.531 683.594 m 5
 644.531 664.062 l 5
 625 664.062 l 5
 625 683.594 l 5
 644.531 683.594 l 5
644.531 722.656 m 5
 644.531 703.125 l 5
 625 703.125 l 5
 625 722.656 l 5
 644.531 722.656 l 5
644.531 761.719 m 5
 644.531 742.188 l 5
 625 742.188 l 5
 625 761.719 l 5
 644.531 761.719 l 5
644.531 800.781 m 5
 644.531 781.25 l 5
 625 781.25 l 5
 625 800.781 l 5
 644.531 800.781 l 5
644.531 839.844 m 5
 644.531 820.312 l 5
 625 820.312 l 5
 625 839.844 l 5
 644.531 839.844 l 5
644.531 878.906 m 5
 644.531 859.375 l 5
 625 859.375 l 5
 625 878.906 l 5
 644.531 878.906 l 5
644.531 917.969 m 5
 644.531 898.438 l 5
 625 898.438 l 5
 625 917.969 l 5
 644.531 917.969 l 5
683.594 644.531 m 5
 683.594 625 l 5
 664.062 625 l 5
 664.062 644.531 l 5
 683.594 644.531 l 5
722.656 644.531 m 5
 722.656 625 l 5
 703.125 625 l 5
 703.125 644.531 l 5
 722.656 644.531 l 5
761.719 644.531 m 5
 761.719 625 l 5
 742.188 625 l 5
 742.188 644.531 l 5
 761.719 644.531 l 5
781.25 957.031 m 5
 800.781 957.031 l 5
 800.781 937.5 l 5
 781.25 937.5 l 5
 781.25 957.031 l 5
839.844 957.031 m 5
 839.844 937.5 l 5
 820.312 937.5 l 5
 820.312 957.031 l 5
 839.844 957.031 l 5
878.906 957.031 m 5
 878.906 937.5 l 5
 859.375 937.5 l 5
 859.375 957.031 l 5
 878.906 957.031 l 5
917.969 957.031 m 5
 917.969 937.5 l 5
 898.438 937.5 l 5
 898.438 957.031 l 5
 917.969 957.031 l 5
644.531 957.031 m 5
 644.531 937.5 l 5
 625 937.5 l 5
 625 957.031 l 5
 644.531 957.031 l 5
644.531 996.094 m 5
 644.531 976.562 l 5
 625 976.562 l 5
 625 996.094 l 5
 644.531 996.094 l 5
683.594 957.031 m 5
 683.594 937.5 l 5
 664.062 937.5 l 5
 664.062 957.031 l 5
 683.594 957.031 l 5
722.656 957.031 m 5
 722.656 937.5 l 5
 703.125 937.5 l 5
 703.125 957.031 l 5
 722.656 957.031 l 5
761.719 957.031 m 5
 761.719 937.5 l 5
 742.188 937.5 l 5
 742.188 957.031 l 5
 761.719 957.031 l 5
1093.75 644.531 m 5
 1113.28 644.531 l 5
 1113.28 625 l 5
 1093.75 625 l 5
 1093.75 644.531 l 5
1152.34 644.531 m 5
 1152.34 625 l 5
 1132.81 625 l 5
 1132.81 644.531 l 5
 1152.34 644.531 l 5
1191.41 644.531 m 5
 1191.41 625 l 5
 1171.88 625 l 5
 1171.88 644.531 l 5
 1191.41 644.531 l 5
1230.47 644.531 m 5
 1230.47 625 l 5
 1210.94 625 l 5
 1210.94 644.531 l 5
 1230.47 644.531 l 5
1269.53 644.531 m 5
 1269.53 625 l 5
 1250 625 l 5
 1250 644.531 l 5
 1269.53 644.531 l 5
957.031 644.531 m 5
 957.031 625 l 5
 937.5 625 l 5
 937.5 644.531 l 5
 957.031 644.531 l 5
957.031 683.594 m 5
 957.031 664.062 l 5
 937.5 664.062 l 5
 937.5 683.594 l 5
 957.031 683.594 l 5
957.031 722.656 m 5
 957.031 703.125 l 5
 937.5 703.125 l 5
 937.5 722.656 l 5
 957.031 722.656 l 5
957.031 761.719 m 5
 957.031 742.188 l 5
 937.5 742.188 l 5
 937.5 761.719 l 5
 957.031 761.719 l 5
957.031 800.781 m 5
 957.031 781.25 l 5
 937.5 781.25 l 5
 937.5 800.781 l 5
 957.031 800.781 l 5
957.031 839.844 m 5
 957.031 820.312 l 5
 937.5 820.312 l 5
 937.5 839.844 l 5
 957.031 839.844 l 5
957.031 878.906 m 5
 957.031 859.375 l 5
 937.5 859.375 l 5
 937.5 878.906 l 5
 957.031 878.906 l 5
957.031 917.969 m 5
 957.031 898.438 l 5
 937.5 898.438 l 5
 937.5 917.969 l 5
 957.031 917.969 l 5
996.094 644.531 m 5
 996.094 625 l 5
 976.562 625 l 5
 976.562 644.531 l 5
 996.094 644.531 l 5
1035.16 644.531 m 5
 1035.16 625 l 5
 1015.62 625 l 5
 1015.62 644.531 l 5
 1035.16 644.531 l 5
1074.22 644.531 m 5
 1074.22 625 l 5
 1054.69 625 l 5
 1054.69 644.531 l 5
 1074.22 644.531 l 5
1093.75 957.031 m 5
 1113.28 957.031 l 5
 1113.28 937.5 l 5
 1093.75 937.5 l 5
 1093.75 957.031 l 5
1152.34 957.031 m 5
 1152.34 937.5 l 5
 1132.81 937.5 l 5
 1132.81 957.031 l 5
 1152.34 957.031 l 5
1191.41 957.031 m 5
 1191.41 937.5 l 5
 1171.88 937.5 l 5
 1171.88 957.031 l 5
 1191.41 957.031 l 5
1230.47 957.031 m 5
 1230.47 937.5 l 5
 1210.94 937.5 l 5
 1210.94 957.031 l 5
 1230.47 957.031 l 5
1269.53 957.031 m 5
 1269.53 937.5 l 5
 1250 937.5 l 5
 1250 957.031 l 5
 1269.53 957.031 l 5
957.031 957.031 m 5
 957.031 937.5 l 5
 937.5 937.5 l 5
 937.5 957.031 l 5
 957.031 957.031 l 5
957.031 996.094 m 5
 957.031 976.562 l 5
 937.5 976.562 l 5
 937.5 996.094 l 5
 957.031 996.094 l 5
996.094 957.031 m 5
 996.094 937.5 l 5
 976.562 937.5 l 5
 976.562 957.031 l 5
 996.094 957.031 l 5
1035.16 957.031 m 5
 1035.16 937.5 l 5
 1015.62 937.5 l 5
 1015.62 957.031 l 5
 1035.16 957.031 l 5
1074.22 957.031 m 5
 1074.22 937.5 l 5
 1054.69 937.5 l 5
 1054.69 957.031 l 5
 1074.22 957.031 l 5
156.25 -19.5312 m 5
 175.781 -19.5312 l 5
 175.781 -39.0625 l 5
 156.25 -39.0625 l 5
 156.25 -19.5312 l 5
156.25 19.5312 m 5
 175.781 19.5312 l 5
 175.781 0 l 5
 156.25 0 l 5
 156.25 19.5312 l 5
214.844 -19.5312 m 5
 214.844 -39.0625 l 5
 195.312 -39.0625 l 5
 195.312 -19.5312 l 5
 214.844 -19.5312 l 5
214.844 19.5312 m 5
 214.844 0 l 5
 195.312 0 l 5
 195.312 19.5312 l 5
 214.844 19.5312 l 5
253.906 -19.5312 m 5
 253.906 -39.0625 l 5
 234.375 -39.0625 l 5
 234.375 -19.5312 l 5
 253.906 -19.5312 l 5
253.906 19.5312 m 5
 253.906 0 l 5
 234.375 0 l 5
 234.375 19.5312 l 5
 253.906 19.5312 l 5
292.969 -19.5312 m 5
 292.969 -39.0625 l 5
 273.438 -39.0625 l 5
 273.438 -19.5312 l 5
 292.969 -19.5312 l 5
292.969 19.5312 m 5
 292.969 0 l 5
 273.438 0 l 5
 273.438 19.5312 l 5
 292.969 19.5312 l 5
19.5312 -19.5312 m 5
 19.5312 -39.0625 l 5
 0 -39.0625 l 5
 0 -19.5312 l 5
 19.5312 -19.5312 l 5
19.5312 19.5312 m 5
 19.5312 0 l 5
 0 0 l 5
 0 19.5312 l 5
 19.5312 19.5312 l 5
58.5938 -19.5312 m 5
 58.5938 -39.0625 l 5
 39.0625 -39.0625 l 5
 39.0625 -19.5312 l 5
 58.5938 -19.5312 l 5
58.5938 19.5312 m 5
 58.5938 0 l 5
 39.0625 0 l 5
 39.0625 19.5312 l 5
 58.5938 19.5312 l 5
97.6562 -19.5312 m 5
 97.6562 -39.0625 l 5
 78.125 -39.0625 l 5
 78.125 -19.5312 l 5
 97.6562 -19.5312 l 5
97.6562 19.5312 m 5
 97.6562 0 l 5
 78.125 0 l 5
 78.125 19.5312 l 5
 97.6562 19.5312 l 5
136.719 -19.5312 m 5
 136.719 -39.0625 l 5
 117.188 -39.0625 l 5
 117.188 -19.5312 l 5
 136.719 -19.5312 l 5
136.719 19.5312 m 5
 136.719 0 l 5
 117.188 0 l 5
 117.188 19.5312 l 5
 136.719 19.5312 l 5
332.031 -292.969 m 5
 332.031 -312.5 l 5
 312.5 -312.5 l 5
 312.5 -292.969 l 5
 332.031 -292.969 l 5
332.031 -253.906 m 5
 332.031 -273.438 l 5
 312.5 -273.438 l 5
 312.5 -253.906 l 5
 332.031 -253.906 l 5
332.031 -214.844 m 5
 332.031 -234.375 l 5
 312.5 -234.375 l 5
 312.5 -214.844 l 5
 332.031 -214.844 l 5
332.031 -175.781 m 5
 332.031 -195.312 l 5
 312.5 -195.312 l 5
 312.5 -175.781 l 5
 332.031 -175.781 l 5
332.031 -136.719 m 5
 332.031 -156.25 l 5
 312.5 -156.25 l 5
 312.5 -136.719 l 5
 332.031 -136.719 l 5
332.031 -97.6562 m 5
 332.031 -117.188 l 5
 312.5 -117.188 l 5
 312.5 -97.6562 l 5
 332.031 -97.6562 l 5
332.031 -58.5938 m 5
 332.031 -78.125 l 5
 312.5 -78.125 l 5
 312.5 -58.5938 l 5
 332.031 -58.5938 l 5
468.75 -19.5312 m 5
 488.281 -19.5312 l 5
 488.281 -39.0625 l 5
 468.75 -39.0625 l 5
 468.75 -19.5312 l 5
468.75 19.5312 m 5
 488.281 19.5312 l 5
 488.281 0 l 5
 468.75 0 l 5
 468.75 19.5312 l 5
527.344 -19.5312 m 5
 527.344 -39.0625 l 5
 507.812 -39.0625 l 5
 507.812 -19.5312 l 5
 527.344 -19.5312 l 5
527.344 19.5312 m 5
 527.344 0 l 5
 507.812 0 l 5
 507.812 19.5312 l 5
 527.344 19.5312 l 5
566.406 -19.5312 m 5
 566.406 -39.0625 l 5
 546.875 -39.0625 l 5
 546.875 -19.5312 l 5
 566.406 -19.5312 l 5
566.406 19.5312 m 5
 566.406 0 l 5
 546.875 0 l 5
 546.875 19.5312 l 5
 566.406 19.5312 l 5
605.469 -19.5312 m 5
 605.469 -39.0625 l 5
 585.938 -39.0625 l 5
 585.938 -19.5312 l 5
 605.469 -19.5312 l 5
605.469 19.5312 m 5
 605.469 0 l 5
 585.938 0 l 5
 585.938 19.5312 l 5
 605.469 19.5312 l 5
332.031 -19.5312 m 5
 332.031 -39.0625 l 5
 312.5 -39.0625 l 5
 312.5 -19.5312 l 5
 332.031 -19.5312 l 5
332.031 19.5312 m 5
 332.031 0 l 5
 312.5 0 l 5
 312.5 19.5312 l 5
 332.031 19.5312 l 5
371.094 -19.5312 m 5
 371.094 -39.0625 l 5
 351.562 -39.0625 l 5
 351.562 -19.5312 l 5
 371.094 -19.5312 l 5
371.094 19.5312 m 5
 371.094 0 l 5
 351.562 0 l 5
 351.562 19.5312 l 5
 371.094 19.5312 l 5
410.156 -19.5312 m 5
 410.156 -39.0625 l 5
 390.625 -39.0625 l 5
 390.625 -19.5312 l 5
 410.156 -19.5312 l 5
410.156 19.5312 m 5
 410.156 0 l 5
 390.625 0 l 5
 390.625 19.5312 l 5
 410.156 19.5312 l 5
449.219 -19.5312 m 5
 449.219 -39.0625 l 5
 429.688 -39.0625 l 5
 429.688 -19.5312 l 5
 449.219 -19.5312 l 5
449.219 19.5312 m 5
 449.219 0 l 5
 429.688 0 l 5
 429.688 19.5312 l 5
 449.219 19.5312 l 5
644.531 -292.969 m 5
 644.531 -312.5 l 5
 625 -312.5 l 5
 625 -292.969 l 5
 644.531 -292.969 l 5
644.531 -253.906 m 5
 644.531 -273.438 l 5
 625 -273.438 l 5
 625 -253.906 l 5
 644.531 -253.906 l 5
644.531 -214.844 m 5
 644.531 -234.375 l 5
 625 -234.375 l 5
 625 -214.844 l 5
 644.531 -214.844 l 5
644.531 -175.781 m 5
 644.531 -195.312 l 5
 625 -195.312 l 5
 625 -175.781 l 5
 644.531 -175.781 l 5
644.531 -136.719 m 5
 644.531 -156.25 l 5
 625 -156.25 l 5
 625 -136.719 l 5
 644.531 -136.719 l 5
644.531 -97.6562 m 5
 644.531 -117.188 l 5
 625 -117.188 l 5
 625 -97.6562 l 5
 644.531 -97.6562 l 5
644.531 -58.5938 m 5
 644.531 -78.125 l 5
 625 -78.125 l 5
 625 -58.5938 l 5
 644.531 -58.5938 l 5
781.25 -19.5312 m 5
 800.781 -19.5312 l 5
 800.781 -39.0625 l 5
 781.25 -39.0625 l 5
 781.25 -19.5312 l 5
781.25 19.5312 m 5
 800.781 19.5312 l 5
 800.781 0 l 5
 781.25 0 l 5
 781.25 19.5312 l 5
839.844 -19.5312 m 5
 839.844 -39.0625 l 5
 820.312 -39.0625 l 5
 820.312 -19.5312 l 5
 839.844 -19.5312 l 5
839.844 19.5312 m 5
 839.844 0 l 5
 820.312 0 l 5
 820.312 19.5312 l 5
 839.844 19.5312 l 5
878.906 -19.5312 m 5
 878.906 -39.0625 l 5
 859.375 -39.0625 l 5
 859.375 -19.5312 l 5
 878.906 -19.5312 l 5
878.906 19.5312 m 5
 878.906 0 l 5
 859.375 0 l 5
 859.375 19.5312 l 5
 878.906 19.5312 l 5
917.969 -19.5312 m 5
 917.969 -39.0625 l 5
 898.438 -39.0625 l 5
 898.438 -19.5312 l 5
 917.969 -19.5312 l 5
917.969 19.5312 m 5
 917.969 0 l 5
 898.438 0 l 5
 898.438 19.5312 l 5
 917.969 19.5312 l 5
644.531 -19.5312 m 5
 644.531 -39.0625 l 5
 625 -39.0625 l 5
 625 -19.5312 l 5
 644.531 -19.5312 l 5
644.531 19.5312 m 5
 644.531 0 l 5
 625 0 l 5
 625 19.5312 l 5
 644.531 19.5312 l 5
683.594 -19.5312 m 5
 683.594 -39.0625 l 5
 664.062 -39.0625 l 5
 664.062 -19.5312 l 5
 683.594 -19.5312 l 5
683.594 19.5312 m 5
 683.594 0 l 5
 664.062 0 l 5
 664.062 19.5312 l 5
 683.594 19.5312 l 5
722.656 -19.5312 m 5
 722.656 -39.0625 l 5
 703.125 -39.0625 l 5
 703.125 -19.5312 l 5
 722.656 -19.5312 l 5
722.656 19.5312 m 5
 722.656 0 l 5
 703.125 0 l 5
 703.125 19.5312 l 5
 722.656 19.5312 l 5
761.719 -19.5312 m 5
 761.719 -39.0625 l 5
 742.188 -39.0625 l 5
 742.188 -19.5312 l 5
 761.719 -19.5312 l 5
761.719 19.5312 m 5
 761.719 0 l 5
 742.188 0 l 5
 742.188 19.5312 l 5
 761.719 19.5312 l 5
957.031 -292.969 m 5
 957.031 -312.5 l 5
 937.5 -312.5 l 5
 937.5 -292.969 l 5
 957.031 -292.969 l 5
957.031 -253.906 m 5
 957.031 -273.438 l 5
 937.5 -273.438 l 5
 937.5 -253.906 l 5
 957.031 -253.906 l 5
957.031 -214.844 m 5
 957.031 -234.375 l 5
 937.5 -234.375 l 5
 937.5 -214.844 l 5
 957.031 -214.844 l 5
957.031 -175.781 m 5
 957.031 -195.312 l 5
 937.5 -195.312 l 5
 937.5 -175.781 l 5
 957.031 -175.781 l 5
957.031 -136.719 m 5
 957.031 -156.25 l 5
 937.5 -156.25 l 5
 937.5 -136.719 l 5
 957.031 -136.719 l 5
957.031 -97.6562 m 5
 957.031 -117.188 l 5
 937.5 -117.188 l 5
 937.5 -97.6562 l 5
 957.031 -97.6562 l 5
957.031 -58.5938 m 5
 957.031 -78.125 l 5
 937.5 -78.125 l 5
 937.5 -58.5938 l 5
 957.031 -58.5938 l 5
1093.75 -19.5312 m 5
 1113.28 -19.5312 l 5
 1113.28 -39.0625 l 5
 1093.75 -39.0625 l 5
 1093.75 -19.5312 l 5
1093.75 19.5312 m 5
 1113.28 19.5312 l 5
 1113.28 0 l 5
 1093.75 0 l 5
 1093.75 19.5312 l 5
1152.34 -19.5312 m 5
 1152.34 -39.0625 l 5
 1132.81 -39.0625 l 5
 1132.81 -19.5312 l 5
 1152.34 -19.5312 l 5
1152.34 19.5312 m 5
 1152.34 0 l 5
 1132.81 0 l 5
 1132.81 19.5312 l 5
 1152.34 19.5312 l 5
1191.41 -19.5312 m 5
 1191.41 -39.0625 l 5
 1171.88 -39.0625 l 5
 1171.88 -19.5312 l 5
 1191.41 -19.5312 l 5
1191.41 19.5312 m 5
 1191.41 0 l 5
 1171.88 0 l 5
 1171.88 19.5312 l 5
 1191.41 19.5312 l 5
1230.47 -19.5312 m 5
 1230.47 -39.0625 l 5
 1210.94 -39.0625 l 5
 1210.94 -19.5312 l 5
 1230.47 -19.5312 l 5
1230.47 19.5312 m 5
 1230.47 0 l 5
 1210.94 0 l 5
 1210.94 19.5312 l 5
 1230.47 19.5312 l 5
1269.53 -19.5312 m 5
 1269.53 -39.0625 l 5
 1250 -39.0625 l 5
 1250 -19.5312 l 5
 1269.53 -19.5312 l 5
1269.53 19.5312 m 5
 1269.53 0 l 5
 1250 0 l 5
 1250 19.5312 l 5
 1269.53 19.5312 l 5
957.031 -19.5312 m 5
 957.031 -39.0625 l 5
 937.5 -39.0625 l 5
 937.5 -19.5312 l 5
 957.031 -19.5312 l 5
957.031 19.5312 m 5
 957.031 0 l 5
 937.5 0 l 5
 937.5 19.5312 l 5
 957.031 19.5312 l 5
996.094 -19.5312 m 5
 996.094 -39.0625 l 5
 976.562 -39.0625 l 5
 976.562 -19.5312 l 5
 996.094 -19.5312 l 5
996.094 19.5312 m 5
 996.094 0 l 5
 976.562 0 l 5
 976.562 19.5312 l 5
 996.094 19.5312 l 5
1035.16 -19.5312 m 5
 1035.16 -39.0625 l 5
 1015.62 -39.0625 l 5
 1015.62 -19.5312 l 5
 1035.16 -19.5312 l 5
1035.16 19.5312 m 5
 1035.16 0 l 5
 1015.62 0 l 5
 1015.62 19.5312 l 5
 1035.16 19.5312 l 5
1074.22 -19.5312 m 5
 1074.22 -39.0625 l 5
 1054.69 -39.0625 l 5
 1054.69 -19.5312 l 5
 1074.22 -19.5312 l 5
1074.22 19.5312 m 5
 1074.22 0 l 5
 1054.69 0 l 5
 1054.69 19.5312 l 5
 1074.22 19.5312 l 5
EndSplineSet
EndChar

StartChar: percent
Encoding: 37 37 47
Width: 1000
VWidth: 0
Flags: H
LayerCount: 4
Back
SplineSet
105.732 -425.438 m 5x80001fd00f03
 50.3135 -425.438 l 5
 50.3135 -370.012 l 5
 105.732 -370.012 l 5
 105.732 -425.438 l 5x80001fd00f03
105.732 -314.585 m 5xa0001fd00f03
 50.3135 -314.585 l 5
 50.3135 -259.159 l 5
 105.732 -259.159 l 5
 105.732 -314.585 l 5xa0001fd00f03
105.732 -203.731 m 5x88001fd00f03
 50.3135 -203.731 l 5
 50.3135 -148.306 l 5
 105.732 -148.306 l 5
 105.732 -203.731 l 5x88001fd00f03
216.57 -425.438 m 5x80001fc40f03
 161.151 -425.438 l 5
 161.151 -370.012 l 5
 216.57 -370.012 l 5
 216.57 -425.438 l 5x80001fc40f03
216.57 -314.585 m 5xa0001fc40f03
 161.151 -314.585 l 5
 161.151 -259.159 l 5
 216.57 -259.159 l 5
 216.57 -314.585 l 5xa0001fc40f03
216.57 -203.731 m 5x88001fc40f03
 161.151 -203.731 l 5
 161.151 -148.306 l 5
 216.57 -148.306 l 5
 216.57 -203.731 l 5x88001fc40f03
327.408 -425.438 m 5x80001fc10f03
 271.989 -425.438 l 5
 271.989 -370.012 l 5
 327.408 -370.012 l 5
 327.408 -425.438 l 5x80001fc10f03
327.408 -314.585 m 5xa0001fc18f03
 271.989 -314.585 l 5
 271.989 -259.159 l 5
 327.408 -259.159 l 5
 327.408 -314.585 l 5xa0001fc18f03
327.408 -203.731 m 5x88001fc18f03
 271.989 -203.731 l 5
 271.989 -148.306 l 5
 327.408 -148.306 l 5
 327.408 -203.731 l 5x88001fc18f03
881.602 -370.012 m 5x80001fc00f43
 881.602 -425.438 l 5
 826.179 -425.438 l 5
 826.179 -370.012 l 5
 881.602 -370.012 l 5x80001fc00f43
881.602 -259.159 m 5xa0001fc00f43
 881.602 -314.585 l 5
 826.179 -314.585 l 5
 826.179 -259.159 l 5
 881.602 -259.159 l 5xa0001fc00f43
881.602 -148.306 m 5x88001fc00f43
 881.602 -203.731 l 5
 826.179 -203.731 l 5
 826.179 -148.306 l 5
 881.602 -148.306 l 5x88001fc00f43
992.435 -425.438 m 5x80001fc00f13
 937.012 -425.438 l 5
 937.012 -370.012 l 5
 992.435 -370.012 l 5
 992.435 -425.438 l 5x80001fc00f13
992.435 -314.585 m 5xa0001fc00f1b
 937.012 -314.585 l 5
 937.012 -259.159 l 5
 992.435 -259.159 l 5
 992.435 -314.585 l 5xa0001fc00f1b
992.435 -203.731 m 5x88001fc00f1b
 937.012 -203.731 l 5
 937.012 -148.306 l 5
 992.435 -148.306 l 5
 992.435 -203.731 l 5x88001fc00f1b
1103.27 -425.438 m 5x80001fc00f07
 1047.85 -425.438 l 5
 1047.85 -370.012 l 5
 1103.27 -370.012 l 5
 1103.27 -425.438 l 5x80001fc00f07
1103.27 -314.585 m 5xa0001fc00f07
 1047.85 -314.585 l 5
 1047.85 -259.159 l 5
 1103.27 -259.159 l 5
 1103.27 -314.585 l 5xa0001fc00f07
1103.27 -203.731 m 5x88001fc00f07
 1047.85 -203.731 l 5
 1047.85 -148.306 l 5
 1103.27 -148.306 l 5
 1103.27 -203.731 l 5x88001fc00f07
1214.11 -425.438 m 5
 1158.69 -425.438 l 5
 1158.69 -370.012 l 5
 1214.11 -370.012 l 5
 1214.11 -425.438 l 5
1214.11 -314.585 m 5xa0001fc00f03
 1158.69 -314.585 l 5
 1158.69 -259.159 l 5
 1214.11 -259.159 l 5
 1214.11 -314.585 l 5xa0001fc00f03
1214.11 -203.731 m 5x88001fc00f03
 1158.69 -203.731 l 5
 1158.69 -148.306 l 5
 1214.11 -148.306 l 5
 1214.11 -203.731 l 5x88001fc00f03
549.086 -425.438 m 5x80001fc01f03
 493.665 -425.438 l 5
 493.665 -370.012 l 5
 549.086 -370.012 l 5
 549.086 -425.438 l 5x80001fc01f03
549.086 -314.585 m 5xa0001fc01f03
 493.665 -314.585 l 5
 493.665 -259.159 l 5
 549.086 -259.159 l 5
 549.086 -314.585 l 5xa0001fc01f03
549.086 -203.731 m 5x88001fc01f03
 493.665 -203.731 l 5
 493.665 -148.306 l 5
 549.086 -148.306 l 5
 549.086 -203.731 l 5x88001fc01f03
659.922 -425.438 m 5
 604.507 -425.438 l 5
 604.507 -370.012 l 5
 659.922 -370.012 l 5
 659.922 -425.438 l 5
659.922 -314.585 m 5xa0001fc00f03
 604.507 -314.585 l 5
 604.507 -259.159 l 5
 659.922 -259.159 l 5
 659.922 -314.585 l 5xa0001fc00f03
659.922 -203.731 m 5x88001fc00f03
 604.507 -203.731 l 5
 604.507 -148.306 l 5
 659.922 -148.306 l 5
 659.922 -203.731 l 5x88001fc00f03
770.755 -425.438 m 5
 715.339 -425.438 l 5
 715.339 -370.012 l 5
 770.755 -370.012 l 5
 770.755 -425.438 l 5
770.755 -314.585 m 5xa0001fc00f03
 715.339 -314.585 l 5
 715.339 -259.159 l 5
 770.755 -259.159 l 5
 770.755 -314.585 l 5xa0001fc00f03
770.755 -203.731 m 5x88001fc00f03
 715.339 -203.731 l 5
 715.339 -148.306 l 5
 770.755 -148.306 l 5
 770.755 -203.731 l 5x88001fc00f03
105.732 17.9746 m 5x80801fd00f03
 50.3135 17.9746 l 5
 50.3135 73.4004 l 5
 105.732 73.4004 l 5
 105.732 17.9746 l 5x80801fd00f03
105.732 128.827 m 5x80201fd00f03
 50.3135 128.827 l 5
 50.3135 184.253 l 5
 105.732 184.253 l 5
 105.732 128.827 l 5x80201fd00f03
105.732 239.68 m 5x80081fd00f03
 50.3135 239.68 l 5
 50.3135 295.107 l 5
 105.732 295.107 l 5
 105.732 239.68 l 5x80081fd00f03
105.732 350.532 m 5x80021fd00f03
 50.3135 350.532 l 5
 50.3135 405.959 l 5
 105.732 405.959 l 5
 105.732 350.532 l 5x80021fd00f03
105.732 461.387 m 5x80009fd00f03
 50.3135 461.387 l 5
 50.3135 516.817 l 5
 105.732 516.817 l 5
 105.732 461.387 l 5x80009fd00f03
105.732 572.235 m 5x80003fd00f03
 50.3135 572.235 l 5
 50.3135 627.663 l 5
 105.732 627.663 l 5
 105.732 572.235 l 5x80003fd00f03
105.732 683.093 m 5
 50.3135 683.093 l 5
 50.3135 738.516 l 5
 105.732 738.516 l 5
 105.732 683.093 l 5
216.57 17.9746 m 5x80801fc40f03
 161.151 17.9746 l 5
 161.151 73.4004 l 5
 216.57 73.4004 l 5
 216.57 17.9746 l 5x80801fc40f03
216.57 128.827 m 5x80201fc40f03
 161.151 128.827 l 5
 161.151 184.253 l 5
 216.57 184.253 l 5
 216.57 128.827 l 5x80201fc40f03
216.57 239.68 m 5x80081fc40f03
 161.151 239.68 l 5
 161.151 295.107 l 5
 216.57 295.107 l 5
 216.57 239.68 l 5x80081fc40f03
216.57 350.532 m 5x80021fc40f03
 161.151 350.532 l 5
 161.151 405.959 l 5
 216.57 405.959 l 5
 216.57 350.532 l 5x80021fc40f03
216.57 461.387 m 5x80009fc40f03
 161.151 461.387 l 5
 161.151 516.817 l 5
 216.57 516.817 l 5
 216.57 461.387 l 5x80009fc40f03
216.57 572.235 m 5x80003fc40f03
 161.151 572.235 l 5
 161.151 627.663 l 5
 216.57 627.663 l 5
 216.57 572.235 l 5x80003fc40f03
216.57 683.093 m 5
 161.151 683.093 l 5
 161.151 738.516 l 5
 216.57 738.516 l 5
 216.57 683.093 l 5
327.408 17.9746 m 5x80801fc18f03
 271.989 17.9746 l 5
 271.989 73.4004 l 5
 327.408 73.4004 l 5
 327.408 17.9746 l 5x80801fc18f03
327.408 128.827 m 5x80201fc18f03
 271.989 128.827 l 5
 271.989 184.253 l 5
 327.408 184.253 l 5
 327.408 128.827 l 5x80201fc18f03
327.408 239.68 m 5x80081fc18f03
 271.989 239.68 l 5
 271.989 295.107 l 5
 327.408 295.107 l 5
 327.408 239.68 l 5x80081fc18f03
327.408 350.532 m 5x80021fc18f03
 271.989 350.532 l 5
 271.989 405.959 l 5
 327.408 405.959 l 5
 327.408 350.532 l 5x80021fc18f03
327.408 461.387 m 5x80009fc18f03
 271.989 461.387 l 5
 271.989 516.817 l 5
 327.408 516.817 l 5
 327.408 461.387 l 5x80009fc18f03
327.408 572.235 m 5x80003fc10f03
 271.989 572.235 l 5
 271.989 627.663 l 5
 327.408 627.663 l 5
 327.408 572.235 l 5x80003fc10f03
327.408 683.093 m 5
 271.989 683.093 l 5
 271.989 738.516 l 5
 327.408 738.516 l 5
 327.408 683.093 l 5
105.732 904.798 m 5x80001fd00f03
 50.3135 904.798 l 5
 50.3135 960.228 l 5
 105.732 960.228 l 5
 105.732 904.798 l 5x80001fd00f03
216.57 904.798 m 5x80001fc40f03
 161.151 904.798 l 5
 161.151 960.228 l 5
 216.57 960.228 l 5
 216.57 904.798 l 5x80001fc40f03
327.408 904.798 m 5x80001fc10f03
 271.989 904.798 l 5
 271.989 960.228 l 5
 327.408 960.228 l 5
 327.408 904.798 l 5x80001fc10f03
881.602 73.4004 m 5x80801fc00f43
 881.602 17.9746 l 5
 826.179 17.9746 l 5
 826.179 73.4004 l 5
 881.602 73.4004 l 5x80801fc00f43
881.602 184.253 m 5x80201fc00f43
 881.602 128.827 l 5
 826.179 128.827 l 5
 826.179 184.253 l 5
 881.602 184.253 l 5x80201fc00f43
881.602 295.107 m 5x80081fc00f43
 881.602 239.68 l 5
 826.179 239.68 l 5
 826.179 295.107 l 5
 881.602 295.107 l 5x80081fc00f43
881.602 405.959 m 5x80021fc00f43
 881.602 350.532 l 5
 826.179 350.532 l 5
 826.179 405.959 l 5
 881.602 405.959 l 5x80021fc00f43
881.602 516.817 m 5x80009fc00f43
 881.602 461.387 l 5
 826.179 461.387 l 5
 826.179 516.817 l 5
 881.602 516.817 l 5x80009fc00f43
881.602 627.663 m 5x80003fc00f43
 881.602 572.235 l 5
 826.179 572.235 l 5
 826.179 627.663 l 5
 881.602 627.663 l 5x80003fc00f43
881.602 738.516 m 5
 881.602 683.093 l 5
 826.179 683.093 l 5
 826.179 738.516 l 5
 881.602 738.516 l 5
992.435 17.9746 m 5x80801fc00f1b
 937.012 17.9746 l 5
 937.012 73.4004 l 5
 992.435 73.4004 l 5
 992.435 17.9746 l 5x80801fc00f1b
992.435 128.827 m 5x80201fc00f1b
 937.012 128.827 l 5
 937.012 184.253 l 5
 992.435 184.253 l 5
 992.435 128.827 l 5x80201fc00f1b
992.435 239.68 m 5x80081fc00f1b
 937.012 239.68 l 5
 937.012 295.107 l 5
 992.435 295.107 l 5
 992.435 239.68 l 5x80081fc00f1b
992.435 350.532 m 5x80021fc00f1b
 937.012 350.532 l 5
 937.012 405.959 l 5
 992.435 405.959 l 5
 992.435 350.532 l 5x80021fc00f1b
992.435 461.387 m 5x80009fc00f1b
 937.012 461.387 l 5
 937.012 516.817 l 5
 992.435 516.817 l 5
 992.435 461.387 l 5x80009fc00f1b
992.435 572.235 m 5x80003fc00f13
 937.012 572.235 l 5
 937.012 627.663 l 5
 992.435 627.663 l 5
 992.435 572.235 l 5x80003fc00f13
992.435 683.093 m 5
 937.012 683.093 l 5
 937.012 738.516 l 5
 992.435 738.516 l 5
 992.435 683.093 l 5
1103.27 17.9746 m 5x80801fc00f07
 1047.85 17.9746 l 5
 1047.85 73.4004 l 5
 1103.27 73.4004 l 5
 1103.27 17.9746 l 5x80801fc00f07
1103.27 128.827 m 5x80201fc00f07
 1047.85 128.827 l 5
 1047.85 184.253 l 5
 1103.27 184.253 l 5
 1103.27 128.827 l 5x80201fc00f07
1103.27 239.68 m 5x80081fc00f07
 1047.85 239.68 l 5
 1047.85 295.107 l 5
 1103.27 295.107 l 5
 1103.27 239.68 l 5x80081fc00f07
1103.27 350.532 m 5x80021fc00f07
 1047.85 350.532 l 5
 1047.85 405.959 l 5
 1103.27 405.959 l 5
 1103.27 350.532 l 5x80021fc00f07
1103.27 461.387 m 5x80009fc00f07
 1047.85 461.387 l 5
 1047.85 516.817 l 5
 1103.27 516.817 l 5
 1103.27 461.387 l 5x80009fc00f07
1103.27 572.235 m 5x80003fc00f07
 1047.85 572.235 l 5
 1047.85 627.663 l 5
 1103.27 627.663 l 5
 1103.27 572.235 l 5x80003fc00f07
1103.27 683.093 m 5
 1047.85 683.093 l 5
 1047.85 738.516 l 5
 1103.27 738.516 l 5
 1103.27 683.093 l 5
1214.11 17.9746 m 5x80801fc00f03
 1158.69 17.9746 l 5
 1158.69 73.4004 l 5
 1214.11 73.4004 l 5
 1214.11 17.9746 l 5x80801fc00f03
1214.11 128.827 m 5x80201fc00f03
 1158.69 128.827 l 5
 1158.69 184.253 l 5
 1214.11 184.253 l 5
 1214.11 128.827 l 5x80201fc00f03
1214.11 239.68 m 5x80081fc00f03
 1158.69 239.68 l 5
 1158.69 295.107 l 5
 1214.11 295.107 l 5
 1214.11 239.68 l 5x80081fc00f03
1214.11 350.532 m 5x80021fc00f03
 1158.69 350.532 l 5
 1158.69 405.959 l 5
 1214.11 405.959 l 5
 1214.11 350.532 l 5x80021fc00f03
1214.11 461.387 m 5x80009fc00f03
 1158.69 461.387 l 5
 1158.69 516.817 l 5
 1214.11 516.817 l 5
 1214.11 461.387 l 5x80009fc00f03
1214.11 572.235 m 5x80003fc00f03
 1158.69 572.235 l 5
 1158.69 627.663 l 5
 1214.11 627.663 l 5
 1214.11 572.235 l 5x80003fc00f03
1214.11 683.093 m 5
 1158.69 683.093 l 5
 1158.69 738.516 l 5
 1214.11 738.516 l 5
 1214.11 683.093 l 5
549.086 17.9746 m 5x80801fc01f03
 493.665 17.9746 l 5
 493.665 73.4004 l 5
 549.086 73.4004 l 5
 549.086 17.9746 l 5x80801fc01f03
549.086 128.827 m 5x80201fc01f03
 493.665 128.827 l 5
 493.665 184.253 l 5
 549.086 184.253 l 5
 549.086 128.827 l 5x80201fc01f03
549.086 239.68 m 5x80081fc01f03
 493.665 239.68 l 5
 493.665 295.107 l 5
 549.086 295.107 l 5
 549.086 239.68 l 5x80081fc01f03
549.086 350.532 m 5x80021fc01f03
 493.665 350.532 l 5
 493.665 405.959 l 5
 549.086 405.959 l 5
 549.086 350.532 l 5x80021fc01f03
549.086 461.387 m 5x80009fc01f03
 493.665 461.387 l 5
 493.665 516.817 l 5
 549.086 516.817 l 5
 549.086 461.387 l 5x80009fc01f03
549.086 572.235 m 5x80003fc01f03
 493.665 572.235 l 5
 493.665 627.663 l 5
 549.086 627.663 l 5
 549.086 572.235 l 5x80003fc01f03
549.086 683.093 m 5
 493.665 683.093 l 5
 493.665 738.516 l 5
 549.086 738.516 l 5
 549.086 683.093 l 5
659.922 17.9746 m 5x80801fc00f03
 604.507 17.9746 l 5
 604.507 73.4004 l 5
 659.922 73.4004 l 5
 659.922 17.9746 l 5x80801fc00f03
659.922 128.827 m 5x80201fc00f03
 604.507 128.827 l 5
 604.507 184.253 l 5
 659.922 184.253 l 5
 659.922 128.827 l 5x80201fc00f03
659.922 239.68 m 5x80081fc00f03
 604.507 239.68 l 5
 604.507 295.107 l 5
 659.922 295.107 l 5
 659.922 239.68 l 5x80081fc00f03
659.922 350.532 m 5x80021fc00f03
 604.507 350.532 l 5
 604.507 405.959 l 5
 659.922 405.959 l 5
 659.922 350.532 l 5x80021fc00f03
659.922 461.387 m 5x80009fc00f03
 604.507 461.387 l 5
 604.507 516.817 l 5
 659.922 516.817 l 5
 659.922 461.387 l 5x80009fc00f03
659.922 572.235 m 5x80003fc00f03
 604.507 572.235 l 5
 604.507 627.663 l 5
 659.922 627.663 l 5
 659.922 572.235 l 5x80003fc00f03
659.922 683.093 m 5
 604.507 683.093 l 5
 604.507 738.516 l 5
 659.922 738.516 l 5
 659.922 683.093 l 5
770.755 17.9746 m 5x80801fc00f03
 715.339 17.9746 l 5
 715.339 73.4004 l 5
 770.755 73.4004 l 5
 770.755 17.9746 l 5x80801fc00f03
770.755 128.827 m 5x80201fc00f03
 715.339 128.827 l 5
 715.339 184.253 l 5
 770.755 184.253 l 5
 770.755 128.827 l 5x80201fc00f03
770.755 239.68 m 5x80081fc00f03
 715.339 239.68 l 5
 715.339 295.107 l 5
 770.755 295.107 l 5
 770.755 239.68 l 5x80081fc00f03
770.755 350.532 m 5x80021fc00f03
 715.339 350.532 l 5
 715.339 405.959 l 5
 770.755 405.959 l 5
 770.755 350.532 l 5x80021fc00f03
770.755 461.387 m 5x80009fc00f03
 715.339 461.387 l 5
 715.339 516.817 l 5
 770.755 516.817 l 5
 770.755 461.387 l 5x80009fc00f03
770.755 572.235 m 5x80003fc00f03
 715.339 572.235 l 5
 715.339 627.663 l 5
 770.755 627.663 l 5
 770.755 572.235 l 5x80003fc00f03
770.755 683.093 m 5
 715.339 683.093 l 5
 715.339 738.516 l 5
 770.755 738.516 l 5
 770.755 683.093 l 5
881.602 960.228 m 5x80001fc00f43
 881.602 904.798 l 5
 826.179 904.798 l 5
 826.179 960.228 l 5
 881.602 960.228 l 5x80001fc00f43
992.435 904.798 m 5x80001fc00f13
 937.012 904.798 l 5
 937.012 960.228 l 5
 992.435 960.228 l 5
 992.435 904.798 l 5x80001fc00f13
1103.27 904.798 m 5x80001fc00f07
 1047.85 904.798 l 5
 1047.85 960.228 l 5
 1103.27 960.228 l 5
 1103.27 904.798 l 5x80001fc00f07
1214.11 904.798 m 5
 1158.69 904.798 l 5
 1158.69 960.228 l 5
 1214.11 960.228 l 5
 1214.11 904.798 l 5
549.086 904.798 m 5x80001fc01f03
 493.665 904.798 l 5
 493.665 960.228 l 5
 549.086 960.228 l 5
 549.086 904.798 l 5x80001fc01f03
659.922 904.798 m 5
 604.507 904.798 l 5
 604.507 960.228 l 5
 659.922 960.228 l 5
 659.922 904.798 l 5
770.755 904.798 m 5
 715.339 904.798 l 5
 715.339 960.228 l 5
 770.755 960.228 l 5
 770.755 904.798 l 5
438.246 -370.012 m 5x80001fc04f03
 438.246 -425.438 l 5
 382.826 -425.438 l 5
 382.826 -370.012 l 5
 438.246 -370.012 l 5x80001fc04f03
438.246 -259.159 m 5xa0001fc04f03
 438.246 -314.585 l 5
 382.826 -314.585 l 5
 382.826 -259.159 l 5
 438.246 -259.159 l 5xa0001fc04f03
438.246 -148.306 m 5x88001fc04f03
 438.246 -203.731 l 5
 382.826 -203.731 l 5
 382.826 -148.306 l 5
 438.246 -148.306 l 5x88001fc04f03
105.732 -37.4531 m 5x82001fd00f03
 105.732 -92.8789 l 5
 50.3135 -92.8789 l 5
 50.3135 -37.4531 l 5
 105.732 -37.4531 l 5x82001fd00f03
216.57 -37.4531 m 5x82001fc40f03
 216.57 -92.8789 l 5
 161.151 -92.8789 l 5
 161.151 -37.4531 l 5
 216.57 -37.4531 l 5x82001fc40f03
327.408 -37.4531 m 5x82001fc10f03
 327.408 -92.8789 l 5x82001fc18f03
 271.989 -92.8789 l 5
 271.989 -37.4531 l 5
 327.408 -37.4531 l 5x82001fc10f03
105.732 849.368 m 5x80001fd00f03
 105.732 793.945 l 5
 50.3135 793.945 l 5
 50.3135 849.368 l 5
 105.732 849.368 l 5x80001fd00f03
216.57 849.368 m 5x80001fc40f03
 216.57 793.945 l 5
 161.151 793.945 l 5
 161.151 849.368 l 5
 216.57 849.368 l 5x80001fc40f03
327.408 849.368 m 5x80001fc10f03
 327.408 793.945 l 5
 271.989 793.945 l 5
 271.989 849.368 l 5
 327.408 849.368 l 5x80001fc10f03
826.179 -37.4531 m 5x82001fc00f43
 881.602 -37.4531 l 5
 881.602 -92.8789 l 5
 826.179 -92.8789 l 5
 826.179 -37.4531 l 5x82001fc00f43
992.435 -37.4531 m 5x82001fc00f13
 992.435 -92.8789 l 5x82001fc00f1b
 937.012 -92.8789 l 5
 937.012 -37.4531 l 5
 992.435 -37.4531 l 5x82001fc00f13
1103.27 -37.4531 m 5x82001fc00f07
 1103.27 -92.8789 l 5
 1047.85 -92.8789 l 5
 1047.85 -37.4531 l 5
 1103.27 -37.4531 l 5x82001fc00f07
1214.11 -37.4531 m 5
 1214.11 -92.8789 l 5
 1158.69 -92.8789 l 5
 1158.69 -37.4531 l 5
 1214.11 -37.4531 l 5
438.246 -37.4531 m 5x82001fc04f03
 438.246 -92.8789 l 5
 382.826 -92.8789 l 5
 382.826 -37.4531 l 5
 438.246 -37.4531 l 5x82001fc04f03
438.246 73.4004 m 5
 438.246 17.9746 l 5
 382.826 17.9746 l 5x80801fc04f03
 382.826 73.4004 l 5
 438.246 73.4004 l 5
438.246 184.253 m 5x80201fc04f03
 438.246 128.827 l 5
 382.826 128.827 l 5
 382.826 184.253 l 5
 438.246 184.253 l 5x80201fc04f03
438.246 295.107 m 5x80081fc04f03
 438.246 239.68 l 5
 382.826 239.68 l 5
 382.826 295.107 l 5
 438.246 295.107 l 5x80081fc04f03
438.246 405.959 m 5x80021fc04f03
 438.246 350.532 l 5
 382.826 350.532 l 5
 382.826 405.959 l 5
 438.246 405.959 l 5x80021fc04f03
438.246 516.817 m 5x80009fc04f03
 438.246 461.387 l 5
 382.826 461.387 l 5
 382.826 516.817 l 5
 438.246 516.817 l 5x80009fc04f03
438.246 627.663 m 5x80003fc04f03
 438.246 572.235 l 5
 382.826 572.235 l 5
 382.826 627.663 l 5
 438.246 627.663 l 5x80003fc04f03
438.246 738.516 m 5
 438.246 683.093 l 5
 382.826 683.093 l 5
 382.826 738.516 l 5
 438.246 738.516 l 5
549.086 -37.4531 m 5x82001fc01f03
 549.086 -92.8789 l 5
 493.665 -92.8789 l 5
 493.665 -37.4531 l 5
 549.086 -37.4531 l 5x82001fc01f03
659.922 -37.4531 m 5
 659.922 -92.8789 l 5
 604.507 -92.8789 l 5
 604.507 -37.4531 l 5
 659.922 -37.4531 l 5
770.755 -37.4531 m 5
 770.755 -92.8789 l 5
 715.339 -92.8789 l 5
 715.339 -37.4531 l 5
 770.755 -37.4531 l 5
826.179 849.368 m 5x80001fc00f43
 881.602 849.368 l 5
 881.602 793.945 l 5
 826.179 793.945 l 5
 826.179 849.368 l 5x80001fc00f43
992.435 849.368 m 5x80001fc00f13
 992.435 793.945 l 5
 937.012 793.945 l 5
 937.012 849.368 l 5
 992.435 849.368 l 5x80001fc00f13
1103.27 849.368 m 5x80001fc00f07
 1103.27 793.945 l 5
 1047.85 793.945 l 5
 1047.85 849.368 l 5
 1103.27 849.368 l 5x80001fc00f07
1214.11 849.368 m 5
 1214.11 793.945 l 5
 1158.69 793.945 l 5
 1158.69 849.368 l 5
 1214.11 849.368 l 5
438.246 849.368 m 5x80001fc04f03
 438.246 793.945 l 5
 382.826 793.945 l 5
 382.826 849.368 l 5
 438.246 849.368 l 5x80001fc04f03
438.246 960.228 m 5
 438.246 904.798 l 5
 382.826 904.798 l 5
 382.826 960.228 l 5
 438.246 960.228 l 5
549.086 849.368 m 5x80001fc01f03
 549.086 793.945 l 5
 493.665 793.945 l 5
 493.665 849.368 l 5
 549.086 849.368 l 5x80001fc01f03
659.922 849.368 m 5
 659.922 793.945 l 5
 604.507 793.945 l 5
 604.507 849.368 l 5
 659.922 849.368 l 5
770.755 849.368 m 5
 770.755 793.945 l 5
 715.339 793.945 l 5
 715.339 849.368 l 5
 770.755 849.368 l 5
50.3145 -370.009 m 5xc0001fe00f03
 -5.10449 -370.009 l 5
 -5.10449 -314.582 l 5
 50.3145 -314.582 l 5
 50.3145 -370.009 l 5xc0001fe00f03
50.3145 -259.155 m 5x90001fe00f03
 -5.10449 -259.155 l 5
 -5.10449 -203.729 l 5
 50.3145 -203.729 l 5
 50.3145 -259.155 l 5x90001fe00f03
50.3145 -148.302 m 5x84001fe00f03
 -5.10449 -148.302 l 5
 -5.10449 -92.876 l 5
 50.3145 -92.876 l 5
 50.3145 -148.302 l 5x84001fe00f03
161.152 -370.009 m 5xc0001fc80f03
 105.733 -370.009 l 5
 105.733 -314.582 l 5
 161.152 -314.582 l 5
 161.152 -370.009 l 5xc0001fc80f03
161.152 -259.155 m 5x90001fc80f03
 105.733 -259.155 l 5
 105.733 -203.729 l 5
 161.152 -203.729 l 5
 161.152 -259.155 l 5x90001fc80f03
161.152 -148.302 m 5x84001fc80f03
 105.733 -148.302 l 5
 105.733 -92.876 l 5
 161.152 -92.876 l 5
 161.152 -148.302 l 5x84001fc80f03
271.99 -370.009 m 5xc0001fc20f03
 216.571 -370.009 l 5
 216.571 -314.582 l 5
 271.99 -314.582 l 5
 271.99 -370.009 l 5xc0001fc20f03
271.99 -259.155 m 5x90001fc20f03
 216.571 -259.155 l 5
 216.571 -203.729 l 5
 271.99 -203.729 l 5
 271.99 -259.155 l 5x90001fc20f03
271.99 -148.302 m 5x84001fc20f03
 216.571 -148.302 l 5
 216.571 -92.876 l 5
 271.99 -92.876 l 5
 271.99 -148.302 l 5x84001fc20f03
826.185 -314.582 m 5xc0001fc00f83
 826.185 -370.009 l 5
 770.762 -370.009 l 5
 770.762 -314.582 l 5
 826.185 -314.582 l 5xc0001fc00f83
826.185 -203.729 m 5x90001fc00f83
 826.185 -259.155 l 5
 770.762 -259.155 l 5
 770.762 -203.729 l 5
 826.185 -203.729 l 5x90001fc00f83
826.185 -92.876 m 5x84001fc00f83
 826.185 -148.302 l 5
 770.762 -148.302 l 5
 770.762 -92.876 l 5
 826.185 -92.876 l 5x84001fc00f83
937.019 -370.009 m 5xc0001fc00f23
 881.595 -370.009 l 5
 881.595 -314.582 l 5
 937.019 -314.582 l 5
 937.019 -370.009 l 5xc0001fc00f23
937.019 -259.155 m 5x90001fc00f23
 881.595 -259.155 l 5
 881.595 -203.729 l 5
 937.019 -203.729 l 5
 937.019 -259.155 l 5x90001fc00f23
937.019 -148.302 m 5x84001fc00f23
 881.595 -148.302 l 5
 881.595 -92.876 l 5
 937.019 -92.876 l 5
 937.019 -148.302 l 5x84001fc00f23
1047.86 -370.009 m 5xc0001fc00f1b
 992.435 -370.009 l 5
 992.435 -314.582 l 5
 1047.86 -314.582 l 5
 1047.86 -370.009 l 5xc0001fc00f1b
1047.86 -259.155 m 5x90001fc00f1b
 992.435 -259.155 l 5
 992.435 -203.729 l 5
 1047.86 -203.729 l 5
 1047.86 -259.155 l 5x90001fc00f1b
1047.86 -148.302 m 5x84001fc00f1b
 992.435 -148.302 l 5
 992.435 -92.876 l 5
 1047.86 -92.876 l 5
 1047.86 -148.302 l 5x84001fc00f1b
1158.69 -370.009 m 5xc0001fc00f07
 1103.27 -370.009 l 5
 1103.27 -314.582 l 5
 1158.69 -314.582 l 5
 1158.69 -370.009 l 5xc0001fc00f07
1158.69 -259.155 m 5x90001fc00f07
 1103.27 -259.155 l 5
 1103.27 -203.729 l 5
 1158.69 -203.729 l 5
 1158.69 -259.155 l 5x90001fc00f07
1158.69 -148.302 m 5x84001fc00f07
 1103.27 -148.302 l 5
 1103.27 -92.876 l 5
 1158.69 -92.876 l 5
 1158.69 -148.302 l 5x84001fc00f07
493.667 -370.009 m 5xc0001fc02f03
 438.247 -370.009 l 5
 438.247 -314.582 l 5
 493.667 -314.582 l 5
 493.667 -370.009 l 5xc0001fc02f03
493.667 -259.155 m 5x90001fc02f03
 438.247 -259.155 l 5
 438.247 -203.729 l 5
 493.667 -203.729 l 5
 493.667 -259.155 l 5x90001fc02f03
493.667 -148.302 m 5x84001fc02f03
 438.247 -148.302 l 5
 438.247 -92.876 l 5
 493.667 -92.876 l 5
 493.667 -148.302 l 5x84001fc02f03
604.501 -370.009 m 5xc0001fc00f03
 549.089 -370.009 l 5
 549.089 -314.582 l 5
 604.501 -314.582 l 5
 604.501 -370.009 l 5xc0001fc00f03
604.501 -259.155 m 5x90001fc00f03
 549.089 -259.155 l 5
 549.089 -203.729 l 5
 604.501 -203.729 l 5
 604.501 -259.155 l 5x90001fc00f03
604.501 -148.302 m 5x84001fc00f03
 549.089 -148.302 l 5
 549.089 -92.876 l 5
 604.501 -92.876 l 5
 604.501 -148.302 l 5x84001fc00f03
715.339 -370.009 m 5xc0001fc00f03
 659.922 -370.009 l 5
 659.922 -314.582 l 5
 715.339 -314.582 l 5
 715.339 -370.009 l 5xc0001fc00f03
715.339 -259.155 m 5x90001fc00f03
 659.922 -259.155 l 5
 659.922 -203.729 l 5
 715.339 -203.729 l 5
 715.339 -259.155 l 5x90001fc00f03
715.339 -148.302 m 5x84001fc00f03
 659.922 -148.302 l 5
 659.922 -92.876 l 5
 715.339 -92.876 l 5
 715.339 -148.302 l 5x84001fc00f03
50.3145 73.4033 m 5x80401fe00f03
 -5.10449 73.4033 l 5
 -5.10449 128.83 l 5
 50.3145 128.83 l 5
 50.3145 73.4033 l 5x80401fe00f03
50.3145 184.257 m 5x80101fe00f03
 -5.10449 184.257 l 5
 -5.10449 239.683 l 5
 50.3145 239.683 l 5
 50.3145 184.257 l 5x80101fe00f03
50.3145 295.109 m 5x80041fe00f03
 -5.10449 295.109 l 5
 -5.10449 350.537 l 5
 50.3145 350.537 l 5
 50.3145 295.109 l 5x80041fe00f03
50.3145 405.962 m 5x80011fe00f03
 -5.10449 405.962 l 5
 -5.10449 461.389 l 5
 50.3145 461.389 l 5
 50.3145 405.962 l 5x80011fe00f03
50.3145 516.816 m 5x80005fe00f03
 -5.10449 516.816 l 5
 -5.10449 572.247 l 5
 50.3145 572.247 l 5
 50.3145 516.816 l 5x80005fe00f03
50.3145 627.665 m 5
 -5.10449 627.665 l 5
 -5.10449 683.093 l 5
 50.3145 683.093 l 5
 50.3145 627.665 l 5
50.3145 738.522 m 5
 -5.10449 738.522 l 5
 -5.10449 793.945 l 5
 50.3145 793.945 l 5
 50.3145 738.522 l 5
161.152 73.4033 m 5x80401fc80f03
 105.733 73.4033 l 5
 105.733 128.83 l 5
 161.152 128.83 l 5
 161.152 73.4033 l 5x80401fc80f03
161.152 184.257 m 5x80101fc80f03
 105.733 184.257 l 5
 105.733 239.683 l 5
 161.152 239.683 l 5
 161.152 184.257 l 5x80101fc80f03
161.152 295.109 m 5x80041fc80f03
 105.733 295.109 l 5
 105.733 350.537 l 5
 161.152 350.537 l 5
 161.152 295.109 l 5x80041fc80f03
161.152 405.962 m 5x80011fc80f03
 105.733 405.962 l 5
 105.733 461.389 l 5
 161.152 461.389 l 5
 161.152 405.962 l 5x80011fc80f03
161.152 516.816 m 5x80005fc80f03
 105.733 516.816 l 5
 105.733 572.247 l 5
 161.152 572.247 l 5
 161.152 516.816 l 5x80005fc80f03
161.152 627.665 m 5
 105.733 627.665 l 5
 105.733 683.093 l 5
 161.152 683.093 l 5
 161.152 627.665 l 5
161.152 738.522 m 5
 105.733 738.522 l 5
 105.733 793.945 l 5
 161.152 793.945 l 5
 161.152 738.522 l 5
271.99 73.4033 m 5x80401fc20f03
 216.571 73.4033 l 5
 216.571 128.83 l 5
 271.99 128.83 l 5
 271.99 73.4033 l 5x80401fc20f03
271.99 184.257 m 5x80101fc20f03
 216.571 184.257 l 5
 216.571 239.683 l 5
 271.99 239.683 l 5
 271.99 184.257 l 5x80101fc20f03
271.99 295.109 m 5x80041fc20f03
 216.571 295.109 l 5
 216.571 350.537 l 5
 271.99 350.537 l 5
 271.99 295.109 l 5x80041fc20f03
271.99 405.962 m 5x80011fc20f03
 216.571 405.962 l 5
 216.571 461.389 l 5
 271.99 461.389 l 5
 271.99 405.962 l 5x80011fc20f03
271.99 516.816 m 5x80005fc20f03
 216.571 516.816 l 5
 216.571 572.247 l 5
 271.99 572.247 l 5
 271.99 516.816 l 5x80005fc20f03
271.99 627.665 m 5
 216.571 627.665 l 5
 216.571 683.093 l 5
 271.99 683.093 l 5
 271.99 627.665 l 5
271.99 738.522 m 5
 216.571 738.522 l 5
 216.571 793.945 l 5
 271.99 793.945 l 5
 271.99 738.522 l 5
50.3145 960.228 m 5
 -5.10449 960.228 l 5
 -5.10449 1015.66 l 5x80001fe00f03
 50.3145 1015.66 l 5
 50.3145 960.228 l 5
161.152 960.228 m 5x80001fc80f03
 105.733 960.228 l 5
 105.733 1015.66 l 5
 161.152 1015.66 l 5
 161.152 960.228 l 5x80001fc80f03
271.99 960.228 m 5x80001fc20f03
 216.571 960.228 l 5
 216.571 1015.66 l 5
 271.99 1015.66 l 5
 271.99 960.228 l 5x80001fc20f03
826.185 128.83 m 5x80401fc00f83
 826.185 73.4033 l 5
 770.762 73.4033 l 5
 770.762 128.83 l 5
 826.185 128.83 l 5x80401fc00f83
826.185 239.683 m 5x80101fc00f83
 826.185 184.257 l 5
 770.762 184.257 l 5
 770.762 239.683 l 5
 826.185 239.683 l 5x80101fc00f83
826.185 350.537 m 5x80041fc00f83
 826.185 295.109 l 5
 770.762 295.109 l 5
 770.762 350.537 l 5
 826.185 350.537 l 5x80041fc00f83
826.185 461.389 m 5x80011fc00f83
 826.185 405.962 l 5
 770.762 405.962 l 5
 770.762 461.389 l 5
 826.185 461.389 l 5x80011fc00f83
826.185 572.247 m 5x80005fc00f83
 826.185 516.816 l 5
 770.762 516.816 l 5
 770.762 572.247 l 5
 826.185 572.247 l 5x80005fc00f83
826.185 683.093 m 5
 826.185 627.665 l 5
 770.762 627.665 l 5
 770.762 683.093 l 5
 826.185 683.093 l 5
826.185 793.945 m 5
 826.185 738.522 l 5
 770.762 738.522 l 5
 770.762 793.945 l 5
 826.185 793.945 l 5
937.019 73.4033 m 5x80401fc00f23
 881.595 73.4033 l 5
 881.595 128.83 l 5
 937.019 128.83 l 5
 937.019 73.4033 l 5x80401fc00f23
937.019 184.257 m 5x80101fc00f23
 881.595 184.257 l 5
 881.595 239.683 l 5
 937.019 239.683 l 5
 937.019 184.257 l 5x80101fc00f23
937.019 295.109 m 5x80041fc00f23
 881.595 295.109 l 5
 881.595 350.537 l 5
 937.019 350.537 l 5
 937.019 295.109 l 5x80041fc00f23
937.019 405.962 m 5x80011fc00f23
 881.595 405.962 l 5
 881.595 461.389 l 5
 937.019 461.389 l 5
 937.019 405.962 l 5x80011fc00f23
937.019 516.816 m 5x80005fc00f23
 881.595 516.816 l 5
 881.595 572.247 l 5
 937.019 572.247 l 5
 937.019 516.816 l 5x80005fc00f23
937.019 627.665 m 5
 881.595 627.665 l 5
 881.595 683.093 l 5
 937.019 683.093 l 5
 937.019 627.665 l 5
937.019 738.522 m 5
 881.595 738.522 l 5
 881.595 793.945 l 5
 937.019 793.945 l 5
 937.019 738.522 l 5
1047.86 73.4033 m 5x80401fc00f1b
 992.435 73.4033 l 5
 992.435 128.83 l 5
 1047.86 128.83 l 5
 1047.86 73.4033 l 5x80401fc00f1b
1047.86 184.257 m 5x80101fc00f1b
 992.435 184.257 l 5
 992.435 239.683 l 5
 1047.86 239.683 l 5
 1047.86 184.257 l 5x80101fc00f1b
1047.86 295.109 m 5x80041fc00f1b
 992.435 295.109 l 5
 992.435 350.537 l 5
 1047.86 350.537 l 5
 1047.86 295.109 l 5x80041fc00f1b
1047.86 405.962 m 5x80011fc00f1b
 992.435 405.962 l 5
 992.435 461.389 l 5
 1047.86 461.389 l 5
 1047.86 405.962 l 5x80011fc00f1b
1047.86 516.816 m 5x80005fc00f1b
 992.435 516.816 l 5
 992.435 572.247 l 5
 1047.86 572.247 l 5
 1047.86 516.816 l 5x80005fc00f1b
1047.86 627.665 m 5
 992.435 627.665 l 5
 992.435 683.093 l 5
 1047.86 683.093 l 5
 1047.86 627.665 l 5
1047.86 738.522 m 5
 992.435 738.522 l 5
 992.435 793.945 l 5
 1047.86 793.945 l 5
 1047.86 738.522 l 5
1158.69 73.4033 m 5x80401fc00f07
 1103.27 73.4033 l 5
 1103.27 128.83 l 5
 1158.69 128.83 l 5
 1158.69 73.4033 l 5x80401fc00f07
1158.69 184.257 m 5x80101fc00f07
 1103.27 184.257 l 5
 1103.27 239.683 l 5
 1158.69 239.683 l 5
 1158.69 184.257 l 5x80101fc00f07
1158.69 295.109 m 5x80041fc00f07
 1103.27 295.109 l 5
 1103.27 350.537 l 5
 1158.69 350.537 l 5
 1158.69 295.109 l 5x80041fc00f07
1158.69 405.962 m 5x80011fc00f07
 1103.27 405.962 l 5
 1103.27 461.389 l 5
 1158.69 461.389 l 5
 1158.69 405.962 l 5x80011fc00f07
1158.69 516.816 m 5x80005fc00f07
 1103.27 516.816 l 5
 1103.27 572.247 l 5
 1158.69 572.247 l 5
 1158.69 516.816 l 5x80005fc00f07
1158.69 627.665 m 5
 1103.27 627.665 l 5
 1103.27 683.093 l 5
 1158.69 683.093 l 5
 1158.69 627.665 l 5
1158.69 738.522 m 5
 1103.27 738.522 l 5
 1103.27 793.945 l 5
 1158.69 793.945 l 5
 1158.69 738.522 l 5
493.667 73.4033 m 5x80401fc02f03
 438.247 73.4033 l 5
 438.247 128.83 l 5
 493.667 128.83 l 5
 493.667 73.4033 l 5x80401fc02f03
493.667 184.257 m 5x80101fc02f03
 438.247 184.257 l 5
 438.247 239.683 l 5
 493.667 239.683 l 5
 493.667 184.257 l 5x80101fc02f03
493.667 295.109 m 5x80041fc02f03
 438.247 295.109 l 5
 438.247 350.537 l 5
 493.667 350.537 l 5
 493.667 295.109 l 5x80041fc02f03
493.667 405.962 m 5x80011fc02f03
 438.247 405.962 l 5
 438.247 461.389 l 5
 493.667 461.389 l 5
 493.667 405.962 l 5x80011fc02f03
493.667 516.816 m 5x80005fc02f03
 438.247 516.816 l 5
 438.247 572.247 l 5
 493.667 572.247 l 5
 493.667 516.816 l 5x80005fc02f03
493.667 627.665 m 5
 438.247 627.665 l 5
 438.247 683.093 l 5
 493.667 683.093 l 5
 493.667 627.665 l 5
493.667 738.522 m 5
 438.247 738.522 l 5
 438.247 793.945 l 5
 493.667 793.945 l 5
 493.667 738.522 l 5
604.501 73.4033 m 5x80401fc00f03
 549.089 73.4033 l 5
 549.089 128.83 l 5
 604.501 128.83 l 5
 604.501 73.4033 l 5x80401fc00f03
604.501 184.257 m 5x80101fc00f03
 549.089 184.257 l 5
 549.089 239.683 l 5
 604.501 239.683 l 5
 604.501 184.257 l 5x80101fc00f03
604.501 295.109 m 5x80041fc00f03
 549.089 295.109 l 5
 549.089 350.537 l 5
 604.501 350.537 l 5
 604.501 295.109 l 5x80041fc00f03
604.501 405.962 m 5x80011fc00f03
 549.089 405.962 l 5
 549.089 461.389 l 5
 604.501 461.389 l 5
 604.501 405.962 l 5x80011fc00f03
604.501 516.816 m 5x80005fc00f03
 549.089 516.816 l 5
 549.089 572.247 l 5
 604.501 572.247 l 5
 604.501 516.816 l 5x80005fc00f03
604.501 627.665 m 5
 549.089 627.665 l 5
 549.089 683.093 l 5
 604.501 683.093 l 5
 604.501 627.665 l 5
604.501 738.522 m 5
 549.089 738.522 l 5
 549.089 793.945 l 5
 604.501 793.945 l 5
 604.501 738.522 l 5
715.339 73.4033 m 5x80401fc00f03
 659.922 73.4033 l 5
 659.922 128.83 l 5
 715.339 128.83 l 5
 715.339 73.4033 l 5x80401fc00f03
715.339 184.257 m 5x80101fc00f03
 659.922 184.257 l 5
 659.922 239.683 l 5
 715.339 239.683 l 5
 715.339 184.257 l 5x80101fc00f03
715.339 295.109 m 5x80041fc00f03
 659.922 295.109 l 5
 659.922 350.537 l 5
 715.339 350.537 l 5
 715.339 295.109 l 5x80041fc00f03
715.339 405.962 m 5x80011fc00f03
 659.922 405.962 l 5
 659.922 461.389 l 5
 715.339 461.389 l 5
 715.339 405.962 l 5x80011fc00f03
715.339 516.816 m 5x80005fc00f03
 659.922 516.816 l 5
 659.922 572.247 l 5
 715.339 572.247 l 5
 715.339 516.816 l 5x80005fc00f03
715.339 627.665 m 5
 659.922 627.665 l 5
 659.922 683.093 l 5
 715.339 683.093 l 5
 715.339 627.665 l 5
715.339 738.522 m 5
 659.922 738.522 l 5
 659.922 793.945 l 5
 715.339 793.945 l 5
 715.339 738.522 l 5
826.185 1015.66 m 5x80001fc00f83
 826.185 960.228 l 5
 770.762 960.228 l 5
 770.762 1015.66 l 5
 826.185 1015.66 l 5x80001fc00f83
937.019 960.228 m 5x80001fc00f23
 881.595 960.228 l 5
 881.595 1015.66 l 5
 937.019 1015.66 l 5
 937.019 960.228 l 5x80001fc00f23
1047.86 960.228 m 5x80001fc00f1b
 992.435 960.228 l 5
 992.435 1015.66 l 5
 1047.86 1015.66 l 5
 1047.86 960.228 l 5x80001fc00f1b
1158.69 960.228 m 5
 1103.27 960.228 l 5x80001fc00f07
 1103.27 1015.66 l 5
 1158.69 1015.66 l 5
 1158.69 960.228 l 5
493.667 960.228 m 5x80001fc02f03
 438.247 960.228 l 5
 438.247 1015.66 l 5
 493.667 1015.66 l 5
 493.667 960.228 l 5x80001fc02f03
604.501 960.228 m 5
 549.089 960.228 l 5
 549.089 1015.66 l 5
 604.501 1015.66 l 5
 604.501 960.228 l 5
715.339 960.228 m 5
 659.922 960.228 l 5
 659.922 1015.66 l 5
 715.339 1015.66 l 5
 715.339 960.228 l 5
382.828 -314.582 m 5xc0001fc18f03
 382.828 -370.009 l 5
 327.408 -370.009 l 5
 327.408 -314.582 l 5
 382.828 -314.582 l 5xc0001fc18f03
382.828 -203.729 m 5x90001fc18f03
 382.828 -259.155 l 5
 327.408 -259.155 l 5
 327.408 -203.729 l 5
 382.828 -203.729 l 5x90001fc18f03
382.828 -92.876 m 5x84001fc18f03
 382.828 -148.302 l 5
 327.408 -148.302 l 5
 327.408 -92.876 l 5
 382.828 -92.876 l 5x84001fc18f03
50.3145 17.9766 m 5
 50.3145 -37.4492 l 5
 -5.10449 -37.4492 l 5
 -5.10449 17.9766 l 5x81001fe00f03
 50.3145 17.9766 l 5
161.152 17.9766 m 5x81001fc80f03
 161.152 -37.4492 l 5
 105.733 -37.4492 l 5
 105.733 17.9766 l 5
 161.152 17.9766 l 5x81001fc80f03
271.99 17.9766 m 5x81001fc20f03
 271.99 -37.4492 l 5
 216.571 -37.4492 l 5
 216.571 17.9766 l 5
 271.99 17.9766 l 5x81001fc20f03
50.3145 904.798 m 5
 50.3145 849.375 l 5
 -5.10449 849.375 l 5
 -5.10449 904.798 l 5x80001fe00f03
 50.3145 904.798 l 5
161.152 904.798 m 5x80001fc80f03
 161.152 849.375 l 5
 105.733 849.375 l 5
 105.733 904.798 l 5
 161.152 904.798 l 5x80001fc80f03
271.99 904.798 m 5x80001fc20f03
 271.99 849.375 l 5
 216.571 849.375 l 5
 216.571 904.798 l 5
 271.99 904.798 l 5x80001fc20f03
770.762 17.9766 m 5x81001fc00f83
 826.185 17.9766 l 5
 826.185 -37.4492 l 5
 770.762 -37.4492 l 5
 770.762 17.9766 l 5x81001fc00f83
937.019 17.9766 m 5x81001fc00f23
 937.019 -37.4492 l 5
 881.595 -37.4492 l 5
 881.595 17.9766 l 5
 937.019 17.9766 l 5x81001fc00f23
1047.86 17.9766 m 5x81001fc00f1b
 1047.86 -37.4492 l 5
 992.435 -37.4492 l 5
 992.435 17.9766 l 5
 1047.86 17.9766 l 5x81001fc00f1b
1158.69 17.9766 m 5
 1158.69 -37.4492 l 5
 1103.27 -37.4492 l 5
 1103.27 17.9766 l 5x81001fc00f07
 1158.69 17.9766 l 5
382.828 17.9766 m 5x81001fc18f03
 382.828 -37.4492 l 5
 327.408 -37.4492 l 5
 327.408 17.9766 l 5
 382.828 17.9766 l 5x81001fc18f03
382.828 128.83 m 5x80401fc18f03
 382.828 73.4033 l 5
 327.408 73.4033 l 5
 327.408 128.83 l 5
 382.828 128.83 l 5x80401fc18f03
382.828 239.683 m 5x80101fc18f03
 382.828 184.257 l 5
 327.408 184.257 l 5
 327.408 239.683 l 5
 382.828 239.683 l 5x80101fc18f03
382.828 350.537 m 5x80041fc18f03
 382.828 295.109 l 5
 327.408 295.109 l 5
 327.408 350.537 l 5
 382.828 350.537 l 5x80041fc18f03
382.828 461.389 m 5x80011fc18f03
 382.828 405.962 l 5
 327.408 405.962 l 5
 327.408 461.389 l 5
 382.828 461.389 l 5x80011fc18f03
382.828 572.247 m 5x80005fc18f03
 382.828 516.816 l 5
 327.408 516.816 l 5
 327.408 572.247 l 5
 382.828 572.247 l 5x80005fc18f03
382.828 683.093 m 5
 382.828 627.665 l 5
 327.408 627.665 l 5
 327.408 683.093 l 5
 382.828 683.093 l 5
382.828 793.945 m 5
 382.828 738.522 l 5
 327.408 738.522 l 5
 327.408 793.945 l 5
 382.828 793.945 l 5
493.667 17.9766 m 5x81001fc02f03
 493.667 -37.4492 l 5
 438.247 -37.4492 l 5
 438.247 17.9766 l 5
 493.667 17.9766 l 5x81001fc02f03
604.501 17.9766 m 5
 604.501 -37.4492 l 5
 549.089 -37.4492 l 5
 549.089 17.9766 l 5
 604.501 17.9766 l 5
715.339 17.9766 m 5
 715.339 -37.4492 l 5
 659.922 -37.4492 l 5
 659.922 17.9766 l 5
 715.339 17.9766 l 5
770.762 904.798 m 5x80001fc00f83
 826.185 904.798 l 5
 826.185 849.375 l 5
 770.762 849.375 l 5
 770.762 904.798 l 5x80001fc00f83
937.019 904.798 m 5x80001fc00f23
 937.019 849.375 l 5
 881.595 849.375 l 5
 881.595 904.798 l 5
 937.019 904.798 l 5x80001fc00f23
1047.86 904.798 m 5x80001fc00f1b
 1047.86 849.375 l 5
 992.435 849.375 l 5
 992.435 904.798 l 5
 1047.86 904.798 l 5x80001fc00f1b
1158.69 904.798 m 5
 1158.69 849.375 l 5
 1103.27 849.375 l 5
 1103.27 904.798 l 5x80001fc00f07
 1158.69 904.798 l 5
382.828 904.798 m 5x80001fc18f03
 382.828 849.375 l 5
 327.408 849.375 l 5
 327.408 904.798 l 5
 382.828 904.798 l 5x80001fc18f03
382.828 1015.66 m 5
 382.828 960.228 l 5
 327.408 960.228 l 5
 327.408 1015.66 l 5
 382.828 1015.66 l 5
493.667 904.798 m 5x80001fc02f03
 493.667 849.375 l 5
 438.247 849.375 l 5
 438.247 904.798 l 5
 493.667 904.798 l 5x80001fc02f03
604.501 904.798 m 5
 604.501 849.375 l 5
 549.089 849.375 l 5
 549.089 904.798 l 5
 604.501 904.798 l 5
715.339 904.798 m 5
 715.339 849.375 l 5
 659.922 849.375 l 5
 659.922 904.798 l 5
 715.339 904.798 l 5
EndSplineSet
EndChar

StartChar: A
Encoding: 65 65 48
Width: 1013
VWidth: 0
Flags: HW
LayerCount: 4
Back
Fore
SplineSet
498 664 m 0
 524 664 517 611 637 316 c 1
 736 316 l 2
 745 316 752 309 752 300 c 0
 752 291 745 284 736 284 c 2
 651 284 l 1
 717 127 782 16 842 16 c 0
 904 16 944 81 981 163 c 0
 984 170 990 173 995 173 c 0
 1004 173 1013 165 1013 156 c 0
 1013 154 1012 151 1011 149 c 0
 980 80 932 -16 842 -16 c 0
 761 -16 682 123 614 284 c 1
 382 284 l 1
 314 123 235 -16 154 -16 c 0
 64 -16 16 80 -15 149 c 0
 -16 151 -17 154 -17 156 c 0
 -17 165 -8 173 1 173 c 0
 6 173 12 170 15 163 c 0
 52 81 92 16 154 16 c 0
 214 16 279 127 345 284 c 1
 268 284 l 2
 259 284 252 291 252 300 c 0
 252 309 259 316 268 316 c 2
 359 316 l 1
 400 416 440 533 482 652 c 0
 484 659 491 664 498 664 c 0
396 316 m 1
 600 316 l 1
 561 413 526 515 498 597 c 1
 470 515 435 413 396 316 c 1
EndSplineSet
Layer: 2
SplineSet
268 316 m 28
 450.52 316 553.48 316 736 316 c 1052
996 156 m 4
 962 81 918 0 842 0 c 7
 713 0 574 430 498 647 c 5
 422 430 283 0 154 0 c 7
 78 0 34 81 0 156 c 1028
EndSplineSet
EndChar

StartChar: B
Encoding: 66 66 49
Width: 600
VWidth: 0
Flags: HW
LayerCount: 4
Back
Fore
SplineSet
401 664 m 0
 503 664 596 620 596 490 c 0
 596 405 547 361 482 340 c 1
 557 322 616 277 616 166 c 0
 616 40 536 -16 435 -16 c 0
 367 -16 313 7 269 38 c 1
 240 5 198 -16 150 -16 c 0
 17 -16 -17 128 -17 137 c 0
 -17 147 -8 153 1 153 c 0
 8 153 14 150 16 141 c 0
 33 70 80 16 150 16 c 0
 226 16 284 86 284 166 c 2
 284 612 l 1
 225 594 196 577 181 577 c 0
 174 577 170 580 167 587 c 0
 164 596 168 606 177 609 c 0
 245 634 310 664 401 664 c 0
316 621 m 1
 316 353 l 1
 438 354 564 371 564 490 c 0
 564 602 481 630 401 630 c 0
 370 630 342 627 316 621 c 1
288 64 m 1
 328 36 375 16 435 16 c 0
 516 16 584 56 584 166 c 0
 584 312 456 320 345 320 c 0
 335 320 325 320 316 320 c 1
 316 166 l 2
 316 129 306 94 288 64 c 1
EndSplineSet
Layer: 2
SplineSet
183 593 m 4
 252 618 313.41 647 401 647 c 31
 493.857 647 580 610.017 580 490 c 3
 580 347.986 426 336 300 336 c 5
 424 336 600 348.011 600 166 c 3
 600 47.9831 526.281 0 435 0 c 27
 365.06 0 310.5 26 266 60 c 1024
300 630 m 31
 300 449.04 300 346.96 300 166 c 31
 300 78.7441 237.256 0 150 0 c 27
 70.7725 0 18 60 0 137 c 1024
EndSplineSet
EndChar

StartChar: C
Encoding: 67 67 50
Width: 557
VWidth: 0
Flags: HW
LayerCount: 4
Back
Fore
SplineSet
-16 333 m 0
 -16 511 124 666 318 666 c 0
 404 666 491 631 552 570 c 0
 555 567 557 563 557 559 c 0
 557 550 548 541 539 541 c 0
 535 541 531 543 528 546 c 0
 469 605 389 632 318 632 c 0
 141 632 16 491 16 333 c 0
 16 264 44 174 106 112 c 0
 156 62 232 16 317 16 c 0
 402 16 478 64 528 115 c 0
 531 119 535 120 539 120 c 0
 548 120 557 111 557 102 c 0
 557 98 555 94 552 91 c 0
 450 -12 346 -17 317 -17 c 0
 223 -17 137 33 82 88 c 0
 13 157 -16 255 -16 333 c 0
EndSplineSet
Layer: 2
SplineSet
540 558 m 4
 482 616 400 649 318 649 c 4
 235 649 152 617 93 558 c 4
 34 499 0 416 0 333 c 4
 0 249 35 159 94 100 c 4
 153 41 236 -1 320 0 c 4
 403 1 482 44 540 103 c 1028
EndSplineSet
EndChar

StartChar: D
Encoding: 68 68 51
Width: 666
VWidth: 0
Flags: HW
LayerCount: 4
Back
Fore
SplineSet
350 662 m 0
 603 662 666 461 666 328 c 0
 666 170 621 -16 441 -16 c 0
 340 -16 286 26 236 65 c 1
 208 16 156 -16 96 -16 c 0
 34 -16 -16 18 -16 69 c 0
 -16 122 35 158 95 158 c 0
 150 158 188 139 222 116 c 1
 225 127 226 140 226 152 c 2
 226 611 l 1
 166 593 138 577 123 577 c 0
 117 577 113 580 110 587 c 0
 107 596 111 606 120 609 c 0
 188 634 257 662 350 662 c 0
250 96 m 1
 300 58 349 16 441 16 c 0
 607 16 634 209 634 328 c 0
 634 441 585 630 350 630 c 0
 317 630 288 625 260 619 c 1
 260 152 l 2
 260 132 256 114 250 96 c 1
209 85 m 1
 177 107 143 124 95 124 c 0
 53 124 16 102 16 69 c 0
 16 37 54 16 96 16 c 0
 145 16 187 44 209 85 c 1
EndSplineSet
Layer: 2
SplineSet
126 593 m 4
 195 618 260.138 646 350 646 c 7
 596.019 646 650 448.017 650 328 c 7
 650 209.983 624 0 441 0 c 7
 264 0 240.715 141 95 141 c 31
 48.5117 141 0 115.488 0 69 c 31
 0 22.8926 49.8926 0 96 0 c 31
 178.467 0 243 69.5332 243 152 c 23
 243 361.04 243 444.19 243 631 c 1052
EndSplineSet
EndChar

StartChar: E
Encoding: 69 69 52
Width: 334
VWidth: 0
Flags: HW
LayerCount: 4
Back
Fore
SplineSet
178 630 m 0
 176 630 l 0
 86 630 42 576 42 497 c 3
 42 421 104 366 210 366 c 0
 220 366 226 360 226 350 c 0
 226 340 220 334 210 334 c 0
 93 334 16 282 16 175 c 3
 16 77 90 16 176 16 c 3
 304 16 310 97 334 97 c 0
 337 97 340 96 343 94 c 0
 348 91 350 85 350 80 c 0
 350 77 350 74 348 71 c 0
 311 16 264 -16 176 -16 c 3
 71 -16 -16 59 -16 175 c 0
 -16 267 32 326 110 352 c 1
 47 378 10 431 10 497 c 3
 10 599 72 662 176 662 c 0
 178 663 l 0
 220 663 276 645 308 606 c 0
 311 603 312 598 312 595 c 0
 312 586 303 578 294 578 c 0
 290 578 286 580 282 584 c 0
 256 615 212 630 178 630 c 0
EndSplineSet
Layer: 2
SplineSet
295 595 m 5
 271 623.755 224.75 646.654 176 646 c 5
 79 646 26 588 26 497 c 7
 26 411 96 350 210 350 c 5
 84.5 350 0 292 0 175 c 7
 0 68 79.917 0 176 0 c 7
 256 0 299 28 334 80 c 1037
EndSplineSet
EndChar

StartChar: F
Encoding: 70 70 53
Width: 580
VWidth: 0
Flags: HW
LayerCount: 4
Back
Fore
SplineSet
316 166 m 2
 316 71 248 -16 150 -16 c 0
 20 -16 -17 123 -17 137 c 0
 -17 147 -8 153 1 153 c 0
 8 153 14 150 16 141 c 0
 33 70 80 16 150 16 c 0
 226 16 284 87 284 166 c 2
 284 247 l 1
 221 251 160 277 118 325 c 0
 115 328 113 333 113 336 c 0
 113 345 122 353 131 353 c 0
 135 353 138 351 142 347 c 0
 177 307 230 284 284 280 c 1
 284 591 l 1
 251 612 215 630 171 630 c 0
 93 630 58 595 13 540 c 0
 9 536 5 534 1 534 c 0
 -8 534 -17 542 -17 551 c 0
 -17 554 -16 559 -13 562 c 0
 38 624 81 664 171 664 c 0
 283 664 341 565 419 565 c 0
 455 565 502 586 568 658 c 0
 571 662 575 664 579 664 c 0
 588 664 597 656 597 647 c 0
 597 643 595 639 592 636 c 0
 523 561 469 532 419 532 c 0
 380 532 348 550 316 570 c 1
 316 280 l 1
 369 284 421 307 458 347 c 0
 461 351 465 353 469 353 c 0
 478 353 487 345 487 336 c 0
 487 332 485 328 482 325 c 0
 438 277 377 251 316 247 c 1
 316 166 l 2
EndSplineSet
Layer: 2
SplineSet
130 336 m 21
 214 240 380 238 470 336 c 1037
300 599 m 31
 300 430 300 335 300 166 c 31
 300 79 237 0 150 0 c 31
 71 0 18 60 0 137 c 1028
580 647 m 21
 377 426 331 647 171 647 c 23
 87 647 48 609 0 551 c 1029
EndSplineSet
EndChar

StartChar: G
Encoding: 71 71 54
Width: 775
VWidth: 0
Flags: HW
LayerCount: 4
Back
Fore
SplineSet
-16 333 m 0
 -16 511 124 666 318 666 c 0
 404 666 491 631 552 570 c 0
 555 567 557 563 557 559 c 0
 557 550 548 541 539 541 c 0
 535 541 531 543 528 546 c 0
 469 605 389 632 318 632 c 0
 141 632 16 491 16 333 c 0
 16 264 44 174 106 112 c 0
 157 61 234 16 320 16 c 0
 419 16 584 91 584 336 c 0
 584 346 590 352 600 352 c 0
 610 352 616 346 616 336 c 2
 616 9 l 1
 656 58 705 112 763 172 c 0
 766 176 770 177 774 177 c 0
 783 177 792 168 792 159 c 0
 792 155 790 151 787 148 c 0
 720 79 661 14 616 -44 c 1
 616 -222 l 2
 616 -256 612 -324 554 -324 c 0
 527 -324 488 -309 488 -230 c 0
 488 -183 520 -117 584 -33 c 1
 584 162 l 1
 526 30 404 -16 320 -16 c 0
 231 -16 144 26 82 88 c 0
 13 157 -16 255 -16 333 c 0
584 -89 m 1
 544 -147 520 -195 520 -230 c 0
 520 -266 530 -292 554 -292 c 0
 570 -292 584 -279 584 -222 c 2
 584 -89 l 1
EndSplineSet
Layer: 2
SplineSet
540 558 m 0
 482 616 400 649 318 649 c 0
 235 649 152 617 93 558 c 0
 34 499 0 416 0 333 c 0
 0 249 35 159 94 100 c 0
 153 41 235.994 0 320 0 c 3
 426 0 600 80 600 336 c 5
 600 270 600 -4.37988 600 -222 c 31
 600 -260.036 594 -308 554 -308 c 7
 514.987 -308 504 -269 504 -230 c 7
 504 -121.958 700 83 775 160 c 1029
EndSplineSet
EndChar

StartChar: H
Encoding: 72 72 55
Width: 680
VWidth: 0
Flags: HW
LayerCount: 4
Back
Fore
SplineSet
166 252 m 1
 270 330 342 360 444 436 c 1
 444 560 l 2
 444 621 475 662 523 662 c 0
 570 662 600 639 600 583 c 0
 600 530 541 470 476 419 c 1
 476 109 l 2
 476 58 519 16 570 16 c 0
 627 16 664 48 664 120 c 0
 664 129 671 136 680 136 c 0
 689 136 696 129 696 120 c 0
 696 26 640 -16 570 -16 c 0
 501 -16 444 39 444 109 c 2
 444 395 l 1
 349 327 270 292 166 210 c 1
 166 86 l 2
 166 24 135 -16 87 -16 c 0
 24 -16 8 22 8 58 c 0
 8 110 68 173 134 226 c 1
 134 599 l 1
 13 449 l 2
 9 445 5 442 1 442 c 0
 -8 442 -17 450 -17 459 c 0
 -17 462 -16 466 -13 469 c 2
 137 656 l 2
 140 660 145 662 150 662 c 0
 158 662 166 656 166 646 c 2
 166 252 l 1
476 462 m 1
 529 505 566 548 566 583 c 0
 566 618 554 630 523 630 c 0
 486 630 476 588 476 560 c 2
 476 462 l 1
134 183 m 1
 80 136 42 91 42 58 c 0
 42 31 52 16 87 16 c 0
 124 16 134 57 134 86 c 2
 134 183 l 1
EndSplineSet
Layer: 2
SplineSet
680 120 m 4
 680 37 633.487 0 570 0 c 31
 509.605 0 460 48.6055 460 109 c 23
 460 175 460 384.11 460 560 c 31
 460 601.576 478 646 523 646 c 7
 564.012 646 583 626.5 583 583 c 7
 583 491.994 382 372 303 324 c 4
 212.795 269.192 25 142.054 25 58 c 7
 25 19 45 0 87 0 c 7
 133 0 150 44.4238 150 86 c 31
 150 304.4 150 580 150 646 c 5
 0 459 l 1029
EndSplineSet
EndChar

StartChar: I
Encoding: 73 73 56
Width: 317
VWidth: 0
Flags: HW
LayerCount: 4
Back
Fore
SplineSet
287 656 m 2
 290 660 295 662 300 662 c 0
 308 662 316 656 316 646 c 2
 316 166 l 2
 316 71 248 -16 150 -16 c 3
 17 -16 -17 128 -17 137 c 0
 -17 147 -8 153 1 153 c 0
 8 153 14 150 16 141 c 0
 33 70 80 16 150 16 c 3
 226 16 284 86 284 166 c 2
 284 599 l 1
 163 450 l 2
 159 446 155 443 151 443 c 0
 142 443 133 451 133 460 c 0
 133 463 134 467 137 470 c 2
 287 656 l 2
EndSplineSet
Layer: 2
SplineSet
150 460 m 1
 300 646 l 13
 300 458.8 300 353.2 300 166 c 27
 300 78.7441 237.256 0 150 0 c 27
 70.7725 0 18 60 0 137 c 1024
EndSplineSet
EndChar

StartChar: J
Encoding: 74 74 57
Width: 325
VWidth: 0
Flags: HW
LayerCount: 4
Back
Fore
SplineSet
166 -38 m 5
 166 -222 l 6
 166 -266 153 -324 99 -324 c 4
 56 -324 28 -287 28 -230 c 4
 28 -175 77 -98 134 -25 c 5
 134 599 l 5
 13 449 l 2
 9 445 5 442 1 442 c 0
 -8 442 -17 450 -17 459 c 0
 -17 462 -16 466 -13 469 c 2
 137 656 l 6
 140 660 145 662 150 662 c 4
 158 662 166 656 166 646 c 6
 166 15 l 5
 229 89 294 153 313 172 c 4
 316 176 320 177 324 177 c 4
 333 177 342 168 342 159 c 4
 342 155 340 151 337 148 c 4
 286 95 220 28 166 -38 c 5
60 -230 m 4
 60 -255 68 -292 99 -292 c 4
 123 -292 134 -262 134 -222 c 6
 134 -80 l 5
 91 -138 60 -191 60 -230 c 4
EndSplineSet
Layer: 2
SplineSet
325 160 m 5
 250 83 44 -121.958 44 -230 c 7
 44 -269 59.9873 -308 99 -308 c 7
 139 -308 150 -260.994 150 -222 c 31
 150 116.52 150 580 150 646 c 5
 0 459 l 1025
EndSplineSet
EndChar

